<?xml version="1.0" encoding="UTF-8" standalone="yes"?>
<!-- Created with sK1/UniConvertor (http://sk1project.org/) -->
<svg xmlns="http://www.w3.org/2000/svg" xmlns:xlink="http://www.w3.org/1999/xlink"
  width="225pt" height="225pt" viewBox="0 0 225 225"
  fill-rule="evenodd">
<g>
<g>
<path style="stroke:none; fill:#000000" d="M 25.3 0.699997C 26.2 0.899994 27.6 0.899994 28.3 0.699997C 28.9 0.399994 28.2 0.199997 26.5 0.199997C 24.9 0.199997 24.3 0.399994 25.3 0.699997z"/>
<path style="stroke:none; fill:#000000" d="M 96.3 0.699997C 97.8 0.899994 100 0.899994 101.3 0.699997C 102.5 0.5 101.3 0.300003 98.5 0.300003C 95.8 0.300003 94.7 0.5 96.3 0.699997z"/>
<path style="stroke:none; fill:#000000" d="M 123.8 0.699997C 125 0.899994 127 0.899994 128.3 0.699997C 129.5 0.5 128.5 0.300003 126 0.300003C 123.5 0.300003 122.5 0.5 123.8 0.699997z"/>
<path style="stroke:none; fill:#000000" d="M 196.3 0.699997C 197.2 0.899994 198.6 0.899994 199.3 0.699997C 199.9 0.399994 199.2 0.199997 197.5 0.199997C 195.9 0.199997 195.3 0.399994 196.3 0.699997z"/>
<path style="stroke:none; fill:#000000" d="M 25.3 2.7C 26.2 2.89999 27.6 2.89999 28.3 2.7C 28.9 2.39999 28.2 2.2 26.5 2.2C 24.9 2.2 24.3 2.39999 25.3 2.7z"/>
<path style="stroke:none; fill:#000000" d="M 96.3 2.7C 97.8 2.89999 100.2 2.89999 101.8 2.7C 103.3 2.5 102 2.3 99 2.3C 96 2.3 94.7 2.5 96.3 2.7z"/>
<path style="stroke:none; fill:#000000" d="M 122.3 2.7C 123.8 2.89999 126.2 2.89999 127.8 2.7C 129.3 2.5 128 2.3 125 2.3C 122 2.3 120.7 2.5 122.3 2.7z"/>
<path style="stroke:none; fill:#000000" d="M 196.3 2.7C 197.2 2.89999 198.6 2.89999 199.3 2.7C 199.9 2.39999 199.2 2.2 197.5 2.2C 195.9 2.2 195.3 2.39999 196.3 2.7z"/>
<path style="stroke:none; fill:#000000" d="M 25.3 4.7C 26.2 4.89999 27.6 4.89999 28.3 4.7C 28.9 4.39999 28.2 4.2 26.5 4.2C 24.9 4.2 24.3 4.39999 25.3 4.7z"/>
<path style="stroke:none; fill:#000000" d="M 95.7 4.7C 97.5 4.89999 100.7 4.89999 102.7 4.7C 104.8 4.5 103.4 4.3 99.5 4.3C 95.7 4.3 94 4.5 95.7 4.7z"/>
<path style="stroke:none; fill:#000000" d="M 121.7 4.7C 123.5 4.89999 126.7 4.89999 128.7 4.7C 130.8 4.5 129.4 4.3 125.5 4.3C 121.7 4.3 120 4.5 121.7 4.7z"/>
<path style="stroke:none; fill:#000000" d="M 196.3 4.7C 197.2 4.89999 198.6 4.89999 199.3 4.7C 199.9 4.39999 199.2 4.2 197.5 4.2C 195.9 4.2 195.3 4.39999 196.3 4.7z"/>
<path style="stroke:none; fill:#000000" d="M 25.3 6.7C 26.2 6.89999 27.6 6.89999 28.3 6.7C 28.9 6.39999 28.2 6.2 26.5 6.2C 24.9 6.2 24.3 6.39999 25.3 6.7z"/>
<path style="stroke:none; fill:#000000" d="M 95.8 6.7C 98.1 6.89999 101.7 6.89999 103.8 6.7C 105.8 6.5 103.9 6.3 99.5 6.3C 95.1 6.3 93.4 6.5 95.8 6.7z"/>
<path style="stroke:none; fill:#000000" d="M 120.8 6.7C 123.1 6.89999 126.9 6.89999 129.3 6.7C 131.6 6.5 129.7 6.3 125 6.3C 120.3 6.3 118.4 6.5 120.8 6.7z"/>
<path style="stroke:none; fill:#000000" d="M 196.3 6.7C 197.2 6.89999 198.6 6.89999 199.3 6.7C 199.9 6.39999 199.2 6.2 197.5 6.2C 195.9 6.2 195.3 6.39999 196.3 6.7z"/>
<path style="stroke:none; fill:#000000" d="M 25.3 8.7C 26.2 8.89999 27.6 8.89999 28.3 8.7C 28.9 8.39999 28.2 8.2 26.5 8.2C 24.9 8.2 24.3 8.39999 25.3 8.7z"/>
<path style="stroke:none; fill:#000000" d="M 91.8 8.7C 93 8.89999 95 8.89999 96.3 8.7C 97.5 8.5 96.5 8.3 94 8.3C 91.5 8.3 90.5 8.5 91.8 8.7z"/>
<path style="stroke:none; fill:#000000" d="M 102.3 8.7C 103.8 8.89999 106.2 8.89999 107.8 8.7C 109.3 8.5 108 8.3 105 8.3C 102 8.3 100.7 8.5 102.3 8.7z"/>
<path style="stroke:none; fill:#000000" d="M 117.3 8.7C 118.8 8.89999 121.2 8.89999 122.8 8.7C 124.3 8.5 123 8.3 120 8.3C 117 8.3 115.7 8.5 117.3 8.7z"/>
<path style="stroke:none; fill:#000000" d="M 127.8 8.7C 129 8.89999 131 8.89999 132.3 8.7C 133.5 8.5 132.5 8.3 130 8.3C 127.5 8.3 126.5 8.5 127.8 8.7z"/>
<path style="stroke:none; fill:#000000" d="M 196.3 8.7C 197.2 8.89999 198.6 8.89999 199.3 8.7C 199.9 8.39999 199.2 8.2 197.5 8.2C 195.9 8.2 195.3 8.39999 196.3 8.7z"/>
<path style="stroke:none; fill:#000000" d="M 25.3 10.7C 26.2 10.9 27.6 10.9 28.3 10.7C 28.9 10.4 28.2 10.2 26.5 10.2C 24.9 10.2 24.3 10.4 25.3 10.7z"/>
<path style="stroke:none; fill:#000000" d="M 90.8 10.7C 92 10.9 94 10.9 95.3 10.7C 96.5 10.5 95.5 10.3 93 10.3C 90.5 10.3 89.5 10.5 90.8 10.7z"/>
<path style="stroke:none; fill:#000000" d="M 106.8 10.7C 110.2 10.9 115.6 10.9 118.8 10.7C 121.9 10.5 119.1 10.4 112.5 10.4C 105.9 10.4 103.3 10.5 106.8 10.7z"/>
<path style="stroke:none; fill:#000000" d="M 128.8 10.7C 130 10.9 132 10.9 133.3 10.7C 134.5 10.5 133.5 10.3 131 10.3C 128.5 10.3 127.5 10.5 128.8 10.7z"/>
<path style="stroke:none; fill:#000000" d="M 196.3 10.7C 197.2 10.9 198.6 10.9 199.3 10.7C 199.9 10.4 199.2 10.2 197.5 10.2C 195.9 10.2 195.3 10.4 196.3 10.7z"/>
<path style="stroke:none; fill:#000000" d="M 25.3 12.7C 26.2 12.9 27.6 12.9 28.3 12.7C 28.9 12.4 28.2 12.2 26.5 12.2C 24.9 12.2 24.3 12.4 25.3 12.7z"/>
<path style="stroke:none; fill:#000000" d="M 89.8 12.7C 91 12.9 93 12.9 94.3 12.7C 95.5 12.5 94.5 12.3 92 12.3C 89.5 12.3 88.5 12.5 89.8 12.7z"/>
<path style="stroke:none; fill:#000000" d="M 107.8 12.7C 110.7 12.9 115.2 12.9 117.8 12.7C 120.4 12.5 118 12.4 112.5 12.4C 107 12.4 104.9 12.5 107.8 12.7z"/>
<path style="stroke:none; fill:#000000" d="M 130.8 12.7C 132 12.9 134 12.9 135.3 12.7C 136.5 12.5 135.5 12.3 133 12.3C 130.5 12.3 129.5 12.5 130.8 12.7z"/>
<path style="stroke:none; fill:#000000" d="M 196.3 12.7C 197.2 12.9 198.6 12.9 199.3 12.7C 199.9 12.4 199.2 12.2 197.5 12.2C 195.9 12.2 195.3 12.4 196.3 12.7z"/>
<path style="stroke:none; fill:#000000" d="M 25.3 14.7C 26.2 14.9 27.6 14.9 28.3 14.7C 28.9 14.4 28.2 14.2 26.5 14.2C 24.9 14.2 24.3 14.4 25.3 14.7z"/>
<path style="stroke:none; fill:#000000" d="M 88.8 14.7C 90 14.9 92 14.9 93.3 14.7C 94.5 14.5 93.5 14.3 91 14.3C 88.5 14.3 87.5 14.5 88.8 14.7z"/>
<path style="stroke:none; fill:#000000" d="M 108.3 14.7C 110.9 14.9 115 14.9 117.3 14.7C 119.6 14.5 117.5 14.4 112.5 14.4C 107.6 14.4 105.7 14.5 108.3 14.7z"/>
<path style="stroke:none; fill:#000000" d="M 131.8 14.7C 133 14.9 135 14.9 136.3 14.7C 137.5 14.5 136.5 14.3 134 14.3C 131.5 14.3 130.5 14.5 131.8 14.7z"/>
<path style="stroke:none; fill:#000000" d="M 196.3 14.7C 197.2 14.9 198.6 14.9 199.3 14.7C 199.9 14.4 199.2 14.2 197.5 14.2C 195.9 14.2 195.3 14.4 196.3 14.7z"/>
<path style="stroke:none; fill:#000000" d="M 25.3 16.7C 26.2 16.9 27.6 16.9 28.3 16.7C 28.9 16.4 28.2 16.2 26.5 16.2C 24.9 16.2 24.3 16.4 25.3 16.7z"/>
<path style="stroke:none; fill:#000000" d="M 86.8 16.7C 88 16.9 90 16.9 91.3 16.7C 92.5 16.5 91.5 16.3 89 16.3C 86.5 16.3 85.5 16.5 86.8 16.7z"/>
<path style="stroke:none; fill:#000000" d="M 108.7 16.7C 110.5 16.9 113.7 16.9 115.7 16.7C 117.8 16.5 116.4 16.3 112.5 16.3C 108.7 16.3 107 16.5 108.7 16.7z"/>
<path style="stroke:none; fill:#000000" d="M 132.8 16.7C 134 16.9 136 16.9 137.3 16.7C 138.5 16.5 137.5 16.3 135 16.3C 132.5 16.3 131.5 16.5 132.8 16.7z"/>
<path style="stroke:none; fill:#000000" d="M 196.3 16.7C 197.2 16.9 198.6 16.9 199.3 16.7C 199.9 16.4 199.2 16.2 197.5 16.2C 195.9 16.2 195.3 16.4 196.3 16.7z"/>
<path style="stroke:none; fill:#000000" d="M 25.3 18.7C 26.2 18.9 27.6 18.9 28.3 18.7C 28.9 18.4 28.2 18.2 26.5 18.2C 24.9 18.2 24.3 18.4 25.3 18.7z"/>
<path style="stroke:none; fill:#000000" d="M 85.8 18.7C 87 18.9 89 18.9 90.3 18.7C 91.5 18.5 90.5 18.3 88 18.3C 85.5 18.3 84.5 18.5 85.8 18.7z"/>
<path style="stroke:none; fill:#000000" d="M 110.3 18.7C 111.2 18.9 112.8 18.9 113.8 18.7C 114.7 18.4 113.9 18.2 112 18.2C 110.1 18.2 109.3 18.4 110.3 18.7z"/>
<path style="stroke:none; fill:#000000" d="M 133.8 18.7C 135 18.9 137 18.9 138.3 18.7C 139.5 18.5 138.5 18.3 136 18.3C 133.5 18.3 132.5 18.5 133.8 18.7z"/>
<path style="stroke:none; fill:#000000" d="M 196.3 18.7C 197.2 18.9 198.6 18.9 199.3 18.7C 199.9 18.4 199.2 18.2 197.5 18.2C 195.9 18.2 195.3 18.4 196.3 18.7z"/>
<path style="stroke:none; fill:#000000" d="M 25.3 20.7C 26.2 20.9 27.6 20.9 28.3 20.7C 28.9 20.4 28.2 20.2 26.5 20.2C 24.9 20.2 24.3 20.4 25.3 20.7z"/>
<path style="stroke:none; fill:#000000" d="M 84.8 20.7C 86 20.9 88 20.9 89.3 20.7C 90.5 20.5 89.5 20.3 87 20.3C 84.5 20.3 83.5 20.5 84.8 20.7z"/>
<path style="stroke:none; fill:#000000" d="M 135.8 20.7C 137 20.9 139 20.9 140.3 20.7C 141.5 20.5 140.5 20.3 138 20.3C 135.5 20.3 134.5 20.5 135.8 20.7z"/>
<path style="stroke:none; fill:#000000" d="M 196.3 20.7C 197.2 20.9 198.6 20.9 199.3 20.7C 199.9 20.4 199.2 20.2 197.5 20.2C 195.9 20.2 195.3 20.4 196.3 20.7z"/>
<path style="stroke:none; fill:#000000" d="M 25.3 22.7C 26.2 22.9 27.6 22.9 28.3 22.7C 28.9 22.4 28.2 22.2 26.5 22.2C 24.9 22.2 24.3 22.4 25.3 22.7z"/>
<path style="stroke:none; fill:#000000" d="M 83.8 22.7C 85 22.9 87 22.9 88.3 22.7C 89.5 22.5 88.5 22.3 86 22.3C 83.5 22.3 82.5 22.5 83.8 22.7z"/>
<path style="stroke:none; fill:#000000" d="M 136.8 22.7C 138 22.9 140 22.9 141.3 22.7C 142.5 22.5 141.5 22.3 139 22.3C 136.5 22.3 135.5 22.5 136.8 22.7z"/>
<path style="stroke:none; fill:#000000" d="M 196.3 22.7C 197.2 22.9 198.6 22.9 199.3 22.7C 199.9 22.4 199.2 22.2 197.5 22.2C 195.9 22.2 195.3 22.4 196.3 22.7z"/>
<path style="stroke:none; fill:#000000" d="M 25.3 24.7C 26.2 24.9 27.6 24.9 28.3 24.7C 28.9 24.4 28.2 24.2 26.5 24.2C 24.9 24.2 24.3 24.4 25.3 24.7z"/>
<path style="stroke:none; fill:#000000" d="M 81.8 24.7C 83 24.9 85 24.9 86.3 24.7C 87.5 24.5 86.5 24.3 84 24.3C 81.5 24.3 80.5 24.5 81.8 24.7z"/>
<path style="stroke:none; fill:#000000" d="M 137.8 24.7C 139 24.9 141 24.9 142.3 24.7C 143.5 24.5 142.5 24.3 140 24.3C 137.5 24.3 136.5 24.5 137.8 24.7z"/>
<path style="stroke:none; fill:#000000" d="M 196.3 24.7C 197.2 24.9 198.6 24.9 199.3 24.7C 199.9 24.4 199.2 24.2 197.5 24.2C 195.9 24.2 195.3 24.4 196.3 24.7z"/>
<path style="stroke:none; fill:#000000" d="M 25.3 26.7C 26.2 26.9 27.6 26.9 28.3 26.7C 28.9 26.4 28.2 26.2 26.5 26.2C 24.9 26.2 24.3 26.4 25.3 26.7z"/>
<path style="stroke:none; fill:#000000" d="M 80.8 26.7C 82 26.9 84 26.9 85.3 26.7C 86.5 26.5 85.5 26.3 83 26.3C 80.5 26.3 79.5 26.5 80.8 26.7z"/>
<path style="stroke:none; fill:#000000" d="M 138.8 26.7C 140 26.9 142 26.9 143.3 26.7C 144.5 26.5 143.5 26.3 141 26.3C 138.5 26.3 137.5 26.5 138.8 26.7z"/>
<path style="stroke:none; fill:#000000" d="M 196.3 26.7C 197.2 26.9 198.6 26.9 199.3 26.7C 199.9 26.4 199.2 26.2 197.5 26.2C 195.9 26.2 195.3 26.4 196.3 26.7z"/>
<path style="stroke:none; fill:#000000" d="M 25.3 28.7C 26.2 28.9 27.6 28.9 28.3 28.7C 28.9 28.4 28.2 28.2 26.5 28.2C 24.9 28.2 24.3 28.4 25.3 28.7z"/>
<path style="stroke:none; fill:#000000" d="M 79.8 28.7C 81 28.9 83 28.9 84.3 28.7C 85.5 28.5 84.5 28.3 82 28.3C 79.5 28.3 78.5 28.5 79.8 28.7z"/>
<path style="stroke:none; fill:#000000" d="M 140.8 28.7C 142 28.9 144 28.9 145.3 28.7C 146.5 28.5 145.5 28.3 143 28.3C 140.5 28.3 139.5 28.5 140.8 28.7z"/>
<path style="stroke:none; fill:#000000" d="M 196.3 28.7C 197.2 28.9 198.6 28.9 199.3 28.7C 199.9 28.4 199.2 28.2 197.5 28.2C 195.9 28.2 195.3 28.4 196.3 28.7z"/>
<path style="stroke:none; fill:#000000" d="M 25.3 30.7C 26.2 30.9 27.6 30.9 28.3 30.7C 28.9 30.4 28.2 30.2 26.5 30.2C 24.9 30.2 24.3 30.4 25.3 30.7z"/>
<path style="stroke:none; fill:#000000" d="M 78.8 30.7C 80 30.9 82 30.9 83.3 30.7C 84.5 30.5 83.5 30.3 81 30.3C 78.5 30.3 77.5 30.5 78.8 30.7z"/>
<path style="stroke:none; fill:#000000" d="M 141.8 30.7C 143 30.9 145 30.9 146.3 30.7C 147.5 30.5 146.5 30.3 144 30.3C 141.5 30.3 140.5 30.5 141.8 30.7z"/>
<path style="stroke:none; fill:#000000" d="M 196.3 30.7C 197.2 30.9 198.6 30.9 199.3 30.7C 199.9 30.4 199.2 30.2 197.5 30.2C 195.9 30.2 195.3 30.4 196.3 30.7z"/>
<path style="stroke:none; fill:#000000" d="M 25.3 32.7C 26.2 32.9 27.6 32.9 28.3 32.7C 28.9 32.4 28.2 32.2 26.5 32.2C 24.9 32.2 24.3 32.4 25.3 32.7z"/>
<path style="stroke:none; fill:#000000" d="M 76.8 32.7C 78 32.9 80 32.9 81.3 32.7C 82.5 32.5 81.5 32.3 79 32.3C 76.5 32.3 75.5 32.5 76.8 32.7z"/>
<path style="stroke:none; fill:#000000" d="M 142.8 32.7C 144 32.9 146 32.9 147.3 32.7C 148.5 32.5 147.5 32.3 145 32.3C 142.5 32.3 141.5 32.5 142.8 32.7z"/>
<path style="stroke:none; fill:#000000" d="M 196.3 32.7C 197.2 32.9 198.6 32.9 199.3 32.7C 199.9 32.4 199.2 32.2 197.5 32.2C 195.9 32.2 195.3 32.4 196.3 32.7z"/>
<path style="stroke:none; fill:#000000" d="M 25.3 34.7C 26.2 34.9 27.6 34.9 28.3 34.7C 28.9 34.4 28.2 34.2 26.5 34.2C 24.9 34.2 24.3 34.4 25.3 34.7z"/>
<path style="stroke:none; fill:#000000" d="M 75.8 34.7C 77 34.9 79 34.9 80.3 34.7C 81.5 34.5 80.5 34.3 78 34.3C 75.5 34.3 74.5 34.5 75.8 34.7z"/>
<path style="stroke:none; fill:#000000" d="M 143.8 34.7C 145 34.9 147 34.9 148.3 34.7C 149.5 34.5 148.5 34.3 146 34.3C 143.5 34.3 142.5 34.5 143.8 34.7z"/>
<path style="stroke:none; fill:#000000" d="M 196.3 34.7C 197.2 34.9 198.6 34.9 199.3 34.7C 199.9 34.4 199.2 34.2 197.5 34.2C 195.9 34.2 195.3 34.4 196.3 34.7z"/>
<path style="stroke:none; fill:#000000" d="M 25.3 36.7C 26.2 36.9 27.6 36.9 28.3 36.7C 28.9 36.4 28.2 36.2 26.5 36.2C 24.9 36.2 24.3 36.4 25.3 36.7z"/>
<path style="stroke:none; fill:#000000" d="M 74.8 36.7C 76 36.9 78 36.9 79.3 36.7C 80.5 36.5 79.5 36.3 77 36.3C 74.5 36.3 73.5 36.5 74.8 36.7z"/>
<path style="stroke:none; fill:#000000" d="M 145.8 36.7C 147 36.9 149 36.9 150.3 36.7C 151.5 36.5 150.5 36.3 148 36.3C 145.5 36.3 144.5 36.5 145.8 36.7z"/>
<path style="stroke:none; fill:#000000" d="M 196.3 36.7C 197.2 36.9 198.6 36.9 199.3 36.7C 199.9 36.4 199.2 36.2 197.5 36.2C 195.9 36.2 195.3 36.4 196.3 36.7z"/>
<path style="stroke:none; fill:#000000" d="M 25.3 38.7C 26.2 38.9 27.6 38.9 28.3 38.7C 28.9 38.4 28.2 38.2 26.5 38.2C 24.9 38.2 24.3 38.4 25.3 38.7z"/>
<path style="stroke:none; fill:#000000" d="M 73.8 38.7C 75 38.9 77 38.9 78.3 38.7C 79.5 38.5 78.5 38.3 76 38.3C 73.5 38.3 72.5 38.5 73.8 38.7z"/>
<path style="stroke:none; fill:#000000" d="M 146.8 38.7C 148 38.9 150 38.9 151.3 38.7C 152.5 38.5 151.5 38.3 149 38.3C 146.5 38.3 145.5 38.5 146.8 38.7z"/>
<path style="stroke:none; fill:#000000" d="M 196.3 38.7C 197.2 38.9 198.6 38.9 199.3 38.7C 199.9 38.4 199.2 38.2 197.5 38.2C 195.9 38.2 195.3 38.4 196.3 38.7z"/>
<path style="stroke:none; fill:#000000" d="M 25.3 40.7C 26.2 40.9 27.6 40.9 28.3 40.7C 28.9 40.4 28.2 40.2 26.5 40.2C 24.9 40.2 24.3 40.4 25.3 40.7z"/>
<path style="stroke:none; fill:#000000" d="M 72.3 40.7C 73.8 40.9 76 40.9 77.3 40.7C 78.5 40.5 77.3 40.3 74.5 40.3C 71.8 40.3 70.7 40.5 72.3 40.7z"/>
<path style="stroke:none; fill:#000000" d="M 147.8 40.7C 149 40.9 151 40.9 152.3 40.7C 153.5 40.5 152.5 40.3 150 40.3C 147.5 40.3 146.5 40.5 147.8 40.7z"/>
<path style="stroke:none; fill:#000000" d="M 196.3 40.7C 197.2 40.9 198.6 40.9 199.3 40.7C 199.9 40.4 199.2 40.2 197.5 40.2C 195.9 40.2 195.3 40.4 196.3 40.7z"/>
<path style="stroke:none; fill:#000000" d="M 25.3 42.7C 26.2 42.9 27.6 42.9 28.3 42.7C 28.9 42.4 28.2 42.2 26.5 42.2C 24.9 42.2 24.3 42.4 25.3 42.7z"/>
<path style="stroke:none; fill:#000000" d="M 70.8 42.7C 72 42.9 74 42.9 75.3 42.7C 76.5 42.5 75.5 42.3 73 42.3C 70.5 42.3 69.5 42.5 70.8 42.7z"/>
<path style="stroke:none; fill:#000000" d="M 148.8 42.7C 150 42.9 152 42.9 153.3 42.7C 154.5 42.5 153.5 42.3 151 42.3C 148.5 42.3 147.5 42.5 148.8 42.7z"/>
<path style="stroke:none; fill:#000000" d="M 196.3 42.7C 197.2 42.9 198.6 42.9 199.3 42.7C 199.9 42.4 199.2 42.2 197.5 42.2C 195.9 42.2 195.3 42.4 196.3 42.7z"/>
<path style="stroke:none; fill:#000000" d="M 25.3 44.7C 26.2 44.9 27.6 44.9 28.3 44.7C 28.9 44.4 28.2 44.2 26.5 44.2C 24.9 44.2 24.3 44.4 25.3 44.7z"/>
<path style="stroke:none; fill:#000000" d="M 69.8 44.7C 71 44.9 73 44.9 74.3 44.7C 75.5 44.5 74.5 44.3 72 44.3C 69.5 44.3 68.5 44.5 69.8 44.7z"/>
<path style="stroke:none; fill:#000000" d="M 150.8 44.7C 152 44.9 154 44.9 155.3 44.7C 156.5 44.5 155.5 44.3 153 44.3C 150.5 44.3 149.5 44.5 150.8 44.7z"/>
<path style="stroke:none; fill:#000000" d="M 196.3 44.7C 197.2 44.9 198.6 44.9 199.3 44.7C 199.9 44.4 199.2 44.2 197.5 44.2C 195.9 44.2 195.3 44.4 196.3 44.7z"/>
<path style="stroke:none; fill:#000000" d="M 25.3 46.7C 26.2 46.9 27.6 46.9 28.3 46.7C 28.9 46.4 28.2 46.2 26.5 46.2C 24.9 46.2 24.3 46.4 25.3 46.7z"/>
<path style="stroke:none; fill:#000000" d="M 68.8 46.7C 70 46.9 72 46.9 73.3 46.7C 74.5 46.5 73.5 46.3 71 46.3C 68.5 46.3 67.5 46.5 68.8 46.7z"/>
<path style="stroke:none; fill:#000000" d="M 151.8 46.7C 153 46.9 155 46.9 156.3 46.7C 157.5 46.5 156.5 46.3 154 46.3C 151.5 46.3 150.5 46.5 151.8 46.7z"/>
<path style="stroke:none; fill:#000000" d="M 196.3 46.7C 197.2 46.9 198.6 46.9 199.3 46.7C 199.9 46.4 199.2 46.2 197.5 46.2C 195.9 46.2 195.3 46.4 196.3 46.7z"/>
<path style="stroke:none; fill:#000000" d="M 25.3 48.7C 26.2 48.9 27.6 48.9 28.3 48.7C 28.9 48.4 28.2 48.2 26.5 48.2C 24.9 48.2 24.3 48.4 25.3 48.7z"/>
<path style="stroke:none; fill:#000000" d="M 67.8 48.7C 69 48.9 71 48.9 72.3 48.7C 73.5 48.5 72.5 48.3 70 48.3C 67.5 48.3 66.5 48.5 67.8 48.7z"/>
<path style="stroke:none; fill:#000000" d="M 152.8 48.7C 154 48.9 156 48.9 157.3 48.7C 158.5 48.5 157.5 48.3 155 48.3C 152.5 48.3 151.5 48.5 152.8 48.7z"/>
<path style="stroke:none; fill:#000000" d="M 196.3 48.7C 197.2 48.9 198.6 48.9 199.3 48.7C 199.9 48.4 199.2 48.2 197.5 48.2C 195.9 48.2 195.3 48.4 196.3 48.7z"/>
<path style="stroke:none; fill:#000000" d="M 25.3 50.7C 26.2 50.9 27.6 50.9 28.3 50.7C 28.9 50.4 28.2 50.2 26.5 50.2C 24.9 50.2 24.3 50.4 25.3 50.7z"/>
<path style="stroke:none; fill:#000000" d="M 65.8 50.7C 67 50.9 69 50.9 70.3 50.7C 71.5 50.5 70.5 50.3 68 50.3C 65.5 50.3 64.5 50.5 65.8 50.7z"/>
<path style="stroke:none; fill:#000000" d="M 153.8 50.7C 155 50.9 157 50.9 158.3 50.7C 159.5 50.5 158.5 50.3 156 50.3C 153.5 50.3 152.5 50.5 153.8 50.7z"/>
<path style="stroke:none; fill:#000000" d="M 196.3 50.7C 197.2 50.9 198.6 50.9 199.3 50.7C 199.9 50.4 199.2 50.2 197.5 50.2C 195.9 50.2 195.3 50.4 196.3 50.7z"/>
<path style="stroke:none; fill:#000000" d="M 25.3 52.7C 26.2 52.9 27.6 52.9 28.3 52.7C 28.9 52.4 28.2 52.2 26.5 52.2C 24.9 52.2 24.3 52.4 25.3 52.7z"/>
<path style="stroke:none; fill:#000000" d="M 64.8 52.7C 66 52.9 68 52.9 69.3 52.7C 70.5 52.5 69.5 52.3 67 52.3C 64.5 52.3 63.5 52.5 64.8 52.7z"/>
<path style="stroke:none; fill:#000000" d="M 155.3 52.7C 156.8 52.9 159 52.9 160.3 52.7C 161.5 52.5 160.3 52.3 157.5 52.3C 154.8 52.3 153.7 52.5 155.3 52.7z"/>
<path style="stroke:none; fill:#000000" d="M 196.3 52.7C 197.2 52.9 198.6 52.9 199.3 52.7C 199.9 52.4 199.2 52.2 197.5 52.2C 195.9 52.2 195.3 52.4 196.3 52.7z"/>
<path style="stroke:none; fill:#000000" d="M 25.3 54.7C 26.2 54.9 27.6 54.9 28.3 54.7C 28.9 54.4 28.2 54.2 26.5 54.2C 24.9 54.2 24.3 54.4 25.3 54.7z"/>
<path style="stroke:none; fill:#000000" d="M 63.8 54.7C 65 54.9 67 54.9 68.3 54.7C 69.5 54.5 68.5 54.3 66 54.3C 63.5 54.3 62.5 54.5 63.8 54.7z"/>
<path style="stroke:none; fill:#000000" d="M 156.8 54.7C 158 54.9 160 54.9 161.3 54.7C 162.5 54.5 161.5 54.3 159 54.3C 156.5 54.3 155.5 54.5 156.8 54.7z"/>
<path style="stroke:none; fill:#000000" d="M 196.3 54.7C 197.2 54.9 198.6 54.9 199.3 54.7C 199.9 54.4 199.2 54.2 197.5 54.2C 195.9 54.2 195.3 54.4 196.3 54.7z"/>
<path style="stroke:none; fill:#000000" d="M 25.3 56.7C 26.2 56.9 27.6 56.9 28.3 56.7C 28.9 56.4 28.2 56.2 26.5 56.2C 24.9 56.2 24.3 56.4 25.3 56.7z"/>
<path style="stroke:none; fill:#000000" d="M 62.8 56.7C 64 56.9 66 56.9 67.3 56.7C 68.5 56.5 67.5 56.3 65 56.3C 62.5 56.3 61.5 56.5 62.8 56.7z"/>
<path style="stroke:none; fill:#000000" d="M 157.8 56.7C 159 56.9 161 56.9 162.3 56.7C 163.5 56.5 162.5 56.3 160 56.3C 157.5 56.3 156.5 56.5 157.8 56.7z"/>
<path style="stroke:none; fill:#000000" d="M 196.3 56.7C 197.2 56.9 198.6 56.9 199.3 56.7C 199.9 56.4 199.2 56.2 197.5 56.2C 195.9 56.2 195.3 56.4 196.3 56.7z"/>
<path style="stroke:none; fill:#000000" d="M 25.3 58.7C 26.2 58.9 27.6 58.9 28.3 58.7C 28.9 58.4 28.2 58.2 26.5 58.2C 24.9 58.2 24.3 58.4 25.3 58.7z"/>
<path style="stroke:none; fill:#000000" d="M 60.8 58.7C 62 58.9 64 58.9 65.3 58.7C 66.5 58.5 65.5 58.3 63 58.3C 60.5 58.3 59.5 58.5 60.8 58.7z"/>
<path style="stroke:none; fill:#000000" d="M 158.8 58.7C 160 58.9 162 58.9 163.3 58.7C 164.5 58.5 163.5 58.3 161 58.3C 158.5 58.3 157.5 58.5 158.8 58.7z"/>
<path style="stroke:none; fill:#000000" d="M 196.3 58.7C 197.2 58.9 198.6 58.9 199.3 58.7C 199.9 58.4 199.2 58.2 197.5 58.2C 195.9 58.2 195.3 58.4 196.3 58.7z"/>
<path style="stroke:none; fill:#000000" d="M 25.3 60.7C 26.2 60.9 27.6 60.9 28.3 60.7C 28.9 60.4 28.2 60.2 26.5 60.2C 24.9 60.2 24.3 60.4 25.3 60.7z"/>
<path style="stroke:none; fill:#000000" d="M 59.8 60.7C 61 60.9 63 60.9 64.3 60.7C 65.5 60.5 64.5 60.3 62 60.3C 59.5 60.3 58.5 60.5 59.8 60.7z"/>
<path style="stroke:none; fill:#000000" d="M 160.3 60.7C 161.8 60.9 164 60.9 165.3 60.7C 166.5 60.5 165.3 60.3 162.5 60.3C 159.8 60.3 158.7 60.5 160.3 60.7z"/>
<path style="stroke:none; fill:#000000" d="M 196.3 60.7C 197.2 60.9 198.6 60.9 199.3 60.7C 199.9 60.4 199.2 60.2 197.5 60.2C 195.9 60.2 195.3 60.4 196.3 60.7z"/>
<path style="stroke:none; fill:#000000" d="M 25.3 62.7C 26.2 62.9 27.6 62.9 28.3 62.7C 28.9 62.4 28.2 62.2 26.5 62.2C 24.9 62.2 24.3 62.4 25.3 62.7z"/>
<path style="stroke:none; fill:#000000" d="M 58.8 62.7C 60 62.9 62 62.9 63.3 62.7C 64.5 62.5 63.5 62.3 61 62.3C 58.5 62.3 57.5 62.5 58.8 62.7z"/>
<path style="stroke:none; fill:#000000" d="M 161.8 62.7C 163 62.9 165 62.9 166.3 62.7C 167.5 62.5 166.5 62.3 164 62.3C 161.5 62.3 160.5 62.5 161.8 62.7z"/>
<path style="stroke:none; fill:#000000" d="M 196.3 62.7C 197.2 62.9 198.6 62.9 199.3 62.7C 199.9 62.4 199.2 62.2 197.5 62.2C 195.9 62.2 195.3 62.4 196.3 62.7z"/>
<path style="stroke:none; fill:#000000" d="M 25.3 64.7C 26.2 64.9 27.6 64.9 28.3 64.7C 28.9 64.4 28.2 64.2 26.5 64.2C 24.9 64.2 24.3 64.4 25.3 64.7z"/>
<path style="stroke:none; fill:#000000" d="M 57.8 64.7C 59 64.9 61 64.9 62.3 64.7C 63.5 64.5 62.5 64.3 60 64.3C 57.5 64.3 56.5 64.5 57.8 64.7z"/>
<path style="stroke:none; fill:#000000" d="M 162.8 64.7C 164 64.9 166 64.9 167.3 64.7C 168.5 64.5 167.5 64.3 165 64.3C 162.5 64.3 161.5 64.5 162.8 64.7z"/>
<path style="stroke:none; fill:#000000" d="M 196.3 64.7C 197.2 64.9 198.6 64.9 199.3 64.7C 199.9 64.4 199.2 64.2 197.5 64.2C 195.9 64.2 195.3 64.4 196.3 64.7z"/>
<path style="stroke:none; fill:#000000" d="M 25.3 66.7C 26.2 66.9 27.6 66.9 28.3 66.7C 28.9 66.4 28.2 66.2 26.5 66.2C 24.9 66.2 24.3 66.4 25.3 66.7z"/>
<path style="stroke:none; fill:#000000" d="M 55.8 66.7C 57 66.9 59 66.9 60.3 66.7C 61.5 66.5 60.5 66.3 58 66.3C 55.5 66.3 54.5 66.5 55.8 66.7z"/>
<path style="stroke:none; fill:#000000" d="M 163.8 66.7C 165 66.9 167 66.9 168.3 66.7C 169.5 66.5 168.5 66.3 166 66.3C 163.5 66.3 162.5 66.5 163.8 66.7z"/>
<path style="stroke:none; fill:#000000" d="M 196.3 66.7C 197.2 66.9 198.6 66.9 199.3 66.7C 199.9 66.4 199.2 66.2 197.5 66.2C 195.9 66.2 195.3 66.4 196.3 66.7z"/>
<path style="stroke:none; fill:#000000" d="M 25.3 68.7C 26.2 68.9 27.6 68.9 28.3 68.7C 28.9 68.4 28.2 68.2 26.5 68.2C 24.9 68.2 24.3 68.4 25.3 68.7z"/>
<path style="stroke:none; fill:#000000" d="M 54.8 68.7C 56 68.9 58 68.9 59.3 68.7C 60.5 68.5 59.5 68.3 57 68.3C 54.5 68.3 53.5 68.5 54.8 68.7z"/>
<path style="stroke:none; fill:#000000" d="M 165.3 68.7C 166.8 68.9 169 68.9 170.3 68.7C 171.5 68.5 170.3 68.3 167.5 68.3C 164.8 68.3 163.7 68.5 165.3 68.7z"/>
<path style="stroke:none; fill:#000000" d="M 196.3 68.7C 197.2 68.9 198.6 68.9 199.3 68.7C 199.9 68.4 199.2 68.2 197.5 68.2C 195.9 68.2 195.3 68.4 196.3 68.7z"/>
<path style="stroke:none; fill:#000000" d="M 25.3 70.7C 26.2 70.9 27.6 70.9 28.3 70.7C 28.9 70.4 28.2 70.2 26.5 70.2C 24.9 70.2 24.3 70.4 25.3 70.7z"/>
<path style="stroke:none; fill:#000000" d="M 53.8 70.7C 55 70.9 57 70.9 58.3 70.7C 59.5 70.5 58.5 70.3 56 70.3C 53.5 70.3 52.5 70.5 53.8 70.7z"/>
<path style="stroke:none; fill:#000000" d="M 166.8 70.7C 168 70.9 170 70.9 171.3 70.7C 172.5 70.5 171.5 70.3 169 70.3C 166.5 70.3 165.5 70.5 166.8 70.7z"/>
<path style="stroke:none; fill:#000000" d="M 196.3 70.7C 197.2 70.9 198.6 70.9 199.3 70.7C 199.9 70.4 199.2 70.2 197.5 70.2C 195.9 70.2 195.3 70.4 196.3 70.7z"/>
<path style="stroke:none; fill:#000000" d="M 25.3 72.7C 26.2 72.9 27.6 72.9 28.3 72.7C 28.9 72.4 28.2 72.2 26.5 72.2C 24.9 72.2 24.3 72.4 25.3 72.7z"/>
<path style="stroke:none; fill:#000000" d="M 52.8 72.7C 54 72.9 56 72.9 57.3 72.7C 58.5 72.5 57.5 72.3 55 72.3C 52.5 72.3 51.5 72.5 52.8 72.7z"/>
<path style="stroke:none; fill:#000000" d="M 167.8 72.7C 169 72.9 171 72.9 172.3 72.7C 173.5 72.5 172.5 72.3 170 72.3C 167.5 72.3 166.5 72.5 167.8 72.7z"/>
<path style="stroke:none; fill:#000000" d="M 196.3 72.7C 197.2 72.9 198.6 72.9 199.3 72.7C 199.9 72.4 199.2 72.2 197.5 72.2C 195.9 72.2 195.3 72.4 196.3 72.7z"/>
<path style="stroke:none; fill:#000000" d="M 25.3 74.7C 26.2 74.9 27.6 74.9 28.3 74.7C 28.9 74.4 28.2 74.2 26.5 74.2C 24.9 74.2 24.3 74.4 25.3 74.7z"/>
<path style="stroke:none; fill:#000000" d="M 51.3 74.7C 52.8 74.9 55 74.9 56.3 74.7C 57.5 74.5 56.3 74.3 53.5 74.3C 50.8 74.3 49.7 74.5 51.3 74.7z"/>
<path style="stroke:none; fill:#000000" d="M 168.8 74.7C 170 74.9 172 74.9 173.3 74.7C 174.5 74.5 173.5 74.3 171 74.3C 168.5 74.3 167.5 74.5 168.8 74.7z"/>
<path style="stroke:none; fill:#000000" d="M 196.3 74.7C 197.2 74.9 198.6 74.9 199.3 74.7C 199.9 74.4 199.2 74.2 197.5 74.2C 195.9 74.2 195.3 74.4 196.3 74.7z"/>
<path style="stroke:none; fill:#000000" d="M 25.3 76.7C 26.2 76.9 27.6 76.9 28.3 76.7C 28.9 76.4 28.2 76.2 26.5 76.2C 24.9 76.2 24.3 76.4 25.3 76.7z"/>
<path style="stroke:none; fill:#000000" d="M 49.8 76.7C 51 76.9 53 76.9 54.3 76.7C 55.5 76.5 54.5 76.3 52 76.3C 49.5 76.3 48.5 76.5 49.8 76.7z"/>
<path style="stroke:none; fill:#000000" d="M 170.3 76.7C 171.8 76.9 174 76.9 175.3 76.7C 176.5 76.5 175.3 76.3 172.5 76.3C 169.8 76.3 168.7 76.5 170.3 76.7z"/>
<path style="stroke:none; fill:#000000" d="M 196.3 76.7C 197.2 76.9 198.6 76.9 199.3 76.7C 199.9 76.4 199.2 76.2 197.5 76.2C 195.9 76.2 195.3 76.4 196.3 76.7z"/>
<path style="stroke:none; fill:#000000" d="M 25.3 78.7C 26.2 78.9 27.6 78.9 28.3 78.7C 28.9 78.4 28.2 78.2 26.5 78.2C 24.9 78.2 24.3 78.4 25.3 78.7z"/>
<path style="stroke:none; fill:#000000" d="M 48.8 78.7C 50 78.9 52 78.9 53.3 78.7C 54.5 78.5 53.5 78.3 51 78.3C 48.5 78.3 47.5 78.5 48.8 78.7z"/>
<path style="stroke:none; fill:#000000" d="M 171.8 78.7C 173 78.9 175 78.9 176.3 78.7C 177.5 78.5 176.5 78.3 174 78.3C 171.5 78.3 170.5 78.5 171.8 78.7z"/>
<path style="stroke:none; fill:#000000" d="M 196.3 78.7C 197.2 78.9 198.6 78.9 199.3 78.7C 199.9 78.4 199.2 78.2 197.5 78.2C 195.9 78.2 195.3 78.4 196.3 78.7z"/>
<path style="stroke:none; fill:#000000" d="M 25.3 80.7C 26.2 80.9 27.6 80.9 28.3 80.7C 28.9 80.4 28.2 80.2 26.5 80.2C 24.9 80.2 24.3 80.4 25.3 80.7z"/>
<path style="stroke:none; fill:#000000" d="M 47.8 80.7C 49 80.9 51 80.9 52.3 80.7C 53.5 80.5 52.5 80.3 50 80.3C 47.5 80.3 46.5 80.5 47.8 80.7z"/>
<path style="stroke:none; fill:#000000" d="M 172.8 80.7C 174 80.9 176 80.9 177.3 80.7C 178.5 80.5 177.5 80.3 175 80.3C 172.5 80.3 171.5 80.5 172.8 80.7z"/>
<path style="stroke:none; fill:#000000" d="M 196.3 80.7C 197.2 80.9 198.6 80.9 199.3 80.7C 199.9 80.4 199.2 80.2 197.5 80.2C 195.9 80.2 195.3 80.4 196.3 80.7z"/>
<path style="stroke:none; fill:#000000" d="M 25.3 82.7C 26.2 82.9 27.6 82.9 28.3 82.7C 28.9 82.4 28.2 82.2 26.5 82.2C 24.9 82.2 24.3 82.4 25.3 82.7z"/>
<path style="stroke:none; fill:#000000" d="M 46.3 82.7C 47.8 82.9 50 82.9 51.3 82.7C 52.5 82.5 51.3 82.3 48.5 82.3C 45.8 82.3 44.7 82.5 46.3 82.7z"/>
<path style="stroke:none; fill:#000000" d="M 173.8 82.7C 175 82.9 177 82.9 178.3 82.7C 179.5 82.5 178.5 82.3 176 82.3C 173.5 82.3 172.5 82.5 173.8 82.7z"/>
<path style="stroke:none; fill:#000000" d="M 196.3 82.7C 197.2 82.9 198.6 82.9 199.3 82.7C 199.9 82.4 199.2 82.2 197.5 82.2C 195.9 82.2 195.3 82.4 196.3 82.7z"/>
<path style="stroke:none; fill:#000000" d="M 25.3 84.7C 26.2 84.9 27.6 84.9 28.3 84.7C 28.9 84.4 28.2 84.2 26.5 84.2C 24.9 84.2 24.3 84.4 25.3 84.7z"/>
<path style="stroke:none; fill:#000000" d="M 44.8 84.7C 46 84.9 48 84.9 49.3 84.7C 50.5 84.5 49.5 84.3 47 84.3C 44.5 84.3 43.5 84.5 44.8 84.7z"/>
<path style="stroke:none; fill:#000000" d="M 175.3 84.7C 176.8 84.9 179 84.9 180.3 84.7C 181.5 84.5 180.3 84.3 177.5 84.3C 174.8 84.3 173.7 84.5 175.3 84.7z"/>
<path style="stroke:none; fill:#000000" d="M 196.3 84.7C 197.2 84.9 198.6 84.9 199.3 84.7C 199.9 84.4 199.2 84.2 197.5 84.2C 195.9 84.2 195.3 84.4 196.3 84.7z"/>
<path style="stroke:none; fill:#000000" d="M 25.3 86.7C 26.2 86.9 27.6 86.9 28.3 86.7C 28.9 86.4 28.2 86.2 26.5 86.2C 24.9 86.2 24.3 86.4 25.3 86.7z"/>
<path style="stroke:none; fill:#000000" d="M 43.8 86.7C 45 86.9 47 86.9 48.3 86.7C 49.5 86.5 48.5 86.3 46 86.3C 43.5 86.3 42.5 86.5 43.8 86.7z"/>
<path style="stroke:none; fill:#000000" d="M 176.8 86.7C 178 86.9 180 86.9 181.3 86.7C 182.5 86.5 181.5 86.3 179 86.3C 176.5 86.3 175.5 86.5 176.8 86.7z"/>
<path style="stroke:none; fill:#000000" d="M 196.3 86.7C 197.2 86.9 198.6 86.9 199.3 86.7C 199.9 86.4 199.2 86.2 197.5 86.2C 195.9 86.2 195.3 86.4 196.3 86.7z"/>
<path style="stroke:none; fill:#000000" d="M 25.3 88.7C 26.2 88.9 27.6 88.9 28.3 88.7C 28.9 88.4 28.2 88.2 26.5 88.2C 24.9 88.2 24.3 88.4 25.3 88.7z"/>
<path style="stroke:none; fill:#000000" d="M 42.8 88.7C 44 88.9 46 88.9 47.3 88.7C 48.5 88.5 47.5 88.3 45 88.3C 42.5 88.3 41.5 88.5 42.8 88.7z"/>
<path style="stroke:none; fill:#000000" d="M 177.8 88.7C 179 88.9 181 88.9 182.3 88.7C 183.5 88.5 182.5 88.3 180 88.3C 177.5 88.3 176.5 88.5 177.8 88.7z"/>
<path style="stroke:none; fill:#000000" d="M 196.3 88.7C 197.2 88.9 198.6 88.9 199.3 88.7C 199.9 88.4 199.2 88.2 197.5 88.2C 195.9 88.2 195.3 88.4 196.3 88.7z"/>
<path style="stroke:none; fill:#000000" d="M 25.3 90.7C 26.2 90.9 27.6 90.9 28.3 90.7C 28.9 90.4 28.2 90.2 26.5 90.2C 24.9 90.2 24.3 90.4 25.3 90.7z"/>
<path style="stroke:none; fill:#000000" d="M 41.8 90.7C 43 90.9 45 90.9 46.3 90.7C 47.5 90.5 46.5 90.3 44 90.3C 41.5 90.3 40.5 90.5 41.8 90.7z"/>
<path style="stroke:none; fill:#000000" d="M 178.8 90.7C 180 90.9 182 90.9 183.3 90.7C 184.5 90.5 183.5 90.3 181 90.3C 178.5 90.3 177.5 90.5 178.8 90.7z"/>
<path style="stroke:none; fill:#000000" d="M 196.3 90.7C 197.2 90.9 198.6 90.9 199.3 90.7C 199.9 90.4 199.2 90.2 197.5 90.2C 195.9 90.2 195.3 90.4 196.3 90.7z"/>
<path style="stroke:none; fill:#000000" d="M 25.3 92.7C 26.2 92.9 27.6 92.9 28.3 92.7C 28.9 92.4 28.2 92.2 26.5 92.2C 24.9 92.2 24.3 92.4 25.3 92.7z"/>
<path style="stroke:none; fill:#000000" d="M 39.8 92.7C 41 92.9 43 92.9 44.3 92.7C 45.5 92.5 44.5 92.3 42 92.3C 39.5 92.3 38.5 92.5 39.8 92.7z"/>
<path style="stroke:none; fill:#000000" d="M 180.3 92.7C 181.8 92.9 184 92.9 185.3 92.7C 186.5 92.5 185.3 92.3 182.5 92.3C 179.8 92.3 178.7 92.5 180.3 92.7z"/>
<path style="stroke:none; fill:#000000" d="M 196.3 92.7C 197.2 92.9 198.6 92.9 199.3 92.7C 199.9 92.4 199.2 92.2 197.5 92.2C 195.9 92.2 195.3 92.4 196.3 92.7z"/>
<path style="stroke:none; fill:#000000" d="M 25.3 94.7C 26.2 94.9 27.6 94.9 28.3 94.7C 28.9 94.4 28.2 94.2 26.5 94.2C 24.9 94.2 24.3 94.4 25.3 94.7z"/>
<path style="stroke:none; fill:#000000" d="M 38.8 94.7C 40 94.9 42 94.9 43.3 94.7C 44.5 94.5 43.5 94.3 41 94.3C 38.5 94.3 37.5 94.5 38.8 94.7z"/>
<path style="stroke:none; fill:#000000" d="M 181.8 94.7C 183 94.9 185 94.9 186.3 94.7C 187.5 94.5 186.5 94.3 184 94.3C 181.5 94.3 180.5 94.5 181.8 94.7z"/>
<path style="stroke:none; fill:#000000" d="M 196.3 94.7C 197.2 94.9 198.6 94.9 199.3 94.7C 199.9 94.4 199.2 94.2 197.5 94.2C 195.9 94.2 195.3 94.4 196.3 94.7z"/>
<path style="stroke:none; fill:#000000" d="M 25.3 96.7C 26.2 96.9 27.6 96.9 28.3 96.7C 28.9 96.4 28.2 96.2 26.5 96.2C 24.9 96.2 24.3 96.4 25.3 96.7z"/>
<path style="stroke:none; fill:#000000" d="M 37.8 96.7C 39 96.9 41 96.9 42.3 96.7C 43.5 96.5 42.5 96.3 40 96.3C 37.5 96.3 36.5 96.5 37.8 96.7z"/>
<path style="stroke:none; fill:#000000" d="M 182.8 96.7C 184 96.9 186 96.9 187.3 96.7C 188.5 96.5 187.5 96.3 185 96.3C 182.5 96.3 181.5 96.5 182.8 96.7z"/>
<path style="stroke:none; fill:#000000" d="M 196.3 96.7C 197.2 96.9 198.6 96.9 199.3 96.7C 199.9 96.4 199.2 96.2 197.5 96.2C 195.9 96.2 195.3 96.4 196.3 96.7z"/>
<path style="stroke:none; fill:#000000" d="M 25.3 98.7C 26.2 98.9 27.6 98.9 28.3 98.7C 28.9 98.4 28.2 98.2 26.5 98.2C 24.9 98.2 24.3 98.4 25.3 98.7z"/>
<path style="stroke:none; fill:#000000" d="M 36.8 98.7C 38 98.9 40 98.9 41.3 98.7C 42.5 98.5 41.5 98.3 39 98.3C 36.5 98.3 35.5 98.5 36.8 98.7z"/>
<path style="stroke:none; fill:#000000" d="M 183.8 98.7C 185 98.9 187 98.9 188.3 98.7C 189.5 98.5 188.5 98.3 186 98.3C 183.5 98.3 182.5 98.5 183.8 98.7z"/>
<path style="stroke:none; fill:#000000" d="M 196.3 98.7C 197.2 98.9 198.6 98.9 199.3 98.7C 199.9 98.4 199.2 98.2 197.5 98.2C 195.9 98.2 195.3 98.4 196.3 98.7z"/>
<path style="stroke:none; fill:#000000" d="M 25.3 100.7C 26.2 100.9 27.6 100.9 28.3 100.7C 28.9 100.4 28.2 100.2 26.5 100.2C 24.9 100.2 24.3 100.4 25.3 100.7z"/>
<path style="stroke:none; fill:#000000" d="M 36.3 100.7C 37.2 100.9 38.8 100.9 39.8 100.7C 40.7 100.4 39.9 100.2 38 100.2C 36.1 100.2 35.3 100.4 36.3 100.7z"/>
<path style="stroke:none; fill:#000000" d="M 184.8 100.7C 186 100.9 187.8 100.9 188.8 100.7C 189.7 100.4 188.7 100.2 186.5 100.3C 184.3 100.3 183.5 100.5 184.8 100.7z"/>
<path style="stroke:none; fill:#000000" d="M 196.3 100.7C 197.2 100.9 198.6 100.9 199.3 100.7C 199.9 100.4 199.2 100.2 197.5 100.2C 195.9 100.2 195.3 100.4 196.3 100.7z"/>
<path style="stroke:none; fill:#000000" d="M 25.3 102.7C 26.2 102.9 27.6 102.9 28.3 102.7C 28.9 102.4 28.2 102.2 26.5 102.2C 24.9 102.2 24.3 102.4 25.3 102.7z"/>
<path style="stroke:none; fill:#000000" d="M 36.3 102.7C 37.2 102.9 38.6 102.9 39.3 102.7C 39.9 102.4 39.2 102.2 37.5 102.2C 35.9 102.2 35.3 102.4 36.3 102.7z"/>
<path style="stroke:none; fill:#000000" d="M 186.3 102.7C 187.2 102.9 188.6 102.9 189.3 102.7C 189.9 102.4 189.2 102.2 187.5 102.2C 185.9 102.2 185.3 102.4 186.3 102.7z"/>
<path style="stroke:none; fill:#000000" d="M 196.3 102.7C 197.2 102.9 198.6 102.9 199.3 102.7C 199.9 102.4 199.2 102.2 197.5 102.2C 195.9 102.2 195.3 102.4 196.3 102.7z"/>
<path style="stroke:none; fill:#000000" d="M 25.3 104.7C 26.2 104.9 27.6 104.9 28.3 104.7C 28.9 104.4 28.2 104.2 26.5 104.2C 24.9 104.2 24.3 104.4 25.3 104.7z"/>
<path style="stroke:none; fill:#000000" d="M 35.8 104.7C 36.4 104.9 37.6 104.9 38.3 104.7C 38.9 104.4 38.4 104.2 37 104.2C 35.6 104.2 35.1 104.4 35.8 104.7z"/>
<path style="stroke:none; fill:#000000" d="M 186.8 104.7C 187.4 104.9 188.6 104.9 189.3 104.7C 189.9 104.4 189.4 104.2 188 104.2C 186.6 104.2 186.1 104.4 186.8 104.7z"/>
<path style="stroke:none; fill:#000000" d="M 196.3 104.7C 197.2 104.9 198.6 104.9 199.3 104.7C 199.9 104.4 199.2 104.2 197.5 104.2C 195.9 104.2 195.3 104.4 196.3 104.7z"/>
<path style="stroke:none; fill:#000000" d="M 25.3 106.7C 26.2 106.9 27.6 106.9 28.3 106.7C 28.9 106.4 28.2 106.2 26.5 106.2C 24.9 106.2 24.3 106.4 25.3 106.7z"/>
<path style="stroke:none; fill:#000000" d="M 196.3 106.7C 197.2 106.9 198.6 106.9 199.3 106.7C 199.9 106.4 199.2 106.2 197.5 106.2C 195.9 106.2 195.3 106.4 196.3 106.7z"/>
<path style="stroke:none; fill:#000000" d="M 25.3 108.7C 26.2 108.9 27.6 108.9 28.3 108.7C 28.9 108.4 28.2 108.2 26.5 108.2C 24.9 108.2 24.3 108.4 25.3 108.7z"/>
<path style="stroke:none; fill:#000000" d="M 196.3 108.7C 197.2 108.9 198.6 108.9 199.3 108.7C 199.9 108.4 199.2 108.2 197.5 108.2C 195.9 108.2 195.3 108.4 196.3 108.7z"/>
<path style="stroke:none; fill:#000000" d="M 25.3 110.7C 26.2 110.9 27.8 110.9 28.8 110.7C 29.7 110.4 28.9 110.2 27 110.2C 25.1 110.2 24.3 110.4 25.3 110.7z"/>
<path style="stroke:none; fill:#000000" d="M 195.3 110.7C 196.2 110.9 197.8 110.9 198.8 110.7C 199.7 110.4 198.9 110.2 197 110.2C 195.1 110.2 194.3 110.4 195.3 110.7z"/>
<path style="stroke:none; fill:#000000" d="M 26.3 112.7C 27.2 112.9 28.6 112.9 29.3 112.7C 29.9 112.4 29.2 112.2 27.5 112.2C 25.9 112.2 25.3 112.4 26.3 112.7z"/>
<path style="stroke:none; fill:#000000" d="M 195.3 112.7C 196.2 112.9 197.6 112.9 198.3 112.7C 198.9 112.4 198.2 112.2 196.5 112.2C 194.9 112.2 194.3 112.4 195.3 112.7z"/>
<path style="stroke:none; fill:#000000" d="M 26.3 114.7C 27.2 114.9 28.8 114.9 29.8 114.7C 30.7 114.4 29.9 114.2 28 114.2C 26.1 114.2 25.3 114.4 26.3 114.7z"/>
<path style="stroke:none; fill:#000000" d="M 194.3 114.7C 195.2 114.9 196.8 114.9 197.8 114.7C 198.7 114.4 197.9 114.2 196 114.2C 194.1 114.2 193.3 114.4 194.3 114.7z"/>
<path style="stroke:none; fill:#000000" d="M 27.8 116.7C 29 116.9 30.8 116.9 31.8 116.7C 32.7 116.4 31.7 116.2 29.5 116.3C 27.3 116.3 26.5 116.5 27.8 116.7z"/>
<path style="stroke:none; fill:#000000" d="M 192.8 116.7C 194 116.9 195.8 116.9 196.8 116.7C 197.7 116.4 196.7 116.2 194.5 116.3C 192.3 116.3 191.5 116.5 192.8 116.7z"/>
<path style="stroke:none; fill:#000000" d="M 68.8 118.7C 92.5 118.9 131.5 118.9 155.3 118.7C 179 118.6 159.6 118.5 112 118.5C 64.4 118.5 45 118.6 68.8 118.7z"/>
<path style="stroke:none; fill:#000000" d="M 69.3 120.7C 92.8 120.9 131.2 120.9 154.8 120.7C 178.3 120.6 159 120.5 112 120.5C 65 120.5 45.7 120.6 69.3 120.7z"/>
<path style="stroke:none; fill:#000000" d="M 69.8 122.7C 93 122.9 131 122.9 154.3 122.7C 177.5 122.6 158.5 122.5 112 122.5C 65.5 122.5 46.5 122.6 69.8 122.7z"/>
<path style="stroke:none; fill:#000000" d="M 70.8 124.7C 93.4 124.9 130.6 124.9 153.3 124.7C 175.9 124.6 157.4 124.5 112 124.5C 66.6 124.5 48.1 124.6 70.8 124.7z"/>
<path style="stroke:none; fill:#000000" d="M 71.8 126.7C 93.9 126.9 130.1 126.9 152.3 126.7C 174.4 126.6 156.3 126.5 112 126.5C 67.7 126.5 49.6 126.6 71.8 126.7z"/>
</g>
</g>
</svg>