<?xml version="1.0" encoding="UTF-8" standalone="yes"?>
<!-- Created with sK1/UniConvertor (http://sk1project.org/) -->
<svg xmlns="http://www.w3.org/2000/svg" xmlns:xlink="http://www.w3.org/1999/xlink"
  width="560pt" height="350pt" viewBox="0 0 560 350"
  fill-rule="evenodd">
<g>
<g>
<path style="stroke:none; fill:#000000" d="M 110.5 2.19998C 110.9 3.49997 111.3 5.49997 111.4 6.69998C 111.4 7.89999 111.7 8.79999 112 8.69998C 112.3 8.59998 113.7 9.69998 115.2 11C 119.8 15.4 120.9 16 123.5 16C 124.9 16 126 16.5 126 17.2C 126 18.1 126.3 18.1 127.2 17.2C 129.1 15.3 130 15.8 130 19C 130 21.9 128.6 23.2 127.8 20.9C 127.6 20.2 126.2 20.4 123.8 21.6C 121.7 22.5 120.3 23.7 120.6 24.2C 120.9 24.6 120 25.5 118.6 26.1C 116.6 27 115.7 27 114.5 26C 113.2 24.9 113.2 24.5 114.2 23.9C 115.2 23.2 115.1 23 113.8 23C 112.9 23 111.9 22.4 111.6 21.7C 111.3 21.1 111.3 22.2 111.6 24.4C 112.1 28.2 112.1 28.2 109.4 27.7C 107.4 27.4 106.6 27.7 106.3 29.1C 105.6 31.7 101 32.8 99.8 30.6C 99.3 29.7 98.2 29 97.3 29C 96.4 29 94.9 28.4 94.1 27.6C 92.5 26.2 90.1 25.6 87 25.9C 84.7 26.1 93.7 34 96.2 34C 97.4 34 99.1 34.7 100 35.5C 100.9 36.3 103.1 37.3 104.9 37.6C 107.9 38.2 108.2 38.1 107.6 36.4C 106.8 33.6 108 32.3 112.1 31.5C 114.7 31 116 31.3 117 32.4C 117.7 33.3 118 34.4 117.6 34.8C 117.2 35.2 116.4 34.7 115.9 33.7C 114.3 30.9999 111 32.2 111 35.4999C 111 35.7 113.8 36.0999 117.3 36.4999C 123.1 37.0999 123.8 37.3999 127.8 41.7999L 132 46.4999L 131.8 28.7999C 131.6 19.0999 131.7 11.2999 132 11.4999C 132.3 11.7 133.5 10.4999 134.5 8.89993C 135.6 7.29993 137.4 5.99994 138.5 5.89993C 140.3 5.89993 140.3 5.79993 138.3 4.99994C 137 4.49994 136 3.29993 136 2.39993C 136 0.999939 136.3 0.999939 137.5 1.99994C 138.4 2.69995 139.4 2.99994 139.7 2.59995C 141.5 0.799957 136.4 -6.10352e-05 123.6 -6.10352e-05L 109.8 -6.10352e-05L 110.5 2.19998zM 105.4 35.2C 105.1 35.6 104.3 35.7 103.4 35.3C 102.3 34.9 102.2 34.5 103.1 33.3C 104.1 32.2 104.5 32.2 105.1 33.2C 105.5 33.8 105.7 34.7 105.4 35.2z"/>
<path style="stroke:none; fill:#000000" d="M 179 1.69998C 179 2.99997 179.5 3.99997 180 3.99997C 181.3 3.99997 181.3 2.89996 180 0.999969C 179.2 -0.200043 179 -0.100037 179 1.69998z"/>
<path style="stroke:none; fill:#000000" d="M 185.6 0.699982C 185.2 1.19998 184.3 1.49997 183.7 1.49997C 183 1.49997 182.5 2.19998 182.5 2.99997C 182.5 3.79996 181 5.49997 179.1 6.59998L 175.6 8.79999L 179.6 9.39999C 183.3 9.89999 190.6 10.6 218.5 13C 225.1 13.5 240.9 14.9 253.5 16C 266.2 17.1 280.3 18.1 285 18.3L 293.4 18.5L 293.5 15.6C 293.5 11.9 291.7 11.3 289.1 13.9L 287 16L 287 14C 287 11.4 289.8 7 291.5 7C 292.3 7 293.7 8 294.7 9.20001C 297.2 12.3 303.1 12.2 306.5 9C 309.3 6.29999 309.8 4.5 307.4 5.39999C 306 5.89999 305.8 5.5 306.3 3C 306.9 0.200012 306.8 0 303.9 0C 301.6 0 301 0.399994 301.2 1.70001C 301.5 3.30002 300.6 3.5 294.8 3.60001C 291 3.60001 288 3.39999 288 3.10001C 288 2.80002 283.5 2.5 278 2.5C 270.9 2.5 267.7 2.89999 267.1 3.79999C 266.7 4.5 264.7 5.29999 262.7 5.69998C 259.7 6.09998 259 5.89999 259 4.69998C 259 3.79999 259.5 2.79999 260 2.49997C 260.6 2.19998 261 1.49997 261 0.899963C 261 -0.200043 186.7 -0.399994 185.6 0.699982z"/>
<path style="stroke:none; fill:#000000" d="M 310.8 0.699982C 312 0.899994 314 0.899994 315.3 0.699982C 316.5 0.499969 315.5 0.299988 313 0.299988C 310.5 0.299988 309.5 0.5 310.8 0.699982z"/>
<path style="stroke:none; fill:#000000" d="M 324.3 3.69998C 326.4 5.69998 328 7.69998 328 8.19998C 328 8.59998 328.8 8.99997 329.8 8.99997C 330.7 8.99997 332.3 9.69998 333.3 10.5C 334.4 11.2 335.8 11.6 336.6 11.3C 338.2 10.7 338.5 7.99997 337 7.99997C 336.5 7.99997 336 7.29996 336 6.59998C 336 5.29999 336.5 5.29999 339.6 6.39996C 342.8 7.49997 343.8 7.39996 347.4 5.59998C 349.6 4.49997 351.7 3.29999 352 2.79999C 352.3 2.39999 354.4 1.59998 356.5 1.09998C 359.4 0.399963 355.2 0.199982 340.6 0.0999756L 320.7 -3.05176e-05L 324.3 3.69998z"/>
<path style="stroke:none; fill:#000000" d="M 381 1C 381 2.20001 384.5 4.10001 386.2 3.79999C 386.9 3.59998 387.6 4.5 387.8 5.69998C 388.1 7.49997 387.7 7.99997 385.8 7.99997C 384.2 7.99997 383.9 8.29996 384.8 8.89996C 385.6 9.39996 384 9.49997 381 9.19995C 376 8.69995 375.8 8.79996 376.2 11.0999C 376.4 12.5999 377.3 13.5999 378.5 13.8C 382.7 14.4 392.6 17.4 393.6 18.4C 395.3 20 396.1 26.8 394.7 27.3C 393.1 27.8 408.5 29.5999 428 31.0999C 442.8 32.3 443.6 32.4999 446.3 35.0999C 448.7 37.4999 449 38.5999 449 44.3C 449 54.3 450.3 67.0999 451 63.5C 451.3 61.7 452.5 60.1 454 59.3C 456.1 58.2 456.7 58.3 458 59.9C 458.8 60.9 461.3 62.4 463.5 63.4C 465.7 64.3 468.8 65.7 470.3 66.5C 471.9 67.3 475.4 68 478 68C 482.9 68 488 69.6 488 71.2C 488 71.6 487.6 72 487 72C 486.5 72 486 72.9 486 74C 486 75.8 486.4 76 489.5 75.4C 492.6 74.9 493 75 493.6 77.5C 494 79 493.7 82 493.1 84.2C 492.1 87.4 491.5 88.1 489.9 87.7C 488.9 87.4 488.2 87.6 488.6 88.1C 488.9 88.6 488.4 89 487.5 89C 486.6 89 484.2 89.9 482.1 90.9C 479.6 92.2 477.9 92.5 476.9 91.9C 474.2 90.2 472.7 90.8 473.4 93.4C 473.7 94.8 473.6 96.1 473.1 96.5C 472 97.1 472 101 473.1 101C 473.5 101 474 100.3 474.4 99.5C 474.8 98.5 476.3 98 479.2 98C 482.5 98 483.1 98.3 482 99.1C 480.5 100.2 491.9 99.8 504.2 98.4C 513.6 97.3 517.4 99.8 519.1 108C 519.7 111.1 519.8 111.2 519.9 108.7C 520 105.5 522 104.4 524.8 105.9C 526.2 106.6 526.6 107.6 526.3 109.5C 526 111 526.2 112 526.9 112C 527.5 112 528 112.6 528 113.4C 528 114.2 528.8 115.1 529.7 115.4C 532.7 116.6 529.5 118.1 524.9 117.8C 520.9 117.5 520.4 117.2 519.9 114.5C 519.5 112.8 519.2 115.8 519.2 121C 519.2 132.8 520.9 139.9 521.3 130C 521.5 127 521.9 126.5 524.5 126C 528.8 125.2 531.7 125.9 532.3 128C 532.6 129.1 534 130 536.1 130.3C 543.4 131.5 546.5 132.6 546.8 134.3C 547 135.3 546.5 136 545.6 136C 544.6 136 544 136.9 544 138.2L 544.1 140.5L 545.9 138.2C 547 137 548.4 136 549.2 136C 550 136 551.2 135.4 551.9 134.7C 553 133.7 553.1 133.9 552.5 135.7C 551.9 138 553.3 138.9 554.5 137C 554.8 136.4 556.2 136 557.6 136C 560 136 561 133.7 559 132.5C 558.5 132.2 558 130.6 558 128.9C 558 127.3 558.5 126 559 126C 560.9 126 560 120.6 557.8 118.2L 555.5 115.8L 557.8 114.3C 559.7 112.9 560 111.9 560 105.9C 560 102.2 559.5 98.8 559 98.5C 558.4 98.1 558.2 97 558.5 95.9C 559 94.4 558.6 94 557.1 94C 554.9 94 554.2 91.6 556 90.5C 556.6 90.2 557 88.2 557 86.1C 557 83.9 557.6 81.7 558.5 81C 560.3 79.5 560.5 74.1 558.8 70.5C 557.5 67.5 556.8 67.4 554.7 69.8C 553 71.7 548.5 71.9 542.7 70.5C 540.5 69.9 539.4 70.3 537.5 72C 535.9 73.5 534.5 74 533.3 73.5C 532.3 73.1 529.2 72.6 526.4 72.5C 522.4 72.3 520.4 71.6 517.6 69.4C 515.6 67.8 514 66.2 514 65.7C 514 63.9999 510 61.0999 508.4 61.7C 507 62.2 506.8 61.8 507.2 59.2C 507.8 54.9999 505.4 54.9 504.5 58.9999C 503.7 62.4999 502.5 62.7999 501 59.8999C 499.8 57.6999 500.1 46.6999 501.4 43.6999C 502 42.4999 501.8 41.9999 500.5 41.9999C 499.6 41.9999 498.6 41.0999 498.3 39.9999C 498 38.8999 496.9 37.9999 495.9 37.9999C 494.9 37.9999 493.9 37.5999 493.6 37.0999C 493.1 36.2999 484.6 35.6999 478 35.8999C 473.6 36.0999 465 33.0999 465.6 31.5999C 465.9 30.7999 465.7 29.8999 465.1 29.4999C 464.5 29.1999 464 29.6999 463.9 30.6999C 463.9 32.0999 463.6 31.8999 462.9 30.0999C 462.2 28.1999 462.3 27.2999 463.7 25.9999C 464.7 25.0999 466.4 22.4999 467.4 20.1999C 468.5 17.8999 469.7 15.9999 470.2 15.9999C 470.7 15.9999 472.5 14.6999 474.3 12.9999C 476 11.3999 478.7 9.49991 480.2 8.8999C 481.8 8.2999 483 7.19989 483 6.49991C 483 5.7999 484.1 4.49991 485.5 3.59991C 486.9 2.69992 488 1.49991 488 0.999908C 488 0.399902 472.6 -9.15527e-05 445.7 -9.15527e-05C 405.1 -9.15527e-05 403.3 0.0999146 401.3 1.99991C 399.4 3.69992 399 3.69992 397.9 2.3999C 396.9 1.09991 396.5 1.09991 395 2.49991C 392.6 4.69992 390.7 4.3999 391.5 1.99991C 392.1 0.199921 391.7 -9.15527e-05 386.6 -9.15527e-05C 383.5 -9.15527e-05 381 0.399994 381 1zM 460.8 28.2C 460.2 30 458 30.3 458 28.6C 458 27.7 458.7 27 459.6 27C 460.5 27 461 27.5 460.8 28.2zM 510.7 67.7C 511.2 69.1 506.7 70.5 505 69.5C 504.2 69 504.5 68.4 505.7 67.4C 507.8 65.8 510.2 66 510.7 67.7zM 512 85C 512 86.1 511.4 87.3 510.6 87.6C 509.8 87.9 509 89 508.7 90.1C 508.1 92.3 503.7 92.4 500.6 90.4C 499.3 89.5 498.1 89.4 497 90C 495.3 90.9 494 90.4 494 88.8C 494 88.4 494.7 88 495.5 88C 496.3 88 497 87.4 497 86.7C 497 84.3 498.9 83.5 505.5 83.2C 511.5 82.9 512 83 512 85zM 522.4 87.6C 523.3 87.9 524 89.1 524 90.2C 524 91.6 523.5 92 522.4 91.6C 521.5 91.3 520.6 91 520.4 91C 520.2 91 520 90.1 520 89C 520 86.8 520.1 86.7 522.4 87.6zM 556 97C 556 97.5 555.6 98 555.1 98C 554.5 98 553.8 97.5 553.5 97C 553.2 96.4 553.6 96 554.4 96C 555.3 96 556 96.4 556 97z"/>
<path style="stroke:none; fill:#000000" d="M 139.4 15.5C 137.8 17.9 137.8 22.2 138.4 65.8C 138.8 92.2 139.6 114.2 140.1 115.2C 141.6 118 132.2 117.4 247 122C 261.6 122.6 282.5 123.5 293.5 124L 313.5 124.8L 345 120.4C 400.3 112.7 406.1 111.9 425.5 109.2L 444.5 106.5L 444.6 76C 444.7 59.2 444.6 44.1 444.3 42.3C 443.9 40 443.1 38.9 441.1 38.2C 439.7 37.7 428.6 36.5 416.5 35.5C 404.4 34.6 389.8 33.4 384 32.9C 378.2 32.4 367.9 31.6 361 31C 354.1 30.5 343.3 29.6 337 29C 326.3 28.1 320.8 27.6 289.3 25C 282.8 24.5 266.7 23.1 253.5 22C 240.3 20.9 224.1 19.5 217.5 19C 210.9 18.4 192.3 16.9 176.1 15.5C 139.7 12.4 141.4 12.4 139.4 15.5zM 158.7 35.4C 158.8 35.4 159.8 42.9 161 52C 164.3 77.8 164.1 78 168 45.7L 169.2 36L 174.1 36L 179 36L 179 65.7C 179 82.1 179.3 96.5 179.6 97.7C 180.2 99.8 179.9 100 176.6 100L 173 100L 172.9 78.7L 172.8 57.5L 170.9 72.5C 167.3 102 167.9 99.5 164.6 99.3C 163 99.2 161.5 98.9 161.3 98.6C 161 98.3 159.6 88.5 158.1 76.8L 155.5 55.5L 155.2 77.3L 155 99.1L 152.2 98.8L 149.5 98.5L 149 66.7C 148.7 49.2 148.7 34.6 148.9 34.4C 149.3 34 158 34.9 158.7 35.4zM 318.4 36.2C 319.2 37.5 319.1 38.3 318 39.5C 315 42.5 309.5 38.6 312.1 35.3C 313.7 33.5 317 34 318.4 36.2zM 202.4 47.7C 203.4 53.1 205 61.5 206.1 66.5C 210.3 86.4 213 100.1 213 101.1C 213 101.7 211.4 102 209.3 101.8C 206.4 101.6 205.5 101 205.2 99.5C 205.1 98.4 204.5 95.1 203.9 92.2L 202.9 87L 197 87L 191.2 87L 190.5 92.7C 189.5 100.5 189.3 101 185.3 101C 182 101 181.9 100.9 182.5 97.7C 182.8 96 185.3 82.3 188 67.3C 190.8 52.3 193 39.6 193 39C 193 38.5 194.7 38 196.8 38L 200.6 38L 202.4 47.7zM 415.7 51.3C 418.5 58.5 420.7 64.8 420.4 65.1C 419.4 66.8 414.6 64.5 413.7 61.9C 412.8 59.7 411.8 59.1 408.1 58.5C 404.4 57.9 403.4 58.1 402.3 59.6C 401.6 60.6 401 62 401 62.7C 401 63.5 399.8 64 397.9 64C 394.1 64 394.1 64 400.1 48.6C 404.1 38.2 404.3 38 407.4 38C 410.5 38 410.6 38.2 415.7 51.3zM 228.1 40.5C 236.9 41.4 240 46.3 240 59.2C 240 66.7 238.1 72.5 235 74.7C 233.1 76 233.1 76.1 235 79.3C 236.9 82.6 240.9 95.1 241.7 100.5C 242.2 103.7 241.8 103.8 235.8 103.1C 235.5 103 233.5 97.9 231.5 91.7C 227.8 80.5 225.9 77 223.3 77C 222.3 77 222 79.8 222 90.1L 222 103.2L 219.3 102.5C 217.7 102.1 216.4 101.8 216.3 101.7C 215.7 101.1 214.9 41 215.4 40.1C 215.9 39.4 217.5 39.1 219.3 39.4C 221.1 39.7 225 40.2 228.1 40.5zM 425.8 45.2C 430.2 58.8 429.9 58.6 433 49C 435 42.7 436.1 40.5 437.3 40.6C 438.3 40.7 439.7 40.8 440.5 40.9C 441.6 41 441 43.7 437.6 53.2C 433.2 65.5 433.2 65.5 430 65.5C 426.8 65.5 426.8 65.5 422.4 53.1C 420 46.3 418 40.4 418 39.9C 418 39.4 419.3 39 420.9 39C 423.5 39 423.9 39.5 425.8 45.2zM 252.2 54.2L 252.5 66.5L 257.6 55C 262.4 43.9 262.8 43.5 265.9 43.2C 267.8 43 269.7 43.3 270.2 43.8C 270.7 44.3 269 49 266 55.4C 263.3 61.4 261 66.7 261 67.3C 261 68.3 266.6 86.8 270.1 97.3C 271.1 100.4 272 103.5 272 104C 272 104.6 270.3 105 268.1 105L 264.3 105L 262.2 97.7C 261 93.8 259.2 87.4 258.2 83.5L 256.3 76.5L 254.1 80.7C 252.4 84.1 252 86.7 252 94.5L 252 104L 249.2 104L 246.3 104L 245.7 91.8C 245.3 85.2 245 71.2 245 60.8L 245 42L 248.5 42L 251.9 42L 252.2 54.2zM 294.8 45.5C 295.5 45.8 296 47.8 296 51L 296 56L 288.6 56L 281.2 56L 280.8 61.9L 280.5 67.9L 287.8 68.6L 295 69.2L 295 74.7L 295 80.3L 288 79.6L 281 78.9L 281 86.8L 281 94.7L 289 95.4L 297.1 96.1L 296.8 101.3L 296.5 106.5L 287 106.2C 281.8 106 276.8 105.7 276 105.4C 274.7 105.1 274.4 100.5 274.1 74.4L 273.7 43.9L 283.6 44.5C 289.1 44.9 294.1 45.3 294.8 45.5zM 320.3 47.7C 320.7 47.9 321 50.3 321 53L 321 57.9L 317.3 58.2L 313.5 58.5L 313.9 82.2C 314.1 95.2 314 106.2 313.7 106.7C 313.3 107.3 311.7 107.5 310 107.2L 307 106.8L 307 81.9L 307 57L 303 57L 299 57L 299 51.4L 299 45.8L 309.3 46.5C 314.9 46.9 319.8 47.4 320.3 47.7zM 330.3 62.2C 331.1 79.1 331.2 107.5 330.5 108.2C 330.2 108.4 328.7 108.5 327 108.2L 324 107.8L 324 77.9L 324 48L 326.8 48L 329.7 48L 330.3 62.2zM 341.9 52.2C 342.4 54 344.3 60.7 346 67C 352 88.9 351.8 88.8 351.9 68.2L 352 50L 354.5 50L 357 50L 357 79C 357 94.9 357 108.3 357 108.7C 357 109.2 355.8 109.5 354.3 109.5C 351.5 109.5 351.4 109.2 346.5 92L 341.5 74.5L 341.2 91.8L 341 109.1L 338.2 108.8L 335.5 108.5L 335.2 78.7L 335 49L 337.9 49C 340.3 49 341 49.6 341.9 52.2zM 380.8 53.3C 383.7 56.3 386 62.2 386 66.4C 386 69.2 385.6 69.8 383.4 70.3C 381.6 70.6 380.7 70.3 380.4 69.1C 379 64.3 377.4 62.5 374.5 62.5C 372.1 62.5 371.1 63.2 369.7 66C 368.2 68.9 367.9 71.5 368.2 81.5C 368.5 92 368.8 94 370.8 97.2C 374.7 103.5 381 101.4 381 93.8C 381 90.2 380.8 90 378 90C 375 90 375 89.9 375 84.5C 375 79.1 375.1 79 377.9 79C 379.5 79 382.2 79.3 383.9 79.6L 387 80.2L 387 92.2L 387 104.2L 383.1 108.1C 377.8 113.4 374.1 113.4 369 108.1C 363.9 102.8 362 94.8 362 79.2C 362 66 363.3 59.9 367.5 54.5C 369.7 51.5 370.7 51 374.4 51C 377.5 51 379.2 51.6 380.8 53.3zM 319.3 115.4C 319.9 116.9 318.2 119 316.5 119C 314.8 119 313.1 116.9 313.7 115.4C 314 114.6 315.2 114 316.5 114C 317.8 114 319 114.6 319.3 115.4z"/>
<path style="stroke:none; fill:#000000" d="M 195 66.1C 194.2 71.5 194.1 74.5 194.8 75.2C 195.9 76.3 200.5 75.9 200.4 74.7C 199.9 70 197.5 58 197 58C 196.6 58 195.8 61.6 195 66.1z"/>
<path style="stroke:none; fill:#000000" d="M 406.8 46.5C 405.2 49.4 405.1 52.8 406.6 53.4C 410.3 54.8 410.8 53.6 408.6 48.5C 408 46.9 407.1 46 406.8 46.5z"/>
<path style="stroke:none; fill:#000000" d="M 222 58.3L 222 65.8L 225.5 66.4C 231.2 67.5 233 65.8 233 59.6C 233 53.4 232.1 52.4 226.2 51.4L 222 50.7L 222 58.3z"/>
<path style="stroke:none; fill:#000000" d="M 42 19.4C 42 20.8 42.5 22.2 43 22.5C 43.6 22.9 44 21.8 44 20.1C 44 18.4 43.6 17 43 17C 42.5 17 42 18.1 42 19.4z"/>
<path style="stroke:none; fill:#000000" d="M 70.3 20.7C 69.6 21 69 22.1 69 23.2C 69 24.6 68.5 25 67.4 24.6C 66.5 24.2 65.1 24.5 64.4 25.1C 62.6 26.6 62.5 34 64.3 34C 64.9 34 66.5 34.3 67.8 34.6C 70 35.2 70.1 35.1 69.5 31.6C 68.9 28.7 69.1 28 70.4 28C 71.4 28 72 28.9 72 30.5C 72 32.1 72.4 32.8 73.4 32.4C 74.1 32.1 75 32.6 75.3 33.4C 76.2 35.7 79.3 35.4 81.7 32.7C 84.1 30.0999 85.4 25.9 83.6 26.5999C 82.9 26.8999 80.7 25.9999 78.7 24.5999C 73.5 20.9999 71.7 20.2 70.3 20.7z"/>
<path style="stroke:none; fill:#000000" d="M 522.8 28.3C 521.1 28.9 520 30.1 520 31.2C 520 33 520.2 33 522.2 31.6C 523.4 30.7 525.2 30 526.2 30C 527.2 30 528 29.3 528 28.5C 528 26.8 526.7 26.7 522.8 28.3z"/>
<path style="stroke:none; fill:#000000" d="M 35 30.1C 35 32.1 32.5 33.5 28 33.8C 25.5 34 23.1 34.6 22.6 35.1C 22 35.6 20.5 36 19.2 36C 16.1 36 12.5 39.9 14 41.4C 14.8 42.2 15.3 42.1 16 41C 16.5 40.2 17.2 39.8 17.5 40.2C 18.6 41.3 13.1 44.7 9 45.4C 6.8 45.7 5 46.5 5 47C 5 48.5 1.3 48.2 0.7 46.7C 0.4 46.1 0.0999998 64.5 0.0999998 87.7L -2.16067e-07 130L 4 130C 6.2 130 8 129.5 8 128.9C 8 128.3 8.7 128.5 9.5 129.4C 10.4 130.2 11.8 130.6 12.6 130.3C 13.5 130 14.5 130.2 14.9 130.8C 15.2 131.3 17.1 131.9 19 132.1C 21.7 132.4 22.4 132.1 22.2 131C 22 130.2 23.2 131 24.9 132.7C 26.5 134.5 28.8 136 29.9 136C 31.1 136 32 136.6 32 137.4C 32 138.3 33.5 139.1 36 139.5C 39 140 40 140.6 40 142.1C 40 143.6 40.7 144 43.4 144C 45.3 144 47.7 144.3 48.7 144.6C 49.8 145 50.1 144.9 49.3 144.3C 48.7 143.9 48 141.7 47.8 139.5C 47.5 136 47.2 135.5 45 135.6C 43.6 135.7 42 135 41.3 134.1C 40.2 132.6 40.1 132.7 40 134.2C 40 135.5 39.2 136 37.4 136C 35.3 136 35 135.7 35.9 134.7C 36.7 133.7 36.6 132.5 35.8 130.3C 34.8 127.8 34.9 126.8 36.1 125.4C 36.9 124.5 37.5 122.7 37.5 121.6C 37.6 119.8 37 119.5 34.2 119.6C 32 119.7 30.1 119.1 28.9 117.9C 27 116 27 115.9 30.6 112.6C 34.6 108.9 34.4 107 30.1 107C 26.4 107 24.4 104.8 26.5 103C 27.5 102.1 28.4 102.1 29.3 102.8C 29.9 103.3 32.6 104.1 35.3 104.5C 37.9 104.9 40 105.8 40 106.4C 40 107.3 41.6 107.5 45.5 107.2C 49.9 106.8 51.1 107.1 51.6 108.4C 51.9 109.3 51.7 110.6 51.2 111.3C 50.6 112 50.3 113.5 50.6 114.7C 51.2 117.1 49.2 118.9 48 117C 47.5 116.2 47 116.1 46.6 116.8C 46.3 117.4 46.4 118.1 47 118.5C 47.5 118.8 48 120.6 48 122.5C 48 124.3 48.5 126 49.2 126.2C 49.8 126.4 50.5 127.7 50.7 129C 51.2 132.3 51.8 132.6 54.2 131.1C 56.1 129.9 56.2 130 55.8 132.2C 55.5 133.4 55 135.2 54.6 136.1C 54 137.5 56.8 137.8 82.1 138.3C 97.6 138.6 110.5 139.2 110.9 139.7C 111.6 140.7 112 140.6 116.8 139.5C 118.5 139.1 120 138.5 120 138.1C 120 137.7 121.7 137.6 123.9 137.8C 126 138 128.1 137.7 128.4 137.1C 128.9 136.3 126.9 136 122.1 136C 118.2 136 114.8 135.5 114.5 134.9C 114.1 134.3 113.2 134.1 112.4 134.4C 110.3 135.2 107.9 134 107 131.6C 106.4 129.8 105.3 129.3 101.4 129.1C 96.6 128.9 93.1 127.6 91.8 125.6C 90.7 124 90.8 123.3 92.6 121.6C 95.1 119.1 97.7 119.6 98.3 122.7C 98.7 124.3 99.4 126.2 99.9 127C 100.8 128.3 101.1 128.2 102.4 126.5C 103.8 124.7 103.9 124.7 104 126.2C 104 127.6 104.9 128 108 128C 110.2 128 112 127.5 112 127C 112 125.6 119.7 125.7 120.2 127.1C 120.6 128.3 127.2 128.7 131 127.6C 132.6 127.2 132.9 127.2 131.7 127.8C 129.9 128.5 129.9 128.6 131.7 130.2C 133.2 131.5 138.3 132.8 145.3 133.5C 147.4 133.7 150.5 128.4 148.6 127.6C 148 127.4 148.4 127.1 149.5 127.1C 152.9 126.9 154.5 125.3 151.3 125.2C 146.6 125.1 137.9 123.2 136.3 121.8C 132.8 119 132 114.4 132 98.3C 132 82.7 131.9 82.5001 130.1 84.9001C 128.5 87.0001 127.7 87.2 124 86.7C 121.7 86.4001 118.8 85.2 117.6 84.1C 116.4 82.9 114.8 82 114.1 82C 112.6 82 110 79.5 110 78.1C 110 76.4 108.1 75.9 106.1 77.2C 104.5 78.2 103.8 78.1 102.2 76.7C 101.2 75.8 99.4 75 98.2 75C 96.7 75 96 74.4 96 73.1C 96 71.6 94.8 71 90 70.2C 86.7 69.6 83.3 68.4001 82.4 67.5C 80.6 65.7 78 66.7 75.5 70.3C 74.1 72.2 73.2 72.5 67.7 72.2C 62.4 72 61.2 71.6 59.7 69.5C 58.3 67.6 57.3 67.1 55.4 67.6C 52.1 68.4 46.3 65.3 45.5 62.3C 44.7 59.1 40.5 58.3 36.3 60.5C 33.1 62.3 32.9 62.3 31.5 60.4C 30.7 59.4 30 57.7 30 56.7C 30 53.9 28 55.8 28 58.6C 28 60 27.6 60.8 27 60.5C 25.5 59.6 25.8 54.3 27.6 50.8C 28.5 49.1 29 46.7 28.7 45.3C 28.2 42.6 29.7 41.1 30.6 43.4C 31.1 44.7 31.4 44.7 32.6 43.5C 33.4 42.8 34 41.7 34 41.1C 34 40.5 34.8 40 35.8 40C 36.8 40 38.3 38.8 39.2 37.2C 40.6 34.8 40.7 34.2 39.4 31.7C 38 29.1 35 27.9 35 30.1zM 27.2 84C 29.5 84 32.3 88.4 31.5 90.8C 30.9 93 26.2 98 24.9 98C 24.4 98 24 97.3 24 96.5C 24 95.7 22.9 93.4 21.5 91.4C 20.1 89.4 19 88.2 19 88.9C 19 90.1 15.8 90.4 14.7 89.4C 13.3 87.9 20.9 82.8 23.5 83.4C 24.6 83.7 26.3 84 27.2 84zM 10.7 88C 12.1 88 12.1 88.3 10.5 90C 9 91.6 8.6 91.7 7.4 90.5C 5.5 88.6 5.6 86.6 7.6 87.4C 8.5 87.7 9.9 88 10.7 88zM 8.3 110C 8.9 112.4 8.3 113 5.4 113C 3.5 113 3.2 112.5 3.4 110.2C 3.8 106.9 3.6 107.1 5.9 107.7C 7 108 8 109 8.3 110zM 64.5 112.4C 64.9 114.8 65 117.6 64.7 118.6C 64.4 119.7 64.2 118.6 64.1 116.2C 64 113.2 63.6 112 62.5 112C 60.8 112 60.7 111.8 61.6 109.6C 62.7 106.8 63.9 107.9 64.5 112.4zM 76 117C 76 118 75.6 119.1 75.1 119.5C 73.9 120.2 72.6 116.4 73.5 115C 74.4 113.5 76 114.8 76 117zM 130.8 116.5C 130.5 116.8 129.9 116.3 129.6 115.3C 129 113.9 129.1 113.8 130.1 114.7C 130.8 115.4 131.1 116.2 130.8 116.5zM 56 117C 56 117.5 55.8 118 55.6 118C 55.3 118 54.8 117.5 54.5 117C 54.2 116.4 54.4 116 54.9 116C 55.5 116 56 116.4 56 117zM 33.5 121C 33.8 121.5 33.6 122 33.1 122C 32.5 122 32 121.5 32 121C 32 120.4 32.2 120 32.4 120C 32.7 120 33.2 120.4 33.5 121zM 130 121.4C 130 121.7 129.6 122.2 129 122.5C 128.5 122.8 128 122.6 128 122.1C 128 121.5 128.5 121 129 121C 129.6 121 130 121.2 130 121.4zM 139 125C 140.3 125.9 140.3 126.1 139 127C 137.7 127.9 137.7 128 139 128.1C 140 128.1 139.8 128.4 138.5 128.9C 136.9 129.5 136.4 129.3 135.9 127.6C 134.9 124.1 136.1 123.1 139 125zM 26 128.4C 26 128.7 25.6 129.2 25 129.5C 24.5 129.8 24 129.6 24 129.1C 24 128.5 24.5 128 25 128C 25.6 128 26 128.2 26 128.4zM 146 128.9C 146 129.5 145.6 130.2 145 130.5C 144.5 130.8 144 130.4 144 129.6C 144 128.7 144.5 128 145 128C 145.6 128 146 128.4 146 128.9zM 32 132C 32 132.5 31.6 133 31 133C 30.5 133 30 132.5 30 132C 30 131.4 30.5 131 31 131C 31.6 131 32 131.4 32 132zM 80 135C 80 135.5 78.2 136 76 136C 73.8 136 72 135.5 72 135C 72 134.4 73.8 134 76 134C 78.2 134 80 134.4 80 135zM 95 135C 95 135.5 93.4 136 91.5 136C 89.6 136 88 135.5 88 135C 88 134.4 89.6 134 91.5 134C 93.4 134 95 134.4 95 135zM 106 135C 106 135.6 103.7 135.9 100.8 135.8L 95.5 135.7L 100 135C 102.5 134.6 104.8 134.2 105.3 134.2C 105.7 134.1 106 134.4 106 135z"/>
<path style="stroke:none; fill:#000000" d="M 7 43C 7 43.5 7.5 44 8 44C 8.6 44 9 43.5 9 43C 9 42.4 8.6 42 8 42C 7.5 42 7 42.4 7 43z"/>
<path style="stroke:none; fill:#000000" d="M 558 65C 558 65.5 558.5 66 559 66C 559.6 66 560 65.5 560 65C 560 64.4 559.6 64 559 64C 558.5 64 558 64.4 558 65z"/>
<path style="stroke:none; fill:#000000" d="M 450 84.5C 450 86 450.4 86.9 451 86.5C 451.6 86.2 452 85.3 452 84.5C 452 83.7 451.6 82.8 451 82.5C 450.4 82.1 450 83 450 84.5z"/>
<path style="stroke:none; fill:#000000" d="M 462 87C 462 87.5 461.1 88 460.1 88C 459 88 457.9 88.4 457.6 88.9C 456.7 90.2 464.1 91.3 465.3 90.1C 466.1 89.3 466.1 89 465.2 89C 464.5 89 464 88.3 464 87.5C 464 86.7 463.6 86 463 86C 462.5 86 462 86.4 462 87z"/>
<path style="stroke:none; fill:#000000" d="M 477.8 99.7C 478.5 100 479.4 99.9 479.7 99.6C 480.1 99.3 479.5 99 478.4 99.1C 477.3 99.1 477 99.4 477.8 99.7z"/>
<path style="stroke:none; fill:#000000" d="M 493.5 106.6C 484.2 108 443.7 113.6 418 117C 398.5 119.6 347.9 126.6 330 129.1C 322 130.2 312.6 131.3 309 131.6C 305.4 131.8 292.6 133.4 280.5 135.1C 249.3 139.4 247.1 139.7 241.4 140.9C 236.9 141.8 206.8 146 161.5 152.1C 142.5 154.6 142.3 154.7 140 157C 138.1 158.9 138 160.5 138 207C 138 240.2 138.3 255.7 139.1 257.4C 140.9 261.3 139.2 261.3 193.5 256C 199 255.5 210.9 254.4 220 253.5C 229.1 252.7 252.5 250.4 272 248.5C 291.5 246.6 321.7 243.7 339 242C 356.3 240.4 374.8 238.6 380 238C 385.2 237.5 394.7 236.6 401 236C 412.7 234.9 416.9 234.5 453 231C 464.3 229.9 480.8 228.3 489.8 227.5C 498.7 226.6 507.2 225.5 508.5 225C 509.9 224.5 511.5 222.8 512.1 221.3C 512.8 219.4 513 202.8 512.5 169C 511.8 110 511.7 109.1 508.9 106.7C 506.5 104.8 505.8 104.7 493.5 106.6zM 506.8 111.7C 506.5 114.1 506 114.5 502.8 114.8L 499 115.1L 499 128.6L 499 142L 496 142L 493 142L 493 134.7C 493 130.8 492.7 125.1 492.4 122.2L 491.7 117L 487.9 117C 484.4 117 484 116.7 484 114.5C 484 113.1 484.6 111.7 485.3 111.5C 486.8 110.9 499.4 109.3 503.8 109.1C 506.9 109 507.1 109.2 506.8 111.7zM 480.5 117.4C 481.2 119.1 481.6 120.8 481.4 121.2C 480.5 122.7 475.2 122 474.6 120.4C 474.2 119.4 473 119 470.8 119.2C 468.3 119.4 467.4 120 467.2 121.7C 466.9 123.4 467.5 124.1 469.7 124.5C 478.8 126.4 480.1 127.1 481.6 130.7C 483.6 135.3 482.6 139.3 478.8 142.5C 472.6 147.8 464.8 147 461.5 140.7C 459.8 137.4 459.7 136.8 461 136C 463.4 134.4 465.8 134.9 466.5 137C 467.9 141.4 476 140.2 476 135.5C 476 133 475.2 132.6 468.7 131.4C 458.7 129.7 458.6 115.7 468.7 113.5C 470.2 113.1 472 112.7 472.5 112.6C 475 111.9 479.3 114.5 480.5 117.4zM 430 143.2C 429.1 146.7 426.2 156.6 423.6 165.2L 419 180.8L 419 196.9L 419 213L 415 213L 411 213L 411 198.2L 411 183.3L 404 163.1C 400.1 151.9 396.8 142.4 396.5 142C 396.2 141.6 397.4 141 399.1 140.6C 405.8 139.3 405.6 139.1 410.1 153C 412.4 160.1 414.5 165.8 414.8 165.6C 415 165.3 416.9 158.9 418.9 151.3L 422.6 137.5L 426.6 137C 428.7 136.7 430.8 136.5 431.1 136.7C 431.5 136.8 431 139.8 430 143.2zM 386.9 144.5C 389.6 146.9 391.7 151.6 393.4 159.3C 394 161.7 393.6 162.2 390.4 163.8C 388.2 164.8 386.5 165.1 386.3 164.5C 385.2 161.3 382.3 156.5 380.8 155.6C 377.7 153.7 373.8 156.1 371.1 161.5C 368.7 166.1 368.5 167.5 368.5 179.5C 368.5 193.1 369.4 197.8 373.1 202.4C 376 206 379.5 205.7 383.6 201.6C 386.4 198.8 387 197.4 387 194.1L 387 190L 382.5 190L 378 190L 378 183.6L 378 177.1L 383.8 176.5C 390 175.8 391.8 175.7 393.8 175.9C 394.7 176 395 179.7 395 190.8C 395 204.9 394.9 205.7 392.5 209.2C 388.7 214.8 382 218.4 376.4 217.7C 373.6 217.4 370.9 216.4 369.5 215C 357 203.3 357.1 157.1 369.7 145.8C 374.6 141.4 382.4 140.8 386.9 144.5zM 354.3 153L 354.5 159.5L 345.5 160.4C 340.6 160.8 336.2 161.6 335.9 162.2C 335.4 163 335.8 176 336.4 176.7C 336.5 176.8 340.1 176.4 344.4 175.9C 348.7 175.4 352.4 175 352.5 175.2C 352.7 175.4 353 178.2 353.1 181.5L 353.5 187.5L 348 188.3C 345 188.8 341 189.3 339.3 189.6L 336 190.1L 336 199.2L 336 208.3L 344.7 207.6C 349.5 207.2 353.9 206.8 354.5 206.7C 355.1 206.6 355.6 209.1 355.8 212.7L 356.1 218.9L 352.8 219.4C 349.4 220 330.9 222 329 222C 328.3 222 328 210.2 328 185.7L 328 149.4L 340.3 147.9C 347 147 352.9 146.4 353.3 146.4C 353.8 146.5 354.3 149.5 354.3 153zM 324 157L 324 162.9L 320.3 163.5C 318.2 163.9 315.8 164.2 315 164.3C 313.8 164.5 313.6 168.7 313.9 194.3L 314.2 224L 310.1 224L 306 224L 306 195L 306 166L 301 166L 296 166L 296 160.1L 296 154.3L 300.3 153.5C 309.1 152 322.5 150.3 323.3 150.7C 323.7 150.9 324 153.8 324 157zM 284 156.6C 284 156.9 285.6 164.2 287.6 172.8C 291.5 189.6 298.9 224.4 298.7 224.7C 298.6 224.7 296.8 225.1 294.8 225.5C 291.2 226.2 291.1 226.1 290.2 222.3C 289.6 220.2 288.9 216.8 288.5 214.7L 287.9 210.9L 281.2 211.2L 274.5 211.5L 273.1 219.6L 271.7 227.8L 267.2 228.4C 264.7 228.7 261.3 229 259.5 229C 255.9 229 256.4 229.9 251 214.4C 247.5 204.3 246.1 202 243.3 202C 241 202 241 202.1 241 216.4C 241 231.7 240.9 232 235.9 232C 234.1 232 234 231.1 234 213.7C 234 203.6 233.7 187.9 233.3 178.8C 232.7 162.4 232.7 162.2 234.9 161.5C 238.8 160.3 253.9 160.7 255.6 162.1C 262.2 167.6 262.6 188 256.2 196L 253.3 199.5L 255.6 204C 256.9 206.5 259.1 212.3 260.6 217C 262 221.7 263.6 225.8 263.9 226.2C 264.3 226.6 266 219 267.8 209.2C 272.3 184.1 277 157.8 277 157.4C 277 157 280.1 156.3 282.3 156.1C 283.2 156.1 284 156.3 284 156.6zM 229.8 169.1L 229.5 174.5L 224.7 175.4L 219.9 176.2L 220 204.9L 220.1 233.5L 216.8 233.5L 213.5 233.5L 213.2 205.2L 213 176.8L 208 177.5L 203 178.2L 203 172.1C 203 166.1 203 166.1 206.3 165.5C 215.9 163.8 228.6 162.4 229.3 163C 229.8 163.4 230 166.1 229.8 169.1zM 195 170C 197 172.2 198.1 174.8 198.9 179.6C 199.6 183.3 199.9 186.4 199.7 186.6C 199.5 186.8 198 187.2 196.4 187.6C 193.7 188.1 193.4 187.9 192 183.8C 190.8 180.4 190 179.4 187.8 179.2C 186 179 184.7 179.6 183.6 181.2C 180 186.2 182.3 190.8 190.2 194.4C 195.4 196.8 196.5 197.8 198.2 201.8C 203 212.5 201.1 229.1 194.4 235C 189.9 238.9 184.5 239.1 180.7 235.6C 177.9 233 175 224.6 175 218.9C 175 215.7 175.4 215.1 177.7 214.6C 180.8 213.8 181.5 214.7 182.4 220.2C 183.7 228.1 192.1 227.4 193.5 219.2C 194.5 213.2 192.9 210.5 186.3 207.3C 181.4 205 180.1 203.7 178.1 199.6C 173.5 190.3 175.4 174 181.7 169C 185.7 165.9 191.5 166.3 195 170zM 301.8 231.9C 304.1 233.3 302.8 236.5 299.9 236.8C 296.9 237.2 295.3 234.6 297.1 232.4C 298.4 230.8 299.9 230.7 301.8 231.9z"/>
<path style="stroke:none; fill:#000000" d="M 243.3 172.7C 241.1 173.1 241 173.6 241 182L 241 190.9L 245.8 190.4C 252 189.7 254 187.4 254 180.8C 254 172.4 252.1 171 243.3 172.7z"/>
<path style="stroke:none; fill:#000000" d="M 278.6 184.5C 277.7 190.9 276.7 196.7 276.4 197.5C 275.9 198.7 276.7 199 280.4 199C 284.6 199 285 198.8 285 196.6C 285 194.4 281.1 173.8 280.6 173.3C 280.5 173.1 279.6 178.2 278.6 184.5z"/>
<path style="stroke:none; fill:#000000" d="M 38.7 109.6C 37.6 110.8 39 112 41.6 112C 44.3 112 44.8 110.5 42.4 109.6C 40.4 108.8 39.5 108.8 38.7 109.6z"/>
<path style="stroke:none; fill:#000000" d="M 41.2 121.5C 41.4 122.8 42.4 123.6 44.3 123.8C 46.5 124.1 47 123.7 47 122.1C 47 119.6 45.5 119.3 44.6 121.7C 44 123.1 43.8 123.1 42.4 121.4C 41 119.5 40.9 119.5 41.2 121.5z"/>
<path style="stroke:none; fill:#000000" d="M 157.4 126.5C 157.7 127.4 158 128.4 158 128.6C 158 128.8 158.5 129 159 129C 159.6 129 160 128.4 160 127.6C 160 126.5 163.3 126.4 178.8 126.8C 189.1 127 197.3 127 197 126.8C 196.7 126.5 187.6 126 176.6 125.6C 158.4 124.9 156.8 125 157.4 126.5z"/>
<path style="stroke:none; fill:#000000" d="M 163.7 128.5C 163.3 129.3 163.5 130.2 164 130.5C 165.3 131.3 167.2 130.1 166.5 128.9C 166.1 128.4 166.4 128 166.9 128C 167.5 128 168 128.4 168 129C 168 129.5 168.9 130 170 130C 173.1 130 172.3 128.3 168.9 127.6C 164.6 126.8 164.3 126.8 163.7 128.5z"/>
<path style="stroke:none; fill:#000000" d="M 212.8 127.7C 214 127.9 216 127.9 217.3 127.7C 218.5 127.5 217.5 127.3 215 127.3C 212.5 127.3 211.5 127.5 212.8 127.7z"/>
<path style="stroke:none; fill:#000000" d="M 167.1 135.6C 165.3 137.7 165.8 137.9 171 137C 173.6 136.6 174.4 136.2 173 136.1C 171.5 136.1 170 135.6 169.5 135.1C 168.9 134.5 168 134.7 167.1 135.6z"/>
<path style="stroke:none; fill:#000000" d="M 157 135.4C 157 135.6 157.7 136.1 158.6 136.4C 159.4 136.7 159.8 136.6 159.5 136C 158.9 135 157 134.6 157 135.4z"/>
<path style="stroke:none; fill:#000000" d="M 211.5 136.9C 211.8 137.4 211 138.1 209.8 138.3C 207.6 138.7 207.6 138.7 209.6 138.9C 210.8 138.9 212.3 138.3 213 137.5C 214 136.3 213.9 136 212.6 136C 211.6 136 211.1 136.4 211.5 136.9z"/>
<path style="stroke:none; fill:#000000" d="M 520.1 149.9C 520 157.8 520.2 164.1 520.5 163.9C 521.3 163 521.7 139.6 520.9 137.5C 520.5 136.4 520.1 141.7 520.1 149.9z"/>
<path style="stroke:none; fill:#000000" d="M 182.1 137.4C 182.9 138.2 193.6 141 196.1 141C 200.4 141 196.7 139.1 191.2 138.5C 188.1 138.1 184.6 137.6 183.5 137.3C 182.4 137 181.8 137 182.1 137.4z"/>
<path style="stroke:none; fill:#000000" d="M 216.8 137.7C 217.5 138 218.4 137.9 218.7 137.6C 219.1 137.3 218.5 137 217.4 137.1C 216.3 137.1 216 137.4 216.8 137.7z"/>
<path style="stroke:none; fill:#000000" d="M 177.3 138.7C 178.2 138.9 179.6 138.9 180.3 138.7C 180.9 138.4 180.2 138.2 178.5 138.2C 176.9 138.2 176.3 138.4 177.3 138.7z"/>
<path style="stroke:none; fill:#000000" d="M 199.3 139.2C 200.9 140.2 204.8 140.2 205.4 139.1C 205.7 138.6 204.2 138.3 202 138.4C 199.9 138.4 198.7 138.8 199.3 139.2z"/>
<path style="stroke:none; fill:#000000" d="M 160.5 140C 160.8 140.5 161.3 141 161.6 141C 161.8 141 162 140.5 162 140C 162 139.4 161.5 139 160.9 139C 160.4 139 160.2 139.4 160.5 140z"/>
<path style="stroke:none; fill:#000000" d="M 182 141C 180.6 141.4 177.2 141.8 174.4 141.9C 171.5 142 167.9 142.7 166.4 143.5C 162.8 145.4 164.2 145.4 176.6 143.5C 182 142.7 187.1 142 187.8 142C 188.4 142 189 141.5 189 141C 189 139.8 185.6 139.8 182 141z"/>
<path style="stroke:none; fill:#000000" d="M 524.8 140.5C 524.6 140.8 524.5 142.4 524.8 144.1C 525.1 146.3 525.5 146.8 526.1 145.9C 527.9 143.1 526.8 138.5 524.8 140.5z"/>
<path style="stroke:none; fill:#000000" d="M 557.5 143C 557.2 143.5 557.6 144 558.4 144C 559.3 144 560 143.5 560 143C 560 142.4 559.6 142 559.1 142C 558.5 142 557.8 142.4 557.5 143z"/>
<path style="stroke:none; fill:#000000" d="M 104 145C 104 145.5 105.8 146 108 146C 110.2 146 112 145.5 112 145C 112 144.4 110.2 144 108 144C 105.8 144 104 144.4 104 145z"/>
<path style="stroke:none; fill:#000000" d="M 69.8 145.7C 73.2 145.9 78.8 145.9 82.3 145.7C 85.7 145.5 82.9 145.4 76 145.4C 69.1 145.4 66.3 145.5 69.8 145.7z"/>
<path style="stroke:none; fill:#000000" d="M 142 146C 145.8 146.6 146.1 146.7 143.5 147C 141.9 147.2 139.4 147.3 138 147.2L 135.5 147L 137.8 148C 140 148.9 142.1 148.7 147.5 147.3L 149.5 146.7L 147.5 145.9C 146.4 145.5 143.7 145.2 141.5 145.2L 137.5 145.3L 142 146z"/>
<path style="stroke:none; fill:#000000" d="M 3.2 147.2C 3.5 147.9 4.6 148.6 5.8 148.8C 7 149 8 149.9 8 150.8C 8 152.1 8.2 152.1 9.5 150.4C 11.4 147.9 11.4 146.9 9.5 147.6C 8.7 148 8 147.7 8 147.1C 8 146.5 6.8 146 5.4 146C 3.8 146 3 146.5 3.2 147.2z"/>
<path style="stroke:none; fill:#000000" d="M 48 149.4C 48 150.8 48.5 152 49 152C 49.6 152 50 151.1 50 150.1C 50 149 49.6 147.8 49 147.5C 48.4 147.1 48 148 48 149.4z"/>
<path style="stroke:none; fill:#000000" d="M 62.7 147.7C 61.6 148.7 61.9 152 63 152C 63.6 152 64 150.9 64 149.5C 64 146.9 63.8 146.6 62.7 147.7z"/>
<path style="stroke:none; fill:#000000" d="M 128.7 148.7C 127.4 149.9 128 152.7 129.5 152.7C 130.3 152.7 131 152.2 131 151.6C 131 149.9 129.4 147.9 128.7 148.7z"/>
<path style="stroke:none; fill:#000000" d="M 24.1 153.6C 24.1 154.7 24.4 155 24.7 154.2C 25 153.5 24.9 152.6 24.6 152.3C 24.3 151.9 24 152.5 24.1 153.6z"/>
<path style="stroke:none; fill:#000000" d="M 132.2 153.6C 131.5 154.4 131 155.6 131.3 156.3C 131.5 157 132.2 156.5 132.9 155.2C 134.4 152.4 134 151.6 132.2 153.6z"/>
<path style="stroke:none; fill:#000000" d="M 129.2 156.5C 129.2 158.1 129.4 158.7 129.7 157.7C 129.9 156.8 129.9 155.4 129.7 154.7C 129.4 154.1 129.2 154.8 129.2 156.5z"/>
<path style="stroke:none; fill:#000000" d="M 27 156C 25.7 156.8 25.8 157 27.3 157C 28.2 157 29 156.5 29 156C 29 154.8 28.9 154.8 27 156z"/>
<path style="stroke:none; fill:#000000" d="M 131.3 163C 131.3 166 131.5 167.3 131.7 165.7C 131.9 164.2 131.9 161.8 131.7 160.2C 131.5 158.7 131.3 160 131.3 163z"/>
<path style="stroke:none; fill:#000000" d="M 520.3 172C 520.3 174.5 520.5 175.5 520.7 174.2C 520.9 173 520.9 171 520.7 169.7C 520.5 168.5 520.3 169.5 520.3 172z"/>
<path style="stroke:none; fill:#000000" d="M 131.3 181C 131.3 184 131.5 185.3 131.7 183.7C 131.9 182.2 131.9 179.8 131.7 178.2C 131.5 176.7 131.3 178 131.3 181z"/>
<path style="stroke:none; fill:#000000" d="M 555.8 176.7C 556.5 177 557.4 176.9 557.7 176.6C 558.1 176.3 557.5 176 556.4 176.1C 555.3 176.1 555 176.4 555.8 176.7z"/>
<path style="stroke:none; fill:#000000" d="M 520 179C 520 179.5 520.5 180 521 180C 521.6 180 522 179.5 522 179C 522 178.4 521.6 178 521 178C 520.5 178 520 178.4 520 179z"/>
<path style="stroke:none; fill:#000000" d="M 545.8 213.6C 547 214.4 548 215.9 548 216.8C 548.1 218.3 548.2 218.3 549.1 216.7C 550.4 214.4 548.7 212 545.7 212C 543.6 212 543.6 212 545.8 213.6z"/>
<path style="stroke:none; fill:#000000" d="M 438 239.4C 430.6 240.2 428.2 240.8 429.8 241.3C 432.3 242.3 432.7 243.8 430.5 244.6C 429.1 245.2 429.2 245.4 430.7 246.6C 432.3 247.8 432 247.9 428.3 248C 425.2 248 424 248.4 424 249.5C 424 251.1 425 251.3 431.5 251.2C 433.9 251.2 435.9 250.5 436.6 249.6C 437.9 247.8 440 247.5 440 249C 440 249.5 441.8 250 443.9 250C 446.1 250 448.1 250.5 448.3 251.2C 448.7 252.2 449.1 252.2 449.9 251C 450.4 250.2 450.6 249.2 450.3 248.7C 450 248.3 450.6 247 451.5 246C 453.1 244.3 453 244.1 450.8 243.4C 449.5 243 446.6 242.8 444.3 242.9C 441.8 243 440 242.6 440 242C 440 241.5 441.8 241 444 241C 446.2 241 448 240.5 448 239.9C 448 239.3 448.9 239.1 450 239.5C 451.1 239.9 452 239.7 452 239.1C 452 237.9 452.4 237.9 438 239.4z"/>
<path style="stroke:none; fill:#000000" d="M 416 241.8C 416 242.3 413.6 242.6 410.8 242.6C 402.3 242.5 383.4 244.3 385.3 244.9C 386.3 245.3 381.8 245.6 375.4 245.7C 368.9 245.8 363.3 246.3 362.7 246.9C 361.5 248.1 371.9 247.8 373.9 246.6C 374.7 246.1 375.3 246.6 375.7 247.9C 376.3 250.3 377.3 250.6 378.9 248.6C 379.5 247.9 382.6 247 385.8 246.6C 395.8 245.5 404.4 244.8 408 244.8C 410.7 244.8 411.1 244.6 409.5 244C 408.4 243.6 412.2 243.5 417.9 243.8C 426 244.2 428.1 244 427.5 243.1C 427.1 242.4 425.9 242 424.9 242.3C 423.8 242.6 423.2 242.4 423.6 241.9C 423.9 241.4 422.3 241 420.1 241C 417.8 241 416 241.4 416 241.8z"/>
<path style="stroke:none; fill:#000000" d="M 410.3 245.7C 409 245.9 408 246.6 408 247.2C 408 247.8 409 247.9 410.8 247.4C 412.3 247 416 246.7 419 246.8C 423 246.9 423.9 246.7 422.5 246C 420.4 245.1 414.2 244.9 410.3 245.7z"/>
<path style="stroke:none; fill:#000000" d="M 400 247C 400 247.5 401.7 248 403.8 248C 406.5 248 407.1 247.7 406 247C 404 245.7 400 245.7 400 247z"/>
<path style="stroke:none; fill:#000000" d="M 355.2 248.2C 353.7 249.7 355.5 252 358.1 252C 359.5 252 360 251.3 360 249.5C 360 246.8 357.4 246 355.2 248.2z"/>
<path style="stroke:none; fill:#000000" d="M 64 249C 64 249.5 64.6 250 65.4 250C 66.2 250 67.2 249.5 67.5 249C 67.8 248.4 67.2 248 66.1 248C 64.9 248 64 248.4 64 249z"/>
<path style="stroke:none; fill:#000000" d="M 72 249C 72 250.3 73.1 250.3 75 249C 76.2 248.2 76.1 248 74.3 248C 73 248 72 248.4 72 249z"/>
<path style="stroke:none; fill:#000000" d="M 343.3 249.1C 344.5 249.8 346.3 249.9 348.8 249.2C 352.5 248.2 352.5 248.2 347 248.1C 342.7 248.1 341.9 248.3 343.3 249.1z"/>
<path style="stroke:none; fill:#000000" d="M 384 250.4C 384 251.6 385.1 252 388.1 252C 393.3 252 392.9 249.6 387.7 249.2C 384.9 249 384 249.3 384 250.4z"/>
<path style="stroke:none; fill:#000000" d="M 456 250.5C 456 251.3 456.4 252 457 252C 457.5 252 457.7 251.3 457.4 250.5C 457 249.7 456.6 249 456.4 249C 456.2 249 456 249.7 456 250.5z"/>
<path style="stroke:none; fill:#000000" d="M 307.5 251.2C 303.1 251.6 296.4 252.4 292.5 252.8L 285.5 253.5L 285.4 301.7L 285.4 350L 306.2 350L 327 350L 327.2 306.7C 327.3 283 327.3 260.7 327.1 257.3L 326.8 251.1L 333.2 250.7C 336.6 250.5 334.1 250.4 327.5 250.3C 320.9 250.3 311.9 250.7 307.5 251.2zM 300 273.5C 300 274.6 299 275 296.8 274.9C 293.7 274.7 293.7 274.7 296.3 274.3C 297.8 274.1 299 273.4 299 272.9C 299 272.4 299.2 272 299.5 272C 299.8 272 300 272.7 300 273.5zM 294 280C 294 281.6 293.8 283 293.6 283C 293.4 283 293 281.6 292.8 280C 292.5 278.3 292.7 277 293.2 277C 293.6 277 294 278.3 294 280zM 290.7 282.2C 290.4 283 290.1 282.7 290.1 281.6C 290 280.5 290.3 279.9 290.6 280.3C 290.9 280.6 291 281.5 290.7 282.2zM 294.3 302.2C 293.5 306.8 293 307 293 302.7C 293 300.6 293.4 299 294 299C 294.5 299 294.7 300.4 294.3 302.2zM 294.2 327.2C 293.5 327.9 293 328 293 327.4C 293 326 294.2 324.8 294.9 325.5C 295.1 325.8 294.8 326.6 294.2 327.2zM 298.7 325.6C 298.4 325.9 297.5 326 296.8 325.7C 296 325.4 296.3 325.1 297.4 325.1C 298.5 325 299.1 325.3 298.7 325.6z"/>
<path style="stroke:none; fill:#000000" d="M 339.8 251.8C 337.7 252 336 252.5 336 253C 336 254.1 343.5 254.7 348 253.9L 351.5 253.4L 348.5 252.6C 344.1 251.5 343.8 251.4 339.8 251.8z"/>
<path style="stroke:none; fill:#000000" d="M 56 253.9C 56 255.1 56.6 256 57.5 256C 58.3 256 59 255.6 59 255.1C 59 254.6 58.3 253.7 57.5 253C 56.2 252 56 252.1 56 253.9z"/>
<path style="stroke:none; fill:#000000" d="M 398 254.5C 397 255.7 397 256 398.4 256C 399.3 256 400 255.3 400 254.5C 400 253.7 399.8 253 399.6 253C 399.4 253 398.7 253.7 398 254.5z"/>
<path style="stroke:none; fill:#000000" d="M 270.8 255.7C 271.5 256 272.4 255.9 272.7 255.6C 273.1 255.3 272.5 255 271.4 255.1C 270.3 255.1 270 255.4 270.8 255.7z"/>
<path style="stroke:none; fill:#000000" d="M 24 257.6C 24 258.5 24.5 259 25.2 258.8C 27 258.2 27.3 256 25.6 256C 24.7 256 24 256.7 24 257.6z"/>
<path style="stroke:none; fill:#000000" d="M 40 257.6C 40 258.5 40.5 259 41.2 258.8C 43 258.2 43.3 256 41.6 256C 40.7 256 40 256.7 40 257.6z"/>
<path style="stroke:none; fill:#000000" d="M 131 256.5C 131 257 131.5 258.2 132 259C 132.5 259.8 133 260 133 259.5C 133 258.9 132.5 257.8 132 257C 131.5 256.2 131 255.9 131 256.5z"/>
<path style="stroke:none; fill:#000000" d="M 440 258C 440 260.2 442.5 259.8 443.4 257.4C 443.7 256.5 443.3 256 442 256C 440.7 256 440 256.7 440 258z"/>
<path style="stroke:none; fill:#000000" d="M 552 257.5C 552 258.6 553.1 259 556 259C 558.9 259 560 258.6 560 257.5C 560 256.4 558.9 256 556 256C 553.1 256 552 256.4 552 257.5z"/>
<path style="stroke:none; fill:#000000" d="M 247.1 258.1C 248 258.6 246.8 258.8 244 258.4C 241.4 258.1 236.7 258.5 233 259.4C 227.6 260.7 227.4 260.8 231.5 260.2C 234.3 259.8 239 259.5 242 259.4C 250.5 259.2 252 259.1 252 258.2C 252 257.8 250.6 257.4 248.9 257.4C 246.7 257.3 246.2 257.5 247.1 258.1z"/>
<path style="stroke:none; fill:#000000" d="M 453 258.7C 449 259.1 445.3 260.8 444.7 262.4C 444.4 263.1 447.1 263.5 453.1 263.6C 458 263.7 462 263.4 462 263C 462 262.2 457.5 257.9 456.9 258.2C 456.7 258.2 454.9 258.5 453 258.7z"/>
<path style="stroke:none; fill:#000000" d="M 211 260.7C 208 260.9 205.1 261.5 204.6 262.1C 204 262.7 204.1 263 205.1 263C 205.8 263 207.6 263.3 209 263.5C 211.2 264 211.3 263.9 209.5 263C 208 262.2 208.5 262.1 211.8 262.6C 214.4 262.9 216 262.8 216 262.2C 216 261.6 217 260.9 218.3 260.7C 221 260.2 219.2 260.2 211 260.7z"/>
<path style="stroke:none; fill:#000000" d="M 241.4 260.7C 242.9 261.1 243 261.4 241.9 262.1C 240.8 262.8 241 263 242.5 263C 243.6 263 245.1 262.6 245.8 262.1C 246.8 261.5 246.6 261.1 244.8 260.7C 243.6 260.3 241.8 260.1 241 260.1C 240.1 260.2 240.2 260.4 241.4 260.7z"/>
<path style="stroke:none; fill:#000000" d="M 505.8 260.7C 507 260.9 509 260.9 510.3 260.7C 511.5 260.5 510.5 260.3 508 260.3C 505.5 260.3 504.5 260.5 505.8 260.7z"/>
<path style="stroke:none; fill:#000000" d="M 221.8 261.7C 222.4 261.9 223.6 261.9 224.3 261.7C 224.9 261.4 224.4 261.2 223 261.2C 221.6 261.2 221.1 261.4 221.8 261.7z"/>
<path style="stroke:none; fill:#000000" d="M 472 262.5C 472 263.6 473.1 264 476 264C 478.9 264 480 263.6 480 262.5C 480 261.4 478.9 261 476 261C 473.1 261 472 261.4 472 262.5z"/>
<path style="stroke:none; fill:#000000" d="M 188.1 263.1C 182.3 264.2 181.7 265 186.8 265C 189 265 191.2 264.5 191.6 263.9C 191.9 263.3 193.4 263.1 194.9 263.4C 196.8 263.9 197.1 263.8 196 263C 194.3 261.9 194.1 261.9 188.1 263.1z"/>
<path style="stroke:none; fill:#000000" d="M 229.8 262.7C 230.5 263 231.4 262.9 231.7 262.6C 232.1 262.3 231.5 262 230.4 262.1C 229.3 262.1 229 262.4 229.8 262.7z"/>
<path style="stroke:none; fill:#000000" d="M 234.3 262.7C 235.2 262.9 236.8 262.9 237.8 262.7C 238.7 262.4 237.9 262.2 236 262.2C 234.1 262.2 233.3 262.4 234.3 262.7z"/>
<path style="stroke:none; fill:#000000" d="M 253.8 262.7C 254.5 263 255.4 262.9 255.7 262.6C 256.1 262.3 255.5 262 254.4 262.1C 253.3 262.1 253 262.4 253.8 262.7z"/>
<path style="stroke:none; fill:#000000" d="M 280 264.7C 280 266.5 280.2 268 280.4 268C 281.3 268 281.7 264.1 280.9 262.9C 280.3 261.9 280 262.5 280 264.7z"/>
<path style="stroke:none; fill:#000000" d="M 175 265C 177 266.3 180.7 266.3 181.5 265C 181.9 264.4 180.4 264 177.8 264C 174.7 264 173.9 264.3 175 265z"/>
<path style="stroke:none; fill:#000000" d="M 150 267C 148.5 267.5 148.2 267.8 149.2 267.9C 150.1 268 151.7 268.3 152.7 268.6C 154.1 269.1 154.2 269 153.1 268.2C 152 267.4 152.1 267.1 153.6 266.7C 154.6 266.5 154.8 266.2 154 266.2C 153.2 266.2 151.4 266.6 150 267z"/>
<path style="stroke:none; fill:#000000" d="M 158 267L 155.5 267.8L 158 267.9C 160 268 160.2 268.2 159 269C 157.9 269.7 158.5 269.8 161 269.4C 165.6 268.5 166.1 268 162.4 267.9C 159.9 267.9 159.8 267.7 161.5 267C 164 265.9 161.4 265.9 158 267z"/>
<path style="stroke:none; fill:#000000" d="M 168.8 266.7C 169.5 267 170.4 266.9 170.7 266.6C 171.1 266.3 170.5 266 169.4 266.1C 168.3 266.1 168 266.4 168.8 266.7z"/>
<path style="stroke:none; fill:#000000" d="M 344.7 266.7C 343.6 267.7 343.9 272 345 272C 345.6 272 346 270.6 346 269C 346 265.9 345.8 265.5 344.7 266.7z"/>
<path style="stroke:none; fill:#000000" d="M 141.5 268C 141.8 268.5 142.6 269 143.1 269C 143.7 269 143.8 268.5 143.5 268C 143.2 267.4 142.4 267 141.9 267C 141.3 267 141.2 267.4 141.5 268z"/>
<path style="stroke:none; fill:#000000" d="M 169.3 269.7C 170.2 269.9 171.8 269.9 172.8 269.7C 173.7 269.4 172.9 269.2 171 269.2C 169.1 269.2 168.3 269.4 169.3 269.7z"/>
<path style="stroke:none; fill:#000000" d="M 148.3 270.7C 149.2 270.9 150.6 270.9 151.3 270.7C 151.9 270.4 151.2 270.2 149.5 270.2C 147.9 270.2 147.3 270.4 148.3 270.7z"/>
<path style="stroke:none; fill:#000000" d="M 209 271C 209 271.5 209.7 272 210.5 272C 211.3 272 212 271.5 212 271C 212 270.4 211.3 270 210.5 270C 209.7 270 209 270.4 209 271z"/>
<path style="stroke:none; fill:#000000" d="M 227.3 271.7C 229.3 271.9 232.7 271.9 234.8 271.7C 236.8 271.5 235.1 271.3 231 271.3C 226.9 271.3 225.2 271.5 227.3 271.7z"/>
</g>
</g>
</svg>