<?xml version="1.0" encoding="UTF-8" standalone="yes"?>
<!-- Created with sK1/UniConvertor (http://sk1project.org/) -->
<svg xmlns="http://www.w3.org/2000/svg" xmlns:xlink="http://www.w3.org/1999/xlink"
  width="1200pt" height="600pt" viewBox="0 0 1200 600"
  fill-rule="evenodd">
<g>
<g>
<path style="stroke:none; fill:#000000" d="M 0 300L 0 600L 600 600L 1200 600L 1200 300L 1200 0L 600 0L 0 0L 0 300zM 701 142.9C 701 143.4 701.8 144.1 702.8 144.4C 703.8 144.7 705.3 146.3 706.3 147.9C 707.9 150.6 708 158.3 708 255C 708 369 708.3 362.5 702.1 366.9C 699.3 368.9 698 369 668.1 369L 637 369L 637 365.7C 636.8 317.7 637.1 281.5 637.7 280.9C 638.2 280.4 644.8 279.9 652.5 279.8L 666.5 279.5L 667.8 268.5C 668.5 262.4 669.3 255.1 669.6 252.2L 670.2 247L 653.6 247C 638.5 247 637 246.8 636.9 245.2C 636.6 235.1 637.3 218.3 638.1 216.2C 639.6 212.2 643 209 645.7 209C 647 209 648 208.5 648 208C 648 207.4 652.7 207 660 207L 672 207L 672 192.6L 672 178.3L 662.8 177.6C 648.1 176.6 640.3 176.9 633.2 178.7C 629.5 179.7 626.3 180.7 626 181C 625.7 181.3 623.8 182.4 621.7 183.5C 616.8 186 610.7 192.5 608.5 197.6C 607.6 199.7 606.4 202.4 605.8 203.4C 604.5 205.9 602.9 224.4 603.1 235C 603.2 239.7 603.2 244.3 603.1 245.2C 603 246.8 601.6 247 588.5 247L 574 247L 574.2 263.2L 574.5 279.5L 588 279.8C 595.4 279.9 601.8 280.4 602.2 280.8C 602.8 281.4 603.4 346 603 367.7C 603 368.7 591.1 369 547.1 369C 489.3 369 488.8 369 484.8 365C 481 361.1 481 361.9 481 255.5L 481 151.8L 483.2 147.9C 484.4 145.7 486 144 486.7 144C 487.4 144 488 143.5 488 143C 488 142.3 524.2 142 594.5 142C 659.7 142 701 142.4 701 142.9zM 441.4 428.7C 442.1 431.1 441.9 438.5 441.1 439.8C 440.8 440.4 438 441 435 441.2L 429.5 441.5L 429.2 447.7L 428.9 454L 435 454L 441.1 454L 440.8 460.7L 440.5 467.5L 434.8 467.8L 429 468.1L 428.8 486.8L 428.5 505.5L 420 505.5L 411.5 505.5L 411.2 486.7L 411 468L 406 468L 401 468L 401 461L 401 454L 406 454L 411 454L 411 449.1C 411 442.4 413.9 433.6 416.9 431.5C 422.3 427.7 424.7 427 432.7 427C 439.6 427 440.9 427.3 441.4 428.7zM 610.8 443.3C 611 457 611.2 458.9 612.5 457.8C 615.8 454.8 616.7 454.3 620.7 453.3C 627.1 451.7 633.4 453.5 638.7 458.5C 641.1 460.8 643 463.3 643 464.2C 643 465.1 643.4 466 643.9 466.2C 645.5 466.7 646.7 479.6 645.8 486.3C 645.4 489.7 644.3 494 643.4 495.7C 641.6 499.6 637.7 504 636.1 504C 635.5 504 635 504.3 635 504.8C 635 505.7 627.8 508 624.8 508C 621.6 508 615.2 505.6 613 503.7C 611.2 502.2 611.1 502.3 610.5 504.1C 609.9 505.8 608.9 506 602 506L 594 506L 593.8 468.5C 593.6 443.4 593.8 430.6 594.6 429.6C 595.7 428 600.2 427.2 606.5 427.4L 610.5 427.5L 610.8 443.3zM 779 452C 779.3 465.5 779.7 475.7 779.8 474.7C 779.9 473.8 780.4 473 780.9 473C 781.4 473 782.1 471.9 782.4 470.5C 782.8 469.1 783.5 468 784 468C 784.6 468 785 467.3 785 466.5C 785 465.7 785.5 465 786 465C 786.6 465 787 464.4 787 463.7C 787 462.9 788.1 461 789.5 459.4C 790.9 457.8 792 455.9 792 455.2C 792 454.3 794.5 454 801 454C 806.9 454 810 454.4 810 455.1C 810 456.3 806 462.3 804.8 462.8C 804.4 463 804 463.7 804 464.3C 804 465 801.9 468.6 799.4 472.4C 795.2 478.7 794.9 479.4 796 482.1C 796.7 483.7 797.6 485 798.1 485C 798.6 485 799 485.7 799 486.5C 799 487.3 799.4 488 799.9 488C 800.4 488 801 488.8 801.4 489.7C 802 491.6 804.1 495.2 805.1 496C 807 497.6 810.7 504.9 810 505.6C 809.5 506.1 805.3 506.4 800.6 506.2C 792.9 505.9 792 505.7 792 503.9C 792 502.9 791.7 502 791.3 502C 790.8 502 788 497.9 785 493L 779.5 484L 779.2 495L 778.9 506L 770.5 506L 762 506L 762 502.2C 761.5 444.3 761.6 430.2 762.6 429.2C 763.9 428 768.8 427.2 774.5 427.4L 778.5 427.5L 779 452zM 468 453.6C 469.4 454 471 454.8 471.7 455.4C 475.8 459 475.9 459 476.2 456.7C 476.5 454.7 477.1 454.5 484.3 454.2L 492 453.9L 492 480.2L 492 506.5L 484 506.2C 476.1 505.9 476 505.8 475.9 503.2C 475.8 501.5 475.6 501.1 475.3 502.2C 475.1 503.2 474.2 504 473.4 504C 472.6 504 472 504.4 472 505C 472 505.5 471.1 506 470.1 506C 469 506 467.8 506.4 467.5 507C 467.2 507.5 465.6 508 464 508C 460.2 508 452 505.8 452 504.8C 452 504.4 451.5 504 450.8 504C 449.1 504 444 497.9 444 495.8C 444 494.7 443.6 494.1 443.1 494.4C 442.3 495 440.7 483 440.7 477C 440.8 472.6 442.2 466 443.1 466C 443.6 466 444 465.2 444 464.2C 444 462.1 449.6 456 451.6 456C 452.4 456 453 455.5 453 455C 453 454.4 454 454 455.3 454C 456.5 454 458.2 453.5 459 453C 460.5 452 463.1 452.2 468 453.6zM 532.3 453.7C 534.3 454 536 454.7 536 455.1C 536 455.6 536.7 456 537.6 456C 538.9 456 539.1 456.6 538.6 458.7C 538.3 460.3 537.7 463 537.3 464.8C 536.7 468.5 537 468.4 527.3 466.4C 522.7 465.5 517.2 467.6 515.5 471C 513.7 474.5 513.5 484.1 515.2 488.6C 516.1 491.2 517.2 492.1 520.6 493C 523 493.7 526.4 493.9 528.2 493.6C 536 492 536.2 492.1 537.8 497.7C 539.5 504 538.9 504.9 531.7 506.8C 523.7 508.9 518.6 508.3 509.2 504.3C 505.2 502.6 501.5 498.7 498.9 493.6C 497.4 490.5 497 487.5 497 479.9C 497 474.4 497.4 469.8 498 469.5C 498.6 469.2 499 468 499 466.9C 499 464.5 507.1 456 509.4 456C 510.3 456 511 455.6 511 455.2C 511 454 521.9 452.1 525.5 452.7C 527.2 452.9 530.2 453.4 532.3 453.7zM 571.1 453.1C 583.4 457.1 586.6 460.9 589 474.1C 591.3 486.8 591 487 572 487C 558.2 487 556.9 487.2 557.2 488.7C 557.4 489.7 559.1 491.5 561 492.8C 564.2 495 565.2 495.1 572 494.5C 576.1 494.2 580 493.4 580.7 492.9C 583.2 490.8 585.3 492.4 586.6 497.5C 588.3 504 588.3 504 586 504C 584.9 504 584 504.4 584 504.8C 584 505.2 580.1 506.2 575.4 506.9C 568.3 508 565.5 508 559.4 506.9C 555.4 506.2 552.3 505.3 552.6 504.8C 552.9 504.4 552.5 504 551.8 504C 549.4 504 543.8 498.4 541.9 494C 539.3 488.3 539.2 471.7 541.7 466.5C 542.6 464.6 543.7 463 544.2 463C 544.6 463 545 462.5 545 461.9C 545 460.4 550.1 456 551.8 456C 552.4 456 553 455.5 553 455C 553 454.4 554.5 454 556.3 454C 558 454 560.2 453.5 561 453C 563 451.7 566.9 451.8 571.1 453.1zM 684.3 453.6C 686.3 454 688 454.5 688 454.9C 688 455.2 689.4 456.1 691 456.8C 698.7 460.3 703.2 473.4 701.2 486.9C 699.3 499.6 691.6 506.1 676.7 507.7C 669.8 508.4 662.5 505.5 657 500C 651.5 494.5 650.7 492.3 650.2 481.9C 649.8 472.9 649.9 471.8 652.4 466.7C 655.2 461 659.9 456 662.5 456C 663.3 456 664 455.6 664 455.2C 664 454 673.9 452.2 677.5 452.6C 679.2 452.8 682.2 453.3 684.3 453.6zM 738.8 453.4C 741.6 453.9 744 454.6 744 455.1C 744 455.6 744.6 456 745.3 456C 748.2 456.1 756 465.3 756 468.8C 756 469.9 756.5 471.2 757 471.5C 757.6 471.8 758 475.7 758 480C 758 484.3 757.6 488.2 757 488.5C 756.5 488.8 756 489.9 756 490.9C 756 495 748.7 504 745.4 504C 744.6 504 744 504.4 744 504.9C 744 506.8 729.3 508.2 724.5 506.7C 719 505 715 502.9 712.7 500.5C 708.6 496.1 708 495.1 708 493C 708 491.9 707.6 491 707 491C 706.4 491 706 486.7 706 480C 706 473.3 706.4 469 707 469C 707.6 469 708 468.2 708 467.1C 708 464.6 715.7 456 718.1 456C 719.1 456 720 455.5 720 455C 720 454.4 721 454 722.3 454C 723.5 454 725 453.6 725.7 453.2C 727.2 452.3 731.9 452.3 738.8 453.4z"/>
<path style="stroke:none; fill:#000000" d="M 616.5 467.2C 612 469.8 611.5 471 611.5 480.3C 611.5 489 611.6 489.2 614.5 491.6C 617.8 494.2 621 494.6 624.3 492.8C 628.2 490.8 628.9 488.8 629 480.8C 629 471.2 627.9 468.6 623 467.1C 618.6 465.8 619 465.8 616.5 467.2z"/>
<path style="stroke:none; fill:#000000" d="M 464 467.1C 459.3 469 458 471.8 458 480.7C 458 485.6 458.4 489 459 489C 459.6 489 460 489.6 460 490.3C 460 491.9 464.2 494 467.3 494C 468.5 494 470.7 492.9 472.3 491.6C 474.9 489.4 475 488.7 475.2 480.3C 475.4 470.8 475 469.7 470.3 467.2C 467.8 465.8 467.3 465.8 464 467.1z"/>
<path style="stroke:none; fill:#000000" d="M 559.6 467.4C 558.1 468.7 557 470.8 557 472.4L 557 475L 565.5 475C 573.9 475 574 475 574 472.5C 574 465.9 564.7 462.6 559.6 467.4z"/>
<path style="stroke:none; fill:#000000" d="M 672.4 467.2C 668.3 468.5 667 471.6 667 480C 667 488.5 668.2 491.3 672.4 492.8C 676.9 494.5 678.1 494.3 681.5 491.6C 684.4 489.2 684.5 489 684.5 480.3C 684.5 470.9 684 469.7 679.3 467.2C 676.8 465.8 676.6 465.8 672.4 467.2z"/>
<path style="stroke:none; fill:#000000" d="M 727.8 467.3C 724 468.8 721.6 475.6 722.3 482.5C 723.2 491.8 727.7 495.4 735 493C 738.4 491.9 739.1 491.2 739.7 488.1C 740.5 484 740.4 476.1 739.6 471.4C 739.1 468.9 738.3 468.1 735.1 467.2C 733 466.5 731.1 466 730.9 466.1C 730.7 466.2 729.3 466.7 727.8 467.3z"/>
</g>
</g>
</svg>