<?xml version="1.0" encoding="UTF-8" standalone="yes"?>
<!-- Created with sK1/UniConvertor (http://sk1project.org/) -->
<svg xmlns="http://www.w3.org/2000/svg" xmlns:xlink="http://www.w3.org/1999/xlink"
  width="900pt" height="900pt" viewBox="0 0 900 900"
  fill-rule="evenodd">
<g>
<g>
<path style="stroke:none; fill:#000000" d="M 0 450L 0 900L 450 900L 900 900L 900 450L 900 0L 731.2 0L 562.5 0L 561.2 2.90002C 560.5 4.60004 559.8 6.90002 559.7 8.20001C 559.7 9.5 559.1 10.8 558.5 11.2C 557.9 11.7 558.2 12 559.3 12C 560.2 12 561 12.6 561 13.4C 561 14.2 561.6 15.1 562.3 15.3C 563.2 15.7001 563.2 15.9 562.2 15.9C 559.8 16.1 558 18.8 558 22.4C 558 26.5 554.9 29.3 551.2 28.5C 549.8 28.3 548.7 28.7 548.3 29.5C 548 30.3 547.4 31 546.8 31C 546.3 31 546.1 30.6 546.4 30.1C 547.6 28.2 542.8 28.2 540.9 30.1C 538.9 32.1 537.5 32.7 538.5 31C 539.3 29.8 538.4 29.7 534.3 30.9C 532.5 31.4 530.8 31.5 530.5 31.1C 530.3 30.7 528.4 30.4 526.3 30.5001C 524.2 30.7001 522.2 30.3 521.8 29.6C 521.2 28.8 521 28.9 521 29.8C 521 30.5001 520.6 30.9 520.1 30.6C 519.6 30.2 517.1 29.8 514.5 29.5001C 511.9 29.3 508.5 28.4001 506.9 27.6C 505.3 26.8 504 26.6 504 27.1C 504 27.6 501.6 28.0001 498.7 28.0001C 495.7 28.0001 492.6 28.6 491.3 29.5001C 489.7 30.7001 489.1 30.7001 488.7 29.7001C 488.3 28.8 488.1 28.9001 488.1 29.9001C 488 31.4001 484.9 34.5001 480.1 37.9001C 478.4 39.2001 477.2 40.6001 477.5 41.1001C 477.9 41.6001 477.4 42.0001 476.6 42.0001C 475.7 42.0001 475 42.4001 475 43.0001C 475 44.4001 471.3 44.3001 468.7 42.8001C 464.1 40.3001 444.2 40.2001 436 42.7001C 426 45.7001 424 46.0001 422.3 44.7001C 421.6 44.2001 421 44.1002 421 44.5001C 421 44.9001 420.3 44.7001 419.5 44.0001C 418.7 43.3001 418 41.9001 418 40.9001C 418 39.8002 417.5 39.0001 417 39.0001C 415.7 39.0001 410 33.9001 410 32.8001C 410 31.9001 409.8 31.5001 405 25.8001C 402.9 23.3001 401.4 22.3001 400.1 22.7001C 398.8 23.0001 398 22.5001 397.5 21.1002C 397.2 19.9001 396.4 19.2001 395.9 19.5002C 395.4 19.9002 394.8 19.4002 394.5 18.6002C 392.9 13.5002 392.9 13.5002 392.1 14.9001C 391.4 15.9001 391.2 15.9001 390.7 14.7001C 390 12.9001 392.3 10.6002 393.5 11.8001C 393.9 12.2001 394.1 11.3001 393.8 9.80011C 393.5 8.1001 393.7 7.30011 394.3 7.70013C 394.9 8.10016 395.1 7.70013 394.7 6.60016C 394.3 5.60016 394 3.70013 394 2.40015L 394 0.00012207L 197 0.00012207L -9.15527e-05 0.00012207L 0 450zM 318 3C 318 3.5 317.6 4 317 4C 316.5 4 316 3.5 316 3C 316 2.40002 316.5 2 317 2C 317.6 2 318 2.40002 318 3zM 634 10.1C 634 10.6 633.3 11 632.5 11C 631 11 630.5 9.79999 631.6 8.70001C 632.4 7.90002 634 8.79993 634 10.1zM 79.1 25.3L 96.5 25.6L 78.9 25.8C 63.1 26 61.1 25.8 59.9 24.2C 58.7 22.7 58.7 22.6 60.1 23.7C 61.1 24.6 67.3 25 79.1 25.3zM 48.2 25.7C 43.1 25.9 35 25.9 30.2 25.7C 25.4 25.6 29.6 25.4 39.5 25.4C 49.4 25.4 53.3 25.6 48.2 25.7zM 27.8 31.3C 28 32.5 27.4 33.3 26.1 33.7C 25 34 23.9 34.9 23.7 35.9C 23.5 36.8 23.2 35.6 22.9 33.2C 22.5 29.1 22.6 28.9 25 29.2C 26.5 29.4 27.6 30.2 27.8 31.3zM 35 29.9C 35 30.4 34.1 30.6 33 30.3C 31.9 30 31 30.2 31 30.8C 31 31.4 31.9 32.2 33 32.5C 34.2 32.9 35 34 34.9 35.3C 34.9 36.8 34.7 37 34.3 36C 33.9 35.2 32.8 33.8 31.7 32.9C 30.6 32 30 30.8 30.4 30.2C 31.2 28.8 35 28.6 35 29.9zM 47 29.9C 47 30.4 46 30.6 44.9 30.3C 42.9 29.8 42.8 30 43.2 33.4C 43.4 35.4 43.3 36.9999 42.9 36.9999C 42.5 36.9999 42 35.2 41.8 32.9999C 41.5 29.2 41.6 28.9999 44.2 28.9999C 45.8 28.9999 47 29.4 47 29.9zM 51.8 30.2C 51.6 30.9 52 31.4 52.7 31.2999C 53.4 31.0999 53.7 31.5999 53.4 32.3999C 53.1 33.1999 53.3 34.0999 53.9 34.4999C 54.5 34.7999 55 35.6999 55 36.2999C 55 36.9999 54.3 36.6999 53.6 35.6999C 52.2 33.8999 52.1 33.8999 51.1 35.6999C 50.5 36.6999 50 36.9999 50 36.2999C 50 35.6999 50.5 34.7999 51.1 34.4999C 51.8 33.9999 51.6 32.9999 50.5 31.3999C 49.1 29.2999 49.1 28.9999 50.5 28.9999C 51.3 28.9999 51.9 29.5999 51.8 30.2zM 55.7 29.6C 55.4 29.9 54.5 30 53.8 29.7C 53 29.4 53.3 29.1 54.4 29.1C 55.5 29 56.1 29.3 55.7 29.6zM 62.9 29.9C 64.6 30.9999 63.6 33.9999 61.5 33.9999C 60.7 33.9999 60 34.7 60 35.4999C 60 36.2999 59.7 36.9999 59.3 36.9999C 58.8 36.9999 58.5 35.2 58.5 32.9999C 58.5 28.9 59.8 27.9999 62.9 29.9zM 70.9 30.4C 71.7 31.4 71.8 31.9999 71 32.4999C 70.3 32.9 70.3 33.7 71 35.0999C 71.7 36.3999 71.7 36.9999 71 36.9999C 70 36.9999 69.6 35.0999 69.9 31.7C 70 30.7999 69.6 29.9999 69.1 29.9999C 68.5 29.9999 68 31.5999 68 33.4999C 68 35.4 67.7 36.9999 67.3 36.9999C 66.8 36.9999 66.5 35.2 66.5 32.9999C 66.5 28.7 68.5 27.4999 70.9 30.4zM 80 29.9C 80 30.4 79 30.6 77.9 30.3C 75.9 29.8 75.8 30 76.2 33.4C 76.4 35.4 76.3 36.9999 75.9 36.9999C 75.5 36.9999 75 35.2 74.8 32.9999C 74.5 29.2 74.6 28.9999 77.2 28.9999C 78.8 28.9999 80 29.4 80 29.9zM 87 29.9999C 87 30.4999 86.3 30.7 85.5 30.4C 84.7 29.9999 84 30.3 84 30.9C 84 31.6 84.7 32.3 85.5 32.6C 86.3 33 87 34.2 86.9 35.4C 86.9 36.8 86.7 36.9999 86.3 35.9999C 85.9 35.2 84.8 33.9 83.8 33.2C 82.3 32.1 82.2 31.4999 83.1 30.4C 84.4 28.8 87 28.4999 87 29.9999zM 92.8 29.7C 90.4 30.2999 90.5 31.4 93.3 33.2999C 95.1 34.4999 95.3 34.9999 94.2 36.2C 93.1 37.2999 93 37.2 93.5 35.7999C 93.9 34.7 93.5 33.9999 92.1 33.4999C 88.8 32.4999 89.5 28.9 92.9 29.0999C 94.2 29.1999 94.2 29.3 92.8 29.7zM 31.5 35.9999C 31.8 36.4999 31.6 36.9999 31.1 36.9999C 30.5 36.9999 30 36.4999 30 35.9999C 30 35.4 30.2 34.9999 30.4 34.9999C 30.7 34.9999 31.2 35.4 31.5 35.9999zM 83.5 35.9999C 83.8 36.4999 83.6 36.9999 83.1 36.9999C 82.5 36.9999 82 36.4999 82 35.9999C 82 35.4 82.2 34.9999 82.4 34.9999C 82.7 34.9999 83.2 35.4 83.5 35.9999zM 99 40.4C 99 40.7 98.6 41.2 98 41.4999C 97.5 41.7999 97 41.5999 97 41.0999C 97 40.4999 97.5 39.9999 98 39.9999C 98.6 39.9999 99 40.2 99 40.4zM 58 41.9999C 58 42.5999 51.5 42.9999 40.6 42.9999C 30 42.9999 22.9 42.5999 22.5 41.9999C 22.1 41.2999 28.2 40.9999 39.9 40.9999C 51.3 40.9999 58 41.4 58 41.9999zM 96 41.9999C 96 42.4999 88.4 42.9999 77.6 43.2C 62.9 43.4 59.4 43.2 60.2 42.2C 61.5 40.7 96 40.4 96 41.9999zM 41 47.4C 41 47.6 40.2 48.4 39.3 49.1C 37.7 50.4 37.6 50.3 38.9 48.7C 40.2 47.1 41 46.6 41 47.4zM 78.5 48.9999C 78.8 49.4999 78.6 49.9999 78.1 49.9999C 77.5 49.9999 77 49.4999 77 48.9999C 77 48.4 77.2 47.9999 77.4 47.9999C 77.7 47.9999 78.2 48.4 78.5 48.9999zM 59.4 51.4999C 59 52.2999 58.6 52.9999 58.4 52.9999C 58.2 52.9999 58 52.2999 58 51.4999C 58 50.7 58.4 49.9999 59 49.9999C 59.5 49.9999 59.7 50.7 59.4 51.4999zM 547.4 233.9C 548.6 234.4 551 234.7 560.2 235C 563.9 235.2 566.7 235.7 566.4 236.1C 566.1 236.6 567.7 237 570 237C 572.2 237 574.9 237.4 576 238C 577.1 238.6 578.9 239.4 580 240C 581.1 240.6 582.7 241 583.5 241C 584.4 241 584.8 241.5 584.5 242.1C 584.1 242.7 584.4 243.1 585.1 242.9C 587.8 242.6 589.1 243 588.5 244C 587.9 244.9 589.3 245.4 591.3 245.1C 591.7 245 592.8 245.7 593.6 246.5C 594.5 247.3 595.6 247.7 596.2 247.4C 596.8 247 597 247.1 596.7 247.7C 596.4 248.2 597.5 249.5 599.3 250.5C 601.1 251.5 604.2 253.6 606.3 255.2C 608.7 257.1 610 257.7 610.1 256.8C 610.1 255.8 610.3 255.8 610.7 256.8C 610.9 257.4 611.6 257.8 612.1 257.4C 612.6 257.1 612.9 257.3 612.8 257.8C 612.5 258.6 621 267.3 626.6 272.1C 629 274.1 637.2 283.6 638.4 285.8C 638.9 286.8 640.2 288.2 641.2 289.1C 642.2 290 643 291.2 643 291.7C 643 292.3 643.6 293.3 644.4 293.9C 645.9 295.1 651.4 305 650.6 305C 650.4 305 648.3 302 645.9 298.2C 627 268.2 596.1 245.6 564.9 238.9C 562.2 238.3 560.2 237.5 560.4 237.2C 560.6 236.8 558.9 236.4 556.7 236.3C 554.4 236.2 546 235.8 538.1 235.4C 524.2 234.8 516 235.4 503.5 238.2C 497 239.6 480.8 245 479.5 246.2C 479 246.7 479.8 246.6 481.3 246.1C 485.2 244.6 491.1 244.6 489 246.1C 487.7 247 487.7 247.1 489 246.7C 489.8 246.5 490.4 245.6 490.2 244.7C 490 243.6 490.4 243.2 491.4 243.6C 492.2 243.9 493 245.1 493.2 246.3C 493.4 247.5 494.2 248.5 495 248.6C 495.9 248.6 496 248.5 495.3 248.3C 494.6 248 494 247.5 494 247C 494 246.5 494.6 245.8 495.3 245.4C 495.9 245 496.2 245 495.8 245.5C 495.4 245.9 495.8 246.8 496.7 247.5C 498.2 248.6 498.1 248.9 496.2 250.8C 494.2 252.8 494.2 252.8 493.7 250.9C 493.3 249.6 492.7 249.2 491.4 249.7C 489.8 250.3 489.8 250.4 491.6 251.1C 492.9 251.6 493 251.9 492 251.9C 490.8 252 490.8 252.2 491.8 252.9C 492.9 253.5 492.8 254 491.5 255.4C 490 256.9 490 257 491.5 257C 492.5 257 492.8 257.5 492.4 258.2C 491.9 259.1 492.2 259.1 493.3 258.1C 494.8 256.9 495 257 495 258.4C 495 259.4 495.4 259.9 495.8 259.6C 496.3 259.3 496.7 259.6 496.8 260.3C 497 262.5 497.6 264.5 498.4 265.9C 499 266.9 498.9 267.1 498.1 266.6C 497.5 266.2 496.3 266.3 495.5 267C 494.5 267.8 493.9 267.7 492.8 266.2C 492.1 265.2 490.8 264 490 263.5C 488.7 262.8 488.7 262.9 489.8 264.2C 490.7 265.3 490.8 266 490 266.5C 488.7 267.3 488.7 269 490 269C 490.6 269 490.9 268.7 490.8 268.2C 490.6 267.8 491 267.5 491.5 267.5C 492.1 267.5 492.4 267.8 492.3 268.1C 492.2 268.5 492.9 268.7 493.8 268.7C 497.3 268.7 497.8 269 497.3 271C 497 272.2 497.3 273 497.9 273C 498.6 273 498.8 273.5 498.4 274.2C 497.9 274.9 498.3 275.1 499.7 274.8C 501.2 274.4 502.1 274.9 502.9 276.8C 504.5 280.2 503.8 280.4 500.4 277.8L 497.5 275.6L 500.4 278.8C 503.4 282.1 505.5 282.1 504.7 278.9C 504 276.4 505.4 275.6 507 277.5C 507.7 278.3 508.6 278.7 509.1 278.4C 509.6 278.1 510 278.6 510 279.6C 510 281 509.7 281 508.4 280C 507.1 278.9 506.8 279 506.3 280.9C 505.9 282.6 505.2 283.1 503.4 282.7C 502 282.5 500.9 282.9 500.6 283.7C 500.2 284.6 499.3 284.9 498 284.5C 496.6 284 496 284.3 496 285.4C 496 286.3 495.6 287 495.2 287C 494.7 287 493.5 287.7 492.4 288.5C 490.5 290 490.5 290 492.5 289.3C 493.6 289 495 288.4 495.5 288C 497 286.9 507.9 283.3 513.9 281.9C 522.8 279.9 544.1 280.4 553.6 282.8C 585 290.8 609.3 315 617.3 346.5C 618.2 349.8 619.3 355 619.8 358L 620.7 363.5L 620.9 357.7C 621 353.7 621.4 352.1 622.1 352.6C 622.8 353 622.8 352.5 622 351C 620.9 349 621 348.9 623 350C 624.1 350.6 624.7 351.6 624.4 352.2C 624 352.9 624.1 353 624.8 352.6C 625.6 352.1 625.6 351.3 624.8 349.5C 624.2 348.2 623.4 347.3 623 347.5C 622.7 347.7 622.2 345.6 622.1 342.9L 621.9 337.9L 625.2 338.2C 628.1 338.5 628.5 338.8 628.5 341.5C 628.5 343.5 627.8 344.8 626.3 345.5C 624.7 346.3 624.4 347 625.2 348.3C 625.7 349.3 626.5 349.8 627.1 349.5C 627.6 349.2 627.7 349.7 627.4 350.7C 626.9 352.4 626.9 352.4 628.3 350.7C 629.6 349.1 629.9 349.1 631.3 350.5C 632.2 351.3 633.5 351.9 634.2 351.8C 634.8 351.6 635.4 352 635.5 352.7C 635.5 353.3 635.9 354.2 636.4 354.7C 636.9 355.1 637 355 636.7 354.4C 635.9 353 638.7 351.7 639.5 352.9C 639.8 353.4 641 353.6 642.3 353.3C 644.1 352.9 644.2 353 643 353.9C 641.8 354.8 641.9 355 643.8 355C 645 355 646 354.4 646.1 353.7C 646.1 352.8 646.3 352.8 646.7 353.8C 646.9 354.4 647.5 354.8 648 354.5C 649.7 353.4 652.7 358.4 652.9 362.8C 653 363.5 653.5 363.8 654.1 363.4C 654.7 363.1 654.9 361.9 654.7 360.8C 654.3 359.4 654.5 359.2 655.3 359.9C 656 360.4 656.9 360.9 657.4 360.9C 658.7 361 659.1 363.8 657.9 364.6C 657.4 364.9 657.3 365.6 657.6 366.2C 658 366.9 657.8 367 657.1 366.6C 656.5 366.2 656.3 365.3 656.7 364.7C 657.5 363.3 658 361 657.4 361C 657.2 361 656.3 362.4 655.5 364.1C 654.2 366.5 654.1 367.5 655.1 368.6C 655.7 369.4 656 370.3 655.7 370.7C 654.8 371.5 657 374.1 658.1 373.5C 658.5 373.2 658.7 373.9 658.5 375C 658.3 376.1 658.5 377 659 377C 659.4 377 660 377.6 660.3 378.3C 660.6 379.1 660.2 379.7 659.4 379.7C 658.7 379.7 658.3 379.3 658.6 378.9C 658.8 378.5 658.6 377.9 658 377.5C 657.4 377.1 657.2 376.4 657.5 375.9C 657.9 375.4 657.5 375 656.7 375C 655.3 375 653.7 371.7 653.9 369.4C 654 368.9 653.1 367.4 651.9 366.1C 650.8 364.9 650.1 363.3 650.3 362.6C 650.6 361.8 650.3 360.7 649.7 360.1C 649.1 359.5 649 359 649.4 359C 649.9 359 649.7 358.3 649 357.5C 648.3 356.7 647 356 646.1 356C 644.9 356 644.8 356.2 645.7 356.8C 646.4 357.3 647.1 358.8 647.2 360.3C 647.3 361.8 647.8 363 648.2 363C 648.6 363 649 363.9 649 364.9C 649 366 649.5 367.2 650 367.5C 651.3 368.3 651.3 372 649.9 372C 649.4 372 649.1 371.6 649.4 371.1C 650.2 369.8 649 366.9 647.9 367.6C 647.4 367.9 647 368.6 647 369.1C 647 369.7 647.5 369.8 648 369.5C 648.6 369.2 649 369.4 649 369.9C 649 370.5 648.3 371 647.5 371C 646.5 371 646 370 646 368C 646 366.3 646.5 365 647.2 365C 647.9 365 647.8 364.5 646.8 363.7C 645.9 363.1 645 361.8 644.6 361C 644.3 360.2 644.2 361 644.4 362.7C 644.7 364.5 644.4 366.2 643.9 366.5C 642.7 367.3 645.9 372 647.6 372C 649.6 372 649.3 373.8 647.1 375.2C 645.2 376.4 645.2 376.4 647.1 378.1C 648.4 379.2 648.7 380.1 648 380.5C 646.2 381.6 646.9 383.3 649 382.7C 651.2 382.1 651.8 383.5 649.8 384.3C 649.1 384.6 649.4 384.9 650.5 385C 652.3 385.1 652.4 385.1 650.8 386.1C 648.3 387.5 648.6 388.8 651.3 389.2C 653.2 389.5 653.2 389.6 651.8 390.2C 650.7 390.6 649.4 390.3 648.5 389.4C 647.7 388.5 647 388.2 647 388.7C 647 389.9 648.6 392.2 649.4 392.1C 651.4 391.8 652 392.2 652 393.6C 652 395 652.3 395 653.5 394C 654.7 393 654.8 392.5 653.9 391.9C 653.1 391.4 653.5 390.8 655 390C 656.5 389.2 657 389.2 656.6 389.9C 656.2 390.5 656.5 391 657.2 391C 657.9 391 657.4 391.7 656.2 392.6C 654.9 393.5 654.3 394.6 654.7 395.3C 656.2 397.7 655.9 399.6 653.9 400.9C 652.3 401.8 652 401.8 652.5 400.9C 653 400.2 652.9 399.9 652.3 400.3C 651.7 400.7 650.7 400.3 650 399.5C 649 398.3 649.2 397.9 651.4 397C 654.5 395.8 654.9 395 651.8 395.8C 650.4 396.1 649.9 395.9 650.4 395.2C 650.7 394.6 650.5 393.8 649.9 393.4C 649.2 393 649 393.1 649.3 393.7C 649.7 394.3 649.3 395.3 648.5 396C 647.3 397 647 397 646.9 395.9C 646.9 394.9 646.7 394.8 646.3 395.8C 646.1 396.4 645.5 396.8 645 396.5C 644.3 396.1 645.6 404.9 646.4 405.7C 646.6 405.9 647 405.2 647.3 404C 647.6 402.9 647.4 402 646.9 402C 646.4 402 646 401.2 646.1 400.2C 646.1 399.2 646.4 399 646.7 399.7C 646.9 400.4 648 401 649 401C 651.8 401 652.2 402.5 650.1 404.4C 649.1 405.4 648.4 406.9 648.5 407.8C 649.8 414.5 649.9 416.1 648.8 415.4C 648.1 414.9 648 415.1 648.5 416C 649.1 417 649.8 416.7 651.2 414.9C 652.3 413.6 652.9 413 652.6 413.7C 652.2 414.3 652.5 415.2 653.2 415.6C 654 416.1 653.6 416.6 652.1 417.2C 650.9 417.6 650.2 418.4 650.5 419C 650.9 419.6 651.6 419.7 652.2 419.4C 652.8 419 653 419.2 652.6 419.8C 652.3 420.4 651.1 420.7 650 420.5C 648.8 420.3 648.2 420.5 648.5 421.1C 648.9 421.6 649.6 421.8 650.1 421.5C 651.6 420.5 651.1 423.3 649.4 425.8C 648.6 427 648.2 428 648.6 428C 648.9 428 648.1 429.5 646.6 431.4C 645.2 433.3 644 435.6 644 436.4C 644 437.3 642.7 439.2 641 440.7C 639.4 442.1 638 443.9 638 444.7C 638 445.4 637.7 446 637.3 446.1C 632.4 446.6 631.3 447.5 633 449.5C 634.1 450.8 634.1 451.1 632.9 450.8C 632.1 450.6 631.6 451 631.7 451.6C 631.8 452.2 631.3 452.7 630.5 452.7C 629.7 452.7 629.2 452.2 629.3 451.7C 629.4 451.2 628.8 450.6 627.9 450.5C 627 450.3 626.3 450.8 626.3 451.6C 626.3 452.3 626.8 452.7 627.3 452.3C 627.8 452 627.4 453 626.4 454.4C 625.3 456.3 624.5 456.7 624 455.9C 623.2 454.6 621 455.5 621 457.1C 621 457.7 620.4 458.8 619.6 459.5C 618.6 460.5 618 460.6 617.1 459.7C 616.3 458.9 616 458.9 616 459.8C 616 460.5 615.6 461 615 461C 614.5 461 614 460.2 614 459.2C 613.9 457.7 613.8 457.7 612.8 459.4C 611.8 461.2 611.7 461.2 610.4 458.9C 609.2 456.7 609.1 456.7 609 458.5C 609 460.1 608.8 460.2 608.1 459C 607.5 458.2 607.4 457.2 607.7 456.6C 608 456.1 607.8 456 607.2 456.4C 606.6 456.7 605.6 456.2 605 455.3C 604.2 453.8 604 454.1 604.4 456.8C 604.8 459.6 604.6 459.9 603.4 458.9C 602.6 458.3 601.7 458 601.3 458.4C 601 458.7 601.2 459 601.7 459C 603 459 602.9 460.8 601.6 462.9C 601.1 463.7 601.2 464.5 602.1 465C 603.6 466 604.2 468.8 602.9 469.6C 602.4 469.9 602.3 470.6 602.6 471.2C 603 471.8 602.8 472 602.2 471.6C 601.6 471.3 600.9 471.4 600.5 472C 600 472.9 602 473.5 604.3 473.1C 605.5 472.9 605.1 473.7 603.3 475.1C 602.2 476.1 601.9 476.1 602.4 475.2C 602.8 474.6 602.6 474 602.1 474C 601.5 474 600.9 474.4 600.9 475C 600.8 475.5 600.6 476.4 600.5 477C 600.4 477.5 600.2 478.2 600.1 478.5C 600.1 478.8 599.1 478.6 597.9 478C 596 476.9 595.9 477 597 479C 597.7 480.3 597.8 481 597.2 480.6C 596.6 480.3 596 480.8 595.7 481.7C 595.4 483 595 482.5 594.5 480.3C 593.9 477.5 593.6 477.3 592.3 478.5C 590.3 480.5 589.7 480.4 590.3 478C 590.6 476.9 590.4 476 589.9 476C 589.4 476 588.9 476.4 588.9 477C 588.7 478.3 588.3 479.9 588 480.5C 587.9 480.8 587.7 481.3 587.5 481.7C 586.6 485.1 583.9 489 582.6 489C 582.3 489 581.9 487.8 581.9 486.2C 581.8 484 581.7 483.9 581.3 485.7C 580.8 488.4 578.8 490.1 574.2 491.7C 571.9 492.5 570 492.6 568.9 491.9C 566.6 490.7 566 490.8 566 492.1C 566 492.6 566.6 492.8 567.3 492.4C 568.2 491.9 568.2 492 567.3 493C 566.2 494.2 562.8 495.1 553.2 496.9C 549 497.7 546.5 496.6 548.9 495C 549.6 494.6 550.3 493.7 550.4 492.9C 550.6 492.1 551 490.8 551.3 490C 553.1 485.6 554.3 482.4 554.6 481.2C 554.7 480.4 555.2 479.1 555.6 478.2C 556.7 475.6 556.7 472.6 555.5 471.8C 554.9 471.3 555 471 555.8 471C 556.5 471 557 469.9 556.9 468.2C 556.8 466.7 557.2 464.2 557.9 462.7C 558.5 461.1 558.6 460.1 558.1 460.4C 556.9 461.2 558 453.8 559.4 452.1C 560.3 450.9 559.9 450.8 556.5 451.3C 554.3 451.6 553.3 451.6 554.2 451.4C 555.6 451 555.8 450.4 555 449C 554.2 447.5 554.5 447.1 557.6 446.5C 563 445.5 577.2 437.8 584.3 432C 596.5 422.2 606.9 407.3 611.1 393.8C 615.7 378.9 616.2 373.3 614.8 348C 614.7 347.2 614.2 346.2 613.6 345.7C 612.8 345.2 613 344.7 614 344C 615.3 343.1 615.3 343 614 343C 612.7 343 612.7 342.9 614 342C 614.8 341.5 615 341 614.4 341C 613.8 341 613.3 340.4 613.2 339.7C 613.1 339.1 612.9 337.4 612.8 336C 612.6 334.6 612 333.5 611.3 333.5C 610.7 333.5 609.8 333.1 609.3 332.6C 608.8 332.1 609 332 609.8 332.4C 611.1 333.2 611.5 330.9 610.3 329.6C 609.8 329.2 609.5 328.3 609.5 327.7C 609.4 327 608.9 326.6 608.2 326.7C 607.5 326.9 607.1 326.4 607.3 325.7C 607.4 325.1 606.9 324.6 606.2 324.8C 605.4 324.9 605.1 324.6 605.4 324.1C 606.3 322.7 604.2 317.8 603 318.5C 602.4 318.9 602 318.8 602.1 318.3C 602.5 316.8 600.8 314 599.9 314.6C 599.4 314.9 599.1 314.7 599.2 314.3C 599.5 313.3 593.5 306 592.4 306C 592 306 590.8 305 589.6 303.7C 586.3 300.3 579.3 294.7 578.5 295C 578.1 295.1 577.4 294.6 576.9 293.8C 576.4 293.1 575.7 292.5 575.3 292.5C 574.9 292.4 573.1 291.7 571.4 290.7C 569.7 289.8 568 289.4 567.6 289.7C 567.3 290.1 566.4 289.6 565.7 288.6C 565 287.7 563.3 286.8 562 286.8C 560.6 286.7 559.2 286.1 558.8 285.6C 558.4 285 554.8 284.6 550.8 284.7C 546.8 284.8 543.1 284.6 542.7 284.3C 542.2 284 538.6 283.7 534.6 283.8C 511.6 283.8 490.7 292.5 474 309.2C 463.5 319.7 457.2 329.8 453.1 342.8C 452.1 345.7 451.1 348 450.8 347.8C 450.5 347.6 449.5 348.2 448.5 349C 446.8 350.4 446.7 350.3 447.2 346C 447.5 343.5 447.6 342.1 447.3 342.7C 447 343.4 446 344 444.9 344C 443.9 344 443 344.4 443 345C 443 345.5 442.3 346 441.4 346C 440.6 346 440.1 345.6 440.4 345.1C 441.1 344 437.5 344.7 434.3 346.2C 433.1 346.8 431.4 347 430.6 346.7C 429.8 346.4 428.8 346.5 428.4 347.1C 428.1 347.6 427 347.8 426 347.5C 424.9 347.2 424 347.5 423.6 348.5C 423.3 349.3 421.9 350 420.5 350C 418.8 350 418.1 349.6 418.6 348.8C 419 348.1 418.9 348 418.2 348.4C 417.5 348.8 417 349.9 416.9 350.8C 416.9 351.9 416.6 352 416.3 351.2C 416.1 350.6 415.1 350 414.2 350C 412.9 350 412.8 350.2 413.8 350.9C 414.8 351.5 414.6 351.9 412.9 352.3C 411.6 352.7 410.3 352.5 409.9 351.9C 409.5 351.2 408.8 351.3 407.9 352.2C 405.2 354.9 403 355.1 402.1 352.7C 401.5 351.1 401.1 352.2 400.5 357.5C 400 362.4 399.5 363.9 399 362.5C 398.2 360.6 398.2 360.6 397.1 363C 394.6 368.4 396.8 345 399.8 333C 404.7 314 411.6 300.3 425.3 283C 439.5 264.9 456.6 251.4 475 243.7C 484.7 239.6 486.4 239 488.6 239C 489.9 239 491 238.6 491 238.1C 491 237.2 494.5 236.5 504.3 235.4C 506.9 235.1 509 234.4 509 233.8C 509 232.8 545.6 232.9 547.4 233.9zM 555.7 233.6C 555.4 233.9 554.5 234 553.8 233.7C 553 233.4 553.3 233.1 554.4 233.1C 555.5 233 556.1 233.3 555.7 233.6zM 523.5 241C 523.8 241.5 523.6 242 523.1 242C 522.5 242 522 241.5 522 241C 522 240.4 522.2 240 522.4 240C 522.7 240 523.2 240.4 523.5 241zM 529.4 246.2C 528.7 247.4 526.4 244.9 526.3 242.8C 526.1 241.2 526.3 241.2 528 243.2C 529 244.5 529.6 245.8 529.4 246.2zM 534.5 247.7C 535 249.1 534.8 249.2 533.9 248.3C 533.3 247.7 532 247.4 531.1 247.7C 529.7 248.1 529.7 248 531 247.1C 533.1 245.6 533.7 245.7 534.5 247.7zM 535.8 252.2C 536.2 252 536.6 252.3 536.8 252.9C 537.4 254.6 534.9 254.2 532.8 252.3C 531.5 251.1 531 251 531 252C 531 252.7 530.8 253.1 530.5 252.8C 530.2 252.5 530.2 251.5 530.6 250.6C 531.2 249 531.4 249 533.2 250.7C 534.3 251.7 535.5 252.4 535.8 252.2zM 536 256C 536 256.5 535.5 257 534.9 257C 534.4 257 534.2 256.5 534.5 256C 534.8 255.4 535.3 255 535.6 255C 535.8 255 536 255.4 536 256zM 538.4 258.1C 538.1 258.7 538.7 259.9 539.9 260.9C 541.5 262.3 541.7 262.9 540.7 264C 539.8 265 539.8 265.1 540.8 264.6C 541.4 264.2 542 264.4 542 264.9C 542 265.5 541.6 266 541.1 266C 540.6 266 540.4 267.3 540.5 269C 540.7 270.9 540.3 272 539.4 272C 537.3 272 536.8 270.2 538.7 269.7C 540.2 269.4 540.1 269.1 538 268.2C 536.2 267.4 536 267.1 537.3 267.1C 539.1 267 539.8 264 537.9 264C 537.4 264 537.2 263.5 537.6 262.9C 538 262.2 537.7 261.9 536.9 262.2C 536.1 262.5 535 261.8 534.3 260.6C 533.6 259.4 533.1 259 533 259.6C 533 260.3 531.9 260.5 530.5 260.2C 527.5 259.7 526.5 258.4 528.1 257.4C 528.9 257 529 257.1 528.6 257.8C 528.1 258.6 528.6 259 529.9 259C 531.1 259 532 258.6 532 258C 532 257.4 532.9 257.4 534.5 258C 536.5 258.8 537 258.6 537 257.4C 537 256.6 537.5 256.2 538 256.5C 538.6 256.9 538.8 257.6 538.4 258.1zM 502 261C 500 262.3 498.7 262.3 499.5 261C 499.8 260.4 500.9 260 501.8 260C 503.3 260 503.3 260.2 502 261zM 502.5 268C 502.8 268.5 502.6 269 502.1 269C 501.5 269 501 268.5 501 268C 501 267.4 501.2 267 501.4 267C 501.7 267 502.2 267.4 502.5 268zM 510.1 268.7C 510.9 269.5 510.9 270 510.1 270.5C 509.5 270.8 509 270.8 509.1 270.3C 509.4 268.4 508.9 267.8 507.7 268.9C 506.7 269.7 506.3 269.6 506.3 268.6C 506.3 267 508.5 267.1 510.1 268.7zM 503.1 272C 504.1 272.6 505 273.6 505 274.3C 505 275.1 504.7 275.1 504.2 274.5C 503.8 273.9 502.4 272.9 501 272.3C 499.6 271.7 499.1 271.1 499.8 271.1C 500.5 271 502 271.5 503.1 272zM 536.7 274.5C 536.7 275.3 536.3 276 535.8 276C 534.8 276 534.7 274.6 535.7 273.7C 536.6 272.7 536.7 272.8 536.7 274.5zM 541.6 277.6C 541.7 278.5 541.6 278.9 541.2 278.6C 540.9 278.2 540.5 277.2 540.4 276.4C 540.3 275.5 540.4 275.1 540.8 275.4C 541.1 275.8 541.5 276.8 541.6 277.6zM 653.5 309C 654.4 310.6 654.7 312 654.2 312C 653.4 312 651 307.8 651 306.5C 651 305.2 652.1 306.3 653.5 309zM 657.2 318.5C 658.9 322.6 660.1 326.1 660.2 327C 660.2 327.3 660.7 328.6 661.2 330C 661.7 331.5 661.7 332.1 661.2 331.5C 660.7 330.9 658.9 326.5 657.1 321.5C 654 312.7 654.1 310.7 657.2 318.5zM 662.8 338.5C 662.8 340.1 662.6 340 662 338C 660.9 334.6 660.9 332 662 334.5C 662.5 335.6 662.8 337.4 662.8 338.5zM 548.4 344.3C 555.9 348.4 559.4 356.3 559.2 368.7C 559.1 376.1 556.8 383.4 553.2 387.3C 550.7 390.2 544.7 392.9 539.8 393.5C 537.5 393.8 536.1 393.7 536.8 393.4C 537.4 393.1 538 392.4 538 391.9C 538 391.3 537.6 391.1 537.2 391.4C 536.8 391.6 535.8 391.5 535 390.9C 533.8 390.2 533.9 390 535.5 390C 539.4 390 545 387.9 548 385.3C 552.4 381.7 554 377.8 554.7 370C 556.2 352.4 547.5 343.8 530 345.3C 521.4 346 517.8 347.6 525.5 347.3C 529.2 347.2 530.9 347.5 530.7 348.3C 530.6 349 531.1 349.4 531.8 349.2C 532.6 349.1 532.9 349.4 532.5 350C 532.2 350.6 531.5 350.8 531 350.5C 530.6 350.2 529.7 350.6 529.1 351.4C 528.2 352.5 528.5 352.7 531 352.5C 532.7 352.4 534.3 352.6 534.6 353.1C 534.9 353.6 535.6 353.8 536.1 353.5C 536.6 353.2 536.7 353.6 536.4 354.5C 536 355.5 536.3 355.9 537.1 355.7C 537.9 355.5 538.2 355.5 537.7 355.7C 537.3 356 537.3 356.6 537.6 357.2C 537.9 357.7 537.3 357.6 536.2 356.9C 535 356.2 534.2 355.3 534.3 354.9C 534.4 354.5 534.1 354.3 533.5 354.3C 533 354.4 532.6 354.9 532.8 355.3C 532.9 355.8 532.6 355.9 532 355.5C 531.4 355.2 531.3 354.3 531.6 353.7C 532 353 531.9 352.9 531.5 353.3C 529.8 354.8 530.3 356.6 532.4 356.8C 533.5 356.8 534.6 357.4 534.8 358C 535 358.5 536.2 359 537.4 359C 538.9 359 539.6 359.7 539.7 361C 539.8 362.1 539.5 362.8 539.1 362.5C 538.6 362.3 538.3 363 538.4 364.3C 538.5 365.9 538 366.4 536.8 366.2C 535.8 366 535 366.4 535 367C 535 367.5 535.3 367.9 535.8 367.9C 538 367.5 539.2 368.2 538.7 369.4C 538.4 370.2 538.8 371.4 539.6 372C 540.4 372.7 541 372.9 541 372.6C 541 372.2 541.9 372.4 543 373C 544.7 373.9 545 373.8 545 371.9C 545 370.1 545.2 370 546.5 371C 547.7 372 547.8 372.6 546.8 373.8C 545.9 374.9 545.9 375.2 546.7 374.7C 547.3 374.3 548.1 374.4 548.5 375C 548.8 375.5 548.3 376 547.4 376C 546 376 545.9 376.3 546.8 377.2C 547.7 378.1 547.7 378.7 546.7 379.9C 545.6 381.3 545.7 381.3 547.2 380.1C 548.2 379.4 548.7 378.4 548.4 377.9C 548.1 377.4 548.6 376.7 549.4 376.4C 550.6 375.9 550.7 375.4 549.9 373.9C 549 372.1 549.4 371.6 551.3 371.9C 552.5 372.1 552.1 371.4 549.8 369.4C 548.6 368.4 548 368 548.3 368.7C 549.4 370.5 547.4 371.2 546 369.5C 545.3 368.7 544.3 368.3 543.6 368.7C 543 369 542.8 368.9 543.3 368.5C 544.5 367.1 548.2 366.9 549.6 368.1C 550.6 368.9 551 368.9 551 368.1C 551 367.5 551.4 367 551.9 367C 552.4 367 552.6 368.5 552.4 370.2C 552.1 372 551.8 374.8 551.6 376.5C 551.4 378.1 551.2 379.9 551.1 380.3C 551.1 380.8 550.5 380.8 550 380.5C 549.4 380.1 549.1 380.4 549.2 381.2C 549.4 382.1 548.5 382.4 546.5 382.3C 544.9 382.2 544.3 382.4 545.3 382.7C 548.4 383.5 547 385.7 543.7 385.1C 543.2 385 543.1 385.4 543.4 385.9C 544.7 388 541 387.7 538.6 385.5C 537.3 384.3 535.8 383.5 535.5 383.9C 535.1 384.2 534.9 384 535 383.5C 535.5 381.3 534.9 380 533.5 380C 532.7 380 532 379.4 532 378.7C 532 376.9 524.6 370 522.6 370C 521.7 370 521 369.5 521 369C 521 368.4 520.3 368 519.5 368C 518.7 368 518 367.5 518 367C 518 366.4 517.1 366 516 366C 514.9 366 514 365.5 514 365C 514 364.4 513.4 364 512.6 364C 511.8 364 510.9 363.4 510.7 362.7C 510.4 362.1 510.1 363.5 510 366C 509.8 369.6 509.7 370 509.1 368C 508.6 366.3 508.2 365.9 507.6 366.8C 504.9 371.2 504.6 363.6 507.2 355.1C 508.6 350.5 514.4 344.4 518.7 342.9C 528.3 339.8 541.3 340.3 548.4 344.3zM 664.7 347.8C 664.8 351.9 664.7 352.1 664 349.5C 662.9 345.4 662.8 340.2 663.8 341.8C 664.3 342.4 664.7 345.1 664.7 347.8zM 629.4 346.5C 629.7 347.4 629.4 348 628.5 348C 627.6 348 627.3 347.4 627.6 346.5C 628 345.7 628.3 345 628.5 345C 628.7 345 629 345.7 629.4 346.5zM 539.5 349.6C 539.4 350.6 540.3 352.2 541.3 353.2C 542.3 354.1 542.7 355.1 542.2 355.4C 541.6 355.7 540.9 355.3 540.6 354.4C 540.3 353.6 539.6 353.1 539.2 353.4C 538.7 353.7 538.4 352.7 538.5 351.2C 538.6 349.7 538.2 348.1 537.6 347.7C 536.9 347.2 537.1 347 538 347.3C 538.8 347.5 539.5 348.5 539.5 349.6zM 667 360.7C 667 363.8 667.5 366 668.1 366C 668.6 366 668.9 366.4 668.5 366.9C 668.2 367.5 667.7 373 667.4 379.2C 667 385.4 666.4 390.9 665.9 391.4C 665.4 392 665 393.9 665 395.6C 665 397.4 664.6 399.2 664 399.5C 663.5 399.8 663 401.4 663 403.1C 663 406.6 660.8 414 659.8 414C 659.3 414 659 414.9 659 416C 659 418.4 655.1 427.2 653.6 428.2C 653 428.6 652.9 429 653.3 429C 654.6 429 646.4 442.7 641 449.4C 640.2 450.4 637.5 453.4 635 455.9C 632.5 458.4 630.6 460.8 630.7 461.2C 630.9 461.6 630.4 461.9 629.7 461.7C 629.1 461.6 628.6 462.1 628.7 462.7C 628.9 463.4 628.6 464 628.1 464C 627.6 464 624.4 466.7 621 470C 617.6 473.4 614.4 475.8 613.8 475.4C 613.2 475 613 475.1 613.3 475.7C 614 476.8 610.5 480.2 609.6 479.3C 609.3 478.9 609 479.1 609 479.7C 609 481 600.2 486.9 592.2 490.9C 580.3 496.9 570.2 500.1 555 502.6C 547.2 503.8 536 504.4 540.3 503.3C 541.4 503 541.9 502.2 541.6 501.4C 541.3 500.6 541.4 500.2 541.9 500.5C 542.4 500.8 543.1 500.6 543.4 500.1C 543.7 499.7 546.8 499 550.2 498.6C 562.6 497.2 578.3 492.6 590.3 486.7C 624.2 470.3 652.2 436.2 661.1 400.5C 663.1 392.2 665 375.1 665 364C 665 356.2 665.3 353 666 354C 666.5 354.8 667 357.9 667 360.7zM 548.7 356.7C 548.7 357.6 548.3 357.7 547.3 356.9C 546.6 356.3 546 355.7 546 355.5C 546 355.4 546.6 355.3 547.3 355.3C 548.1 355.3 548.7 355.9 548.7 356.7zM 548.4 359.2C 548.8 358.8 549 359 548.8 359.6C 548.7 360.3 549 360.7 549.5 360.6C 550.1 360.6 550.4 360.2 550.3 359.7C 550.1 359.3 550.5 359 551 359C 551.6 359 552 359.7 552 360.5C 552 361.3 551.5 362 550.9 362C 550.1 362 550.1 362.4 550.9 363.4C 551.7 364.4 551.8 365 551 365.5C 550.4 365.9 550.1 365.6 550.2 364.8C 550.4 364.1 549.9 363.6 549.3 363.7C 548.6 363.9 548.1 363.6 548.3 363.1C 548.4 362.6 548.1 362.2 547.5 362.2C 547 362.2 546.6 362.6 546.8 363.1C 547.1 364.3 544.3 364.2 543.5 363C 543.1 362.4 542.4 362.2 541.9 362.6C 541.3 363 541.3 363.7 542 364.5C 542.6 365.3 543 366.7 542.8 367.7C 542.6 368.7 543 369.4 543.7 369.3C 544.4 369.1 544.7 369.6 544.4 370.4C 543.8 372.1 540.4 372.1 540.2 370.5C 540.1 370 539.9 368.3 539.6 366.8C 539.4 365.1 539.9 363.4 541 362.2C 542.1 361.1 542.6 359.9 542.2 359.4C 541.8 359 542 359 542.7 359.4C 543.3 359.7 544.2 359.6 544.5 359C 545 358.2 545.6 358.2 546.4 358.9C 547.1 359.5 548 359.6 548.4 359.2zM 662.6 364.6C 662.7 365.5 662.6 365.9 662.2 365.6C 661.9 365.2 661.5 364.2 661.4 363.4C 661.3 362.5 661.4 362.1 661.8 362.4C 662.1 362.8 662.5 363.8 662.6 364.6zM 662.6 374.6C 662.8 375.8 662.6 376 661.7 375.1C 661.1 374.5 660.5 373.3 660.4 372.4C 660.2 371.2 660.4 371 661.3 371.9C 661.9 372.5 662.5 373.7 662.6 374.6zM 653.4 375.2C 654.4 379 654.1 379.8 652.1 379.3C 650.1 378.8 649.9 377.5 651.4 375.1C 652 374.1 651.9 373.9 651.2 374.4C 650.5 374.8 650 374.6 650 374.1C 650 372 652.8 373 653.4 375.2zM 655.5 384C 655.2 384.4 655.5 385 656.2 385.2C 656.9 385.5 657 385.9 656.5 386.2C 655.9 386.5 654.7 386 653.8 385.1C 652.2 383.5 652.2 383.4 654.1 383.3C 655.2 383.2 655.8 383.5 655.5 384zM 660.7 387.7C 660.8 389.3 660.6 389.9 660.3 389.2C 660.1 388.6 659.4 388.2 658.9 388.6C 657.6 389.3 658.2 386.7 659.5 385.8C 660.1 385.4 660.5 385 660.5 385C 660.5 385 660.6 386.2 660.7 387.7zM 659.4 395.8C 659.7 396.3 659.3 396.7 658.5 396.7C 657.7 396.7 657.3 396.3 657.6 395.8C 657.9 395.4 658.3 395 658.5 395C 658.7 395 659.1 395.4 659.4 395.8zM 659 399C 659 399.5 658.6 400 658 400C 657.5 400 657 399.5 657 399C 657 398.4 657.5 398 658 398C 658.6 398 659 398.4 659 399zM 657.1 402.9C 656.5 403.9 656.4 405 656.7 405.4C 657 405.7 656.8 406 656.1 406C 655.3 406 655.2 406.5 656 407.9C 657.1 410 656.5 410.7 654 410.5C 653.2 410.5 652.6 409.8 652.8 409.1C 652.9 408.4 652.6 408.1 652 408.5C 650.5 409.4 649.6 406.2 651 404.6C 651.6 403.8 653 403.3 654 403.5C 655 403.7 656.1 403.2 656.4 402.4C 656.7 401.6 657.2 401 657.5 401C 657.8 401 657.6 401.8 657.1 402.9zM 654.3 411.3C 654.7 411 655 411.8 655 413.1C 654.9 415.3 654.8 415.3 653.9 413.7C 653.2 412.4 652.5 412.2 651.6 412.9C 650.7 413.6 650.4 413.2 650.2 411.3C 650 408.8 650.1 408.8 651.8 410.3C 652.8 411.3 654 411.7 654.3 411.3zM 347.4 444.5C 347 445.3 346.4 446 345.8 446C 345.3 446 345.2 446.5 345.6 447.1C 345.9 447.7 345.6 448.7 344.9 449.2C 343.9 449.8 344.3 449.9 346 449.5C 347.6 449 337.4 460 317.3 480.1C 292.6 504.9 285.8 511.2 284.8 510.2C 283.9 509.3 284 509 285.4 509C 286.3 509 286.8 508.6 286.5 508C 285.8 506.8 294.1 497.9 295.2 498.6C 295.7 498.9 296 498.8 295.9 498.3C 295.5 496 296.1 494.8 297.6 495.4C 298.4 495.7 298.9 495.6 298.5 495.1C 297.8 493.9 302.9 487.8 304.1 488.6C 304.6 488.9 304.9 488.6 304.8 487.8C 304.6 487.1 305.3 486.6 306.2 486.6C 307.2 486.7 307.6 486.2 307.3 485.4C 307 484.5 314.5 476.2 327.1 463.5C 338.2 452.2 347.5 443 347.7 443C 347.8 443 347.7 443.7 347.4 444.5zM 341.8 461.7C 342.4 463.3 342.8 465.2 342.8 466C 342.7 468.3 343.4 470.4 344.5 471.2C 345.1 471.7 345 472 344.1 472C 343.2 472 343.1 472.4 343.8 473.2C 345.2 474.9 345.6 478.2 344.7 479.7C 344.2 480.5 344.4 481 345.4 481C 346.3 481 346.7 481.7 346.5 483C 346.3 484.1 346.8 485.6 347.6 486.4C 348.3 487.2 349.1 488.7 349.3 489.7C 349.5 490.7 350.4 492.9 351.3 494.6C 352.2 496.3 352.6 498 352.3 498.4C 351.9 498.7 352.2 499 352.9 499C 353.6 499 353.8 499.4 353.5 500C 353.2 500.5 353.3 501 353.9 501C 354.4 501 354.7 501.8 354.5 502.7C 354.3 503.7 354.1 504.9 354.1 505.4C 354 505.8 353.3 506 352.5 505.6C 351.7 505.3 351 505.5 351 506C 351 507.9 353.7 506.9 356.5 504C 359.9 500.4 360.6 500.3 361.3 503.2C 361.8 505 358.9 508.2 344.8 521.9C 335.5 531 326.9 538.8 325.9 539.2C 324.9 539.6 324 540.4 324 541.1C 324 542.3 318.3 548 317.7 547.4C 317.5 547.2 314.4 550.2 310.9 554.2C 307.4 558.2 299.9 566 294.2 571.6C 282.6 582.8 283.4 581 283.1 598.3C 283.1 602.8 282.6 605.9 282.1 605.5C 281.6 605.2 280.9 605.8 280.7 606.7C 280.4 607.7 280.1 605.3 280 601.5C 279.8 596.1 279.6 595.3 279.1 598C 278.6 601.2 276 603.5 276 600.9C 276 600.2 275 600 273.6 600.4C 271.5 600.9 270.8 600.5 269.4 597.5C 267.6 593.6 266.5 592.8 267.6 596.2C 268.2 598.1 268.1 598.3 266.8 597.3C 265.9 596.5 265.5 594.9 265.7 593.3C 266.1 590.9 265.6 590.3 262.8 589L 259.5 587.6L 262 586.9C 264 586.3 263.7 586.2 260.4 586.1C 257.7 586 256 585.5 255.6 584.5C 255.3 583.7 255.5 583.1 256 583.3C 256.5 583.4 257.5 582.6 258.3 581.6C 259.6 579.8 259.7 579.8 259.6 582C 259.5 583.3 260.1 584.4 260.8 584.6C 261.6 584.7 261.6 584.6 260.9 584.3C 260.1 583.9 260.2 583.5 261.1 582.9C 262.2 582.2 262.2 582 261.2 582C 260.5 582 260.2 581.5 260.5 581C 261 580.2 261.6 580.3 262.6 581.1C 263.6 581.9 264 581.9 264 581.1C 264 580.5 263.6 580 263 580C 262.5 580 262.3 579.4 262.6 578.6C 263.2 577 260.4 575.6 259.5 577C 259.1 577.6 259.7 578 260.6 578C 262.9 578 261.5 579.3 258.7 579.7C 257.5 579.9 256.3 580.5 256.1 581.1C 255.5 582.9 253.3 578.8 253.8 576.8C 254.2 575.3 254.5 575.2 255.8 576.2C 256.8 577 257.1 577.1 256.7 576.3C 256.3 575.7 256.5 573.9 257 572.4C 257.8 570.4 257.8 569.4 256.9 568.6C 256 567.8 255.9 567.8 256.4 568.7C 256.8 569.4 256.6 570 256 570C 255.3 570 255.1 569.3 255.4 568.3C 255.8 567.4 255.5 566.3 254.8 565.8C 253.9 565.3 254 565 255.4 565C 256.9 565 257 564.7 256 563.5C 254.7 562 255.7 561.4 258.5 562C 259.1 562.1 258.9 561.6 258.3 560.9C 256.7 559.3 256.6 556.3 258.2 555.4C 258.8 555 259 555.1 258.7 555.7C 258.3 556.3 258.6 557.3 259.4 557.9C 260.4 558.8 261 558.6 262 557.5C 262.8 556.6 262.9 556 262.4 556.2C 261.9 556.4 261.5 556 261.5 555.5C 261.5 555 261.8 554.6 262.2 554.7C 262.6 554.9 262.7 554.4 262.4 553.6C 262 552.6 262.9 552.1 265.4 551.8C 267.4 551.6 269 551.8 269 552.2C 269 552.6 269.4 553 270 553C 271.5 553 270 550.2 268.2 549.7C 267.2 549.5 267.6 549.3 269 549.3C 270.4 549.3 272.4 549.2 273.5 549.1L 275.5 548.9L 273.5 548C 271.6 547.2 271.6 547.1 273.7 547.1C 275 547 276.1 547.8 276.5 549C 276.8 550.1 277.6 551 278.1 551C 278.7 551 278.7 550.3 278 549.1C 276.7 546.6 276.7 546.3 278.4 546.3C 279.2 546.3 279.6 546.9 279.3 547.7C 278.6 549.4 283.1 549.5 284.8 547.8C 285.7 546.9 286 546.9 286 547.8C 286 548.5 286.7 549 287.5 549C 288.4 549 289 549.9 289 551.2C 289 552.9 289.3 553.1 289.9 552.1C 290.4 551.3 291.3 551.1 292 551.5C 292.8 552 293.9 551.6 294.8 550.4C 296.1 548.6 296.2 548.6 295.5 550.7C 295.1 552.1 295.3 553 295.9 553C 296.5 553 297 552.4 297 551.6C 297 549.1 298.9 548.8 300.7 550.9C 301.6 552 302.7 552.7 303.2 552.4C 305.1 551.2 302.4 555.8 299.1 559.4C 297 561.6 296.3 562.8 297.5 562.2C 300.6 560.6 352.7 508 351.2 508C 350.5 508 349.7 508.7 349.3 509.6C 349 510.4 348.1 510.9 347.4 510.6C 346.6 510.3 346 510.5 346 511.1C 346 511.7 345.6 511.9 345.2 511.6C 344.7 511.3 343.7 512.2 343 513.5C 341.6 516 338.5 517.1 339.3 514.7C 339.5 514.1 340.2 513.5 340.7 513.5C 341.3 513.5 342.2 513.2 342.6 512.8C 342.9 512.4 342.3 512.2 341.2 512.5C 340 512.7 338.8 512.5 338.5 512C 338.2 511.5 337.2 511.4 336.4 511.7C 335 512.2 334.9 512 335.9 510.2C 336.9 508.4 336.7 507.8 334.6 506.5C 332.9 505.4 331.3 505.1 329.8 505.6C 328.5 506 327.2 506.5 326.8 506.6C 326.3 506.7 325.9 506.8 325.8 507C 324.9 507.6 322.1 507.7 322.5 507C 322.8 506.5 322.6 506 322.1 505.8C 321.6 505.7 321.8 504.9 322.6 504.2C 323.8 503.1 324 503.3 324 505.1C 324 507.3 324 507.3 326.1 505.4C 327.3 504.4 329.2 503.6 330.4 503.8C 331.9 504 332.1 503.8 331.1 503.2C 330.2 502.5 330.1 502 330.9 501.6C 331.5 501.2 332.4 501.9 332.9 503.2C 333.7 505.3 333.8 505.3 333.8 502.4C 333.7 499.9 333.4 499.4 331.9 499.7C 330.8 500 330 499.7 330 499.1C 330 498.5 329.3 498 328.5 498C 326.8 498 326.5 499.1 328 500.6C 328.6 501.2 328.1 501.6 326.5 501.8C 324.9 501.9 324 501.5 324 500.6C 324 499.8 323.8 498.6 323.7 497.8C 323.5 497.1 323.5 496.8 323.7 497.2C 324.5 498.6 327 498 327 496.5C 327 495.2 329.6 494.4 332.3 494.9C 332.8 495 332.9 494.6 332.6 494.1C 332.3 493.6 331.1 493.4 330.1 493.7C 328 494.2 326.4 492.5 328 491.5C 329.5 490.6 329.2 488 327.7 488C 327 488 325.5 487.3 324.4 486.5C 323 485.4 322.9 485 324 485.2C 324.9 485.4 325.5 485.2 325.5 484.9C 325.5 484.5 326.3 483.3 327.3 482.3C 328.7 480.7 328.7 480.3 327.5 480.3C 326.7 480.3 326.3 480.7 326.5 481.1C 326.8 481.4 326.4 482.3 325.6 482.9C 324.5 483.8 324.3 483.5 324.5 481C 324.8 477.6 323.1 477 320.9 479.7C 319.7 481.2 319.7 481.3 321.3 480.7C 322.2 480.3 323 480.5 323 481.1C 323 481.8 322 482 320.8 481.7C 318.7 481.1 318.6 481.2 320.3 482.4C 321.3 483.2 322.2 484.7 322.3 485.9C 322.4 487.3 323.3 488.1 325.2 488.5C 326.7 488.9 328 489.5 328 490C 328 490.4 327.1 490.6 326 490.3C 323.7 489.7 323.3 491.8 325.3 493.9C 326.3 494.9 326.1 495.1 324.6 494.8C 323.5 494.7 322.6 493.7 322.4 492.6C 322.3 491.6 321.6 490.2 320.9 489.6C 320.1 488.9 319.9 488.9 320.3 489.6C 320.6 490.2 320.3 490.7 319.5 490.7C 318.4 490.7 318.3 490.3 319.1 489.4C 319.7 488.7 319.9 487.6 319.5 487C 319.2 486.5 319.5 486 320.2 486C 321.2 486 321.1 485.7 320 485.1C 318.2 483.9 316.7 484.7 317.7 486.3C 318.1 487 317.6 486.9 316.7 486.1C 315 484.8 315.2 483.5 317.1 483.5C 317.6 483.5 317.9 483.2 317.8 482.8C 317.3 481.7 322.2 477 323.7 477C 324.5 477 324.9 476.6 324.5 476.1C 324.2 475.6 324.9 474.9 326 474.5C 327.1 474.1 327.8 473.5 327.5 473.1C 327.3 472.6 328.3 471.1 329.9 469.7C 332.1 467.7 333.1 467.4 334.1 468.3C 335.2 469.3 335.2 469.2 334.1 467.8C 333 466.3 333.3 465.6 336.2 462.7C 338 460.8 339.8 459.2 340.1 459.1C 340.5 459.1 341.2 460.2 341.8 461.7zM 555.7 475.5C 555.7 476.3 555.3 476.7 554.8 476.4C 554.3 476.1 554.2 475.4 554.5 474.9C 555.4 473.6 555.7 473.8 555.7 475.5zM 589.7 483C 589.6 485.1 588.7 484.8 588.4 482.5C 588.3 481.7 588.6 481 589 481C 589.5 481 589.8 481.9 589.7 483zM 320.4 494.6C 320.7 495.4 320.6 495.8 320 495.5C 319.4 495.2 319 494.5 319 493.9C 319 492.5 319.7 492.8 320.4 494.6zM 331.3 507.9C 331.6 507.1 331.9 507.5 331.9 508.8C 332 510.1 331.6 510.8 331 510.5C 330.5 510.2 330 510.3 330 510.8C 330 511.3 331 512.1 332.3 512.5C 334.5 513.2 335.1 513.2 336.9 512.7C 337.4 512.6 337.8 512.9 337.9 513.5C 338 514 337.4 514.5 336.8 514.5C 336.1 514.6 335.7 515.2 335.9 516C 336.1 516.8 336.2 518.1 336.1 518.7C 336.1 519.4 335.9 520.7 335.8 521.5C 335.7 522.3 335.2 523 334.7 523C 334.2 523 334 522.3 334.4 521.5C 334.7 520.6 334.4 520 333.5 520C 332.1 520 331.6 518.8 331.9 516.7C 331.9 516.3 331.6 516 331 516C 330.5 516 330.1 515.7 330.1 515.2C 330.4 513.4 329.9 512 328.3 510.5C 327 509.1 326.9 508.7 328.1 508C 328.9 507.5 329.7 507.5 330.1 508.2C 330.5 508.9 330.9 508.8 331.3 507.9zM 335 509.4C 335 509.7 334.6 510.2 334 510.5C 333.5 510.8 333 510.6 333 510.1C 333 509.5 333.5 509 334 509C 334.6 509 335 509.2 335 509.4zM 285 511.8C 285 512.2 281.7 515.8 277.6 519.8C 272 525.3 270.1 526.6 269.6 525.5C 269.3 524.6 269.4 524.1 269.9 524.4C 270.4 524.7 273.6 521.8 277.1 518C 283.2 511.5 285 510 285 511.8zM 268 529.5C 267.3 530.4 266.5 530.8 266.3 530.6C 265.6 529.9 267 528 268.2 528C 268.8 528 268.8 528.6 268 529.5zM 261.6 535.4C 259.6 537.4 258 538.7 258 538.3C 258 537.3 264.3 531 264.8 531.5C 265.1 531.7 263.6 533.5 261.6 535.4zM 257 539.3C 257 539.5 256 540.5 254.8 541.6L 252.5 543.5L 254.4 541.2C 256.2 539.1 257 538.5 257 539.3zM 398.9 540.6C 399.7 540.1 400 541.7 400.1 545.7C 400.1 550.4 400.3 551 401.1 549.1C 401.8 547.4 402.4 547 403.3 547.8C 403.9 548.3 406.2 549.3 408.4 550C 410.8 550.8 411.8 551.5 411 552C 410.3 552.4 411.6 552.6 413.9 552.5C 416.2 552.4 418.4 552.8 419 553.5C 419.6 554.2 420.9 554.7 421.8 554.5C 422.7 554.4 424.4 554.8 425.5 555.5C 426.6 556.2 430.2 557 433.5 557.4C 436.8 557.7 440.4 558.1 441.5 558.3C 443.3 558.5 443.5 559.2 443.3 565.9C 443.1 570 442.5 573.9 442 574.6C 441.2 575.5 441.3 576.1 442.2 576.6C 443.1 577.2 442.6 577.6 440.5 578C 438.1 578.4 437.5 579 437.5 580.9C 437.5 582.5 436.9 583.4 435.7 583.6C 434.6 583.7 434.1 583.6 434.4 583.3C 434.7 582.9 434.5 582.1 433.9 581.4C 432.9 580.2 434.3 578.6 436.4 578.5C 437.9 578.5 438.3 576 436.8 576C 435.8 576 435.9 575.7 437 575C 438.1 574.3 438.1 574 437.2 574C 436.5 574 436.2 573.5 436.5 573C 436.9 572.4 437.7 572.3 438.3 572.6C 439 573 439.2 573 438.8 572.5C 438.4 572.1 438.6 571 439.2 570.1C 440.2 568.8 440.2 568.7 439.1 569.7C 438.4 570.3 437 570.6 436.1 570.3C 434.7 569.9 434.7 570 436 570.9C 437.4 571.9 436.7 572.5 434.6 572.1C 434.1 572 434.2 572.5 434.8 573.3C 435.7 574.4 435.5 575.1 433.8 576.6C 432.6 577.6 432 577.9 432.4 577.2C 432.8 576.5 432.5 576 431.5 576C 430.6 576 430.1 576.4 430.4 576.8C 430.7 577.3 429.9 577.6 428.6 577.6C 425.9 577.4 422.8 575.2 423.5 574C 423.8 573.5 423.2 573.3 422.3 573.5C 421.3 573.6 419.9 573.2 419.1 572.6C 417.9 571.7 417.8 571.8 418.4 572.8C 419 573.8 418.6 574.1 416.9 573.8C 415.3 573.6 414.6 574 414.8 574.8C 414.9 575.6 414.6 575.9 414.1 575.5C 413.5 575.2 413.3 574.3 413.7 573.5C 414.4 571.6 411 571.5 409.1 573.2C 408 574.3 407.9 574.2 408.5 573.1C 409.1 572.1 408.9 571.9 408.1 572.5C 407.4 572.9 407 574 407.3 574.9C 407.7 576.6 407.2 576.7 402.9 576.1C 402.6 576 402.3 575.4 402.3 574.6C 402.3 573.8 403.1 573.3 404.1 573.5C 406.7 574 407.3 572.5 405.3 570.9C 403.9 569.7 403.7 569.7 404.5 571C 405.3 572.3 405.2 572.3 403.6 571.1C 402.4 570.1 402.2 569.4 403 568.6C 404.9 566.7 404 566 401.5 567.6C 398.7 569.4 398 568.4 400.7 566.5C 402.8 564.9 403.2 562.4 401.4 560.9C 400.3 560 400 560.3 400 562.6L 400 565.5L 372.5 565.2L 345 564.9L 345 592.5C 345 607.6 344.6 620 344.2 620C 343.7 620 343.3 613.2 343.2 604.9C 343.1 596.6 342.5 589 342 588C 340.7 585.6 340.7 584 342 586C 342.6 586.9 343 587 343 586.3C 343 585.7 342.6 584.9 342.2 584.6C 341.8 584.4 341.3 578.9 341.1 572.6L 340.8 561L 343.7 561C 345.3 561 347.2 561.6 347.9 562.2C 349 563.2 349.1 563.2 348.6 562.3C 348.1 561.3 353.2 561 371.7 560.8L 395.5 560.5L 395.3 554C 395 545.7 395.9 538.2 397 540C 397.4 540.7 398.3 540.9 398.9 540.6zM 504.6 551.5C 504.3 553.7 504.1 556.5 504.1 557.7L 504 560L 476.5 560L 449 560L 449 582.8C 449 595.4 448.7 606 448.3 606.4C 447.8 606.8 447.5 608.4 447.5 609.8C 447.4 612.1 447 612.5 444.1 612.8C 441.9 613 441 612.8 441.5 612.1C 441.8 611.5 441.6 611 441.1 611C 440.5 611 440 611.4 440 612C 440 612.5 438.8 613 437.4 613C 436 613 435.1 612.6 435.5 612C 435.8 611.4 435.2 611 434.1 611C 433 611 431.8 611.4 431.5 612C 431.2 612.5 430.4 613 429.9 613C 429.3 613 429.2 612.4 429.6 611.7C 430.2 610.8 430 610.8 428.9 611.6C 427 613 405.6 613.4 406.5 612C 406.8 611.5 406.4 611 405.6 611C 404.7 611 404 611.5 404 612.1C 404 612.7 403.5 612.8 402.8 612.3C 400.9 611.2 399 611.1 399 612.1C 399 612.6 398.5 613 397.9 613C 397.4 613 397.1 612.6 397.4 612.2C 397.7 611.7 397.3 611.3 396.5 611.3C 395.7 611.3 395.3 611.7 395.5 612.1C 395.8 612.4 395.1 613 393.9 613.3C 392.2 613.8 392.1 613.6 393.1 612.2C 394.1 610.8 394 610.9 392.4 612.3C 390.9 613.7 390.8 614.2 391.9 614.9C 392.8 615.5 392.9 616.3 392.2 617.6C 391.7 618.7 391.5 620 391.7 620.7C 391.9 621.3 391.6 622.1 391.1 622.5C 390.4 622.9 390 620.9 390 616.6L 390 610L 417.6 610L 445.1 610L 445 585.7C 444.9 572.4 444.9 560 444.9 558.2L 445 555L 472.5 555L 500 555L 500 548C 500 542.2 500.3 541.2 501.5 541.6C 502.4 542 503 541.6 503.1 540.9C 503.2 540.1 503.6 541.3 504.2 543.5C 504.7 545.7 504.9 549.3 504.6 551.5zM 284 547.2C 284 547.7 283.3 548 282.5 548C 281 548 280.5 545.9 281.7 544.7C 282.4 544 284 545.8 284 547.2zM 293.8 548.8C 293.9 550.2 293.7 551 293.3 550.6C 292.8 550.2 292.5 549.3 292.5 548.7C 292.4 548 291.8 547.6 291.1 547.8C 290.4 547.9 290.1 547.7 290.4 547.2C 291.5 545.4 293.6 546.4 293.8 548.8zM 247.8 549C 247.1 550.1 246.1 551 245.6 551C 245.1 551 245.5 550.1 246.5 549C 247.5 547.9 248.5 547 248.7 547C 248.9 547 248.5 547.9 247.8 549zM 498.8 550.7C 498.5 553.2 498.1 553.4 493.7 553.7C 488.1 554.1 487.8 552.7 492.6 549.9C 497.1 547.2 499.2 547.5 498.8 550.7zM 240.4 556.5C 238.4 559 236.4 561 235.9 561C 235.4 561 235 583.7 235 613L 235 665L 286.8 664.9C 324.7 664.8 337.4 664.5 334.2 663.7C 331.2 663 330.1 662.3 330.4 661.3C 330.8 660.5 330.5 660.2 329.9 660.6C 329.2 661 328.9 660.3 329.1 658.9C 329.2 657.6 329 655.7 328.6 654.7C 327.2 650.8 327.1 650 328.3 650.3C 329 650.4 329.4 649.9 329.2 649.2C 329.1 648.5 329.6 647.2 330.5 646.4C 331.3 645.5 332 644.2 332 643.3C 332 641.6 336.8 637 338.6 637C 339.2 637 340.3 636.3 341 635.5C 342.4 633.9 346.6 634.2 346.3 635.9C 345.9 637.5 346.5 637.3 348.1 635.3C 349.3 633.9 349.3 633.7 348.1 634.5C 347.1 635 346.9 634.9 347.4 634.1C 347.8 633.5 350 633.1 352.5 633.2C 354.8 633.4 356.6 633.8 356.3 634.2C 356.1 634.7 356.4 635 356.9 635C 357.5 635 358 634.5 358 633.8C 358 633.1 358.6 633.3 359.8 634.2C 360.7 635.1 362.2 635.6 363.1 635.5C 364 635.3 364.7 635.8 364.7 636.6C 364.7 637.6 364.3 637.7 363.3 636.8C 362.2 636 362.1 636.1 362.6 637.4C 363.2 638.9 364.3 639.4 366.2 639.1C 366.6 639.1 366.7 639.7 366.4 640.5C 366 641.3 366.3 642 367 642C 367.7 642 368 642.8 367.7 644C 367.4 645.1 367.6 646 368.1 646C 368.6 646 369 646.9 369 648.1C 369 649.3 369.4 649.8 370.1 649.4C 370.7 649.1 370.4 649.9 369.5 651.4C 368.5 652.9 368.2 654 368.9 654C 369.6 654 369.6 654.8 368.9 656.7C 368.3 658.3 367.9 659.6 367.9 659.7C 368.3 660.9 367.9 662.2 367.3 661.7C 367 661.3 366 661.6 365.1 662.4C 364.2 663.2 362.4 664 361 664.3C 359.6 664.5 365.7 664.8 374.5 665C 385.9 665.2 389.1 665.5 385.5 666C 382.8 666.4 380.2 666.5 379.8 666.3C 379.4 666.1 375.3 666.6 370.8 667.5C 361.6 669.2 320 669.6 320 667.9C 320 666.6 304.6 667 303.8 668.3C 303.2 669.2 303 669.2 303 668.2C 303 667.6 302.5 667 301.9 667C 301.4 667 301.2 667.5 301.6 668.1C 302 668.9 301.6 668.9 300.1 668.1C 299 667.4 298 667.3 298 667.8C 298 669 291.6 668.9 290.7 667.6C 290.1 666.8 289.7 666.9 289.3 667.7C 289 668.7 288.3 668.7 286.8 667.9C 285.5 667.2 285 667.2 285.4 667.8C 286.3 669.2 281.7 668.9 280.8 667.5C 280.3 666.9 280 666.9 280 667.7C 280 668.4 279 668.9 277.8 668.9C 276.5 668.8 265.3 669.1 252.7 669.5L 230 670.3L 230.4 665.9C 230.7 663.4 231 653 231.1 642.7C 231.3 629.8 231.7 624.3 232.4 624.7C 233 625.1 232.9 624.7 232.2 623.8C 230.8 622.1 231.1 610.2 232.6 606.6C 233.1 605.2 233 604.9 232.2 605.4C 230.9 606.2 231 602.6 232.3 601.4C 232.7 601 232.4 600 231.7 599.2C 230.8 597.9 230.8 597.8 231.8 598.4C 233.3 599.3 233.3 598.5 231.9 595.8C 231.1 594.3 231.1 593.9 231.9 594.4C 232.6 594.9 233 593.5 233.1 590.3C 233.1 587.7 233.2 580.3 233.3 573.9L 233.5 562.3L 238.5 557.1C 241.2 554.3 243.6 552 243.8 552C 244 552 242.5 554 240.4 556.5zM 398 568C 398 568.5 397.8 569 397.6 569C 397.3 569 396.8 568.5 396.5 568C 396.2 567.4 396.4 567 396.9 567C 397.5 567 398 567.4 398 568zM 396.4 570.9C 396.7 571.4 396.3 572.3 395.6 572.9C 394.4 573.9 394.2 573.8 394.5 572.3C 394.7 571.3 394.9 570.4 394.9 570.2C 395.1 569.7 395.9 570 396.4 570.9zM 423.5 575.9C 423.8 576.4 423.5 577.2 422.9 577.6C 422.2 578 422 577.9 422.4 577.2C 422.7 576.7 422.4 575.9 421.8 575.7C 420.9 575.3 420.8 575.1 421.7 575.1C 422.3 575 423.1 575.4 423.5 575.9zM 420.6 580.6C 420.7 581.5 420.5 581.9 420.2 581.5C 419.8 581.1 419.5 580.5 419.5 580.2C 419.5 579.8 419.1 578.8 418.6 578C 417.9 576.8 418 576.7 419 577.7C 419.8 578.4 420.5 579.7 420.6 580.6zM 417 578.4C 417 578.7 416.6 579.2 416 579.5C 415.5 579.8 415 579.6 415 579.1C 415 578.5 415.5 578 416 578C 416.6 578 417 578.2 417 578.4zM 408 579.4C 408 579.7 407.6 580.2 407 580.5C 406.5 580.8 406 580.6 406 580.1C 406 579.5 406.5 579 407 579C 407.6 579 408 579.2 408 579.4zM 425.9 580.7C 425.5 582.9 426.2 583.1 428.1 581.4C 429.6 580 430.1 579.9 429.8 581C 429.6 581.8 430.1 582.4 430.8 582.2C 431.4 582.1 432 582.4 432 583C 432 584.3 430.3 584.3 429.5 583C 428.6 581.6 426.8 582.9 427.7 584.3C 428 585 427.4 584.7 426.2 583.6C 425 582.6 424.3 581.3 424.6 580.9C 425.2 579.8 426 579.7 425.9 580.7zM 442.6 584.2C 442.6 585.2 442.5 586 442.5 586C 442.5 586 441.7 585.1 440.8 584.1C 439.2 582.3 439.3 582.1 440.9 582.3C 441.8 582.3 442.6 583.2 442.6 584.2zM 264.7 592.5C 264.7 593.3 264.3 593.7 263.8 593.4C 263.4 593.1 263 592.5 263 591.9C 263 591.4 263.4 591 263.8 591C 264.3 591 264.7 591.7 264.7 592.5zM 281.4 618.6C 281.7 619.4 281.6 619.8 281 619.5C 280.4 619.2 280 618.5 280 617.9C 280 616.5 280.7 616.8 281.4 618.6zM 390.7 636.2C 390.5 638.6 390.3 636.7 390.3 632C 390.3 627.3 390.5 625.4 390.7 627.7C 390.9 630.1 390.9 633.9 390.7 636.2zM 390.7 643.2C 390.4 644 390.1 643.7 390.1 642.6C 390 641.5 390.3 640.9 390.6 641.3C 390.9 641.6 391 642.5 390.7 643.2zM 390.7 649.7C 390.4 650.7 390.2 649.9 390.2 648C 390.2 646.1 390.4 645.3 390.7 646.2C 390.9 647.2 390.9 648.8 390.7 649.7zM 833 829C 833 829.5 832.6 830 832 830C 831.5 830 831 829.5 831 829C 831 828.4 831.5 828 832 828C 832.6 828 833 828.4 833 829zM 854.5 832C 854.8 832.5 854.4 833 853.5 833C 852.6 833 852.2 832.5 852.5 832C 852.8 831.4 853.3 831 853.5 831C 853.7 831 854.2 831.4 854.5 832z"/>
<path style="stroke:none; fill:#000000" d="M 24 31.5C 24 32.3 24.7 33 25.5 33C 26.3 33 27 32.3 27 31.5C 27 30.7 26.3 30 25.5 30C 24.7 30 24 30.7 24 31.5z"/>
<path style="stroke:none; fill:#000000" d="M 60 31.5C 60 32.3 60.5 33 61 33C 61.6 33 62 32.3 62 31.5C 62 30.7 61.6 30 61 30C 60.5 30 60 30.7 60 31.5z"/>
<path style="stroke:none; fill:#000000" d="M 492.6 261.1C 492.9 261.6 493.8 262 494.7 262C 496.6 262 495.6 260.7 493.5 260.4C 492.7 260.3 492.2 260.6 492.6 261.1z"/>
<path style="stroke:none; fill:#000000" d="M 494.5 263.9C 494.2 264.4 494.4 265.1 495 265.5C 495.5 265.8 496 265.4 496 264.6C 496 262.8 495.4 262.5 494.5 263.9z"/>
<path style="stroke:none; fill:#000000" d="M 429 285C 427.8 286.6 427.1 288 427.4 288C 427.6 288 428.8 286.6 430 285C 431.2 283.3 431.9 282 431.6 282C 431.4 282 430.2 283.3 429 285z"/>
<path style="stroke:none; fill:#000000" d="M 420.4 297C 415.5 304.6 408.5 318.9 409.3 319.7C 409.6 319.9 410.6 318.1 411.5 315.6C 412.5 313.1 413.6 311.3 414.1 311.6C 414.6 311.9 415 311.5 415 310.8C 415 308.8 421.1 297 422.2 297C 422.7 297 422.9 296.6 422.6 296.2C 422.3 295.7 423 294.3 424.1 293.1C 425.3 291.9 426 290.6 425.7 290.3C 425.4 290 423 293 420.4 297z"/>
<path style="stroke:none; fill:#000000" d="M 407.5 323C 407.1 324.2 407 325.4 407.3 325.7C 407.6 325.9 408.1 325.2 408.5 324C 408.9 322.8 409 321.6 408.7 321.3C 408.4 321.1 407.9 321.8 407.5 323z"/>
<path style="stroke:none; fill:#000000" d="M 405.1 331.6C 405.1 332.7 405.4 333 405.7 332.2C 406 331.5 405.9 330.6 405.6 330.3C 405.3 329.9 405 330.5 405.1 331.6z"/>
<path style="stroke:none; fill:#000000" d="M 403.1 339.6C 403.1 340.7 403.4 341 403.7 340.2C 404 339.5 403.9 338.6 403.6 338.3C 403.3 337.9 403 338.5 403.1 339.6z"/>
<path style="stroke:none; fill:#000000" d="M 628 352.5C 627 353.7 627.1 354 628.7 354C 629.8 354 630.7 353.3 630.7 352.5C 630.7 351.7 630.3 351 630 351C 629.6 351 628.7 351.7 628 352.5z"/>
<path style="stroke:none; fill:#000000" d="M 640 357.5C 640 359.5 641.7 360.3 643.6 359.2C 645.3 358.3 644.9 357.8 641.8 356.7C 640.6 356.3 640 356.6 640 357.5z"/>
<path style="stroke:none; fill:#000000" d="M 630.8 360.7C 631.5 361 632.4 360.9 632.7 360.6C 633.1 360.3 632.5 360 631.4 360.1C 630.3 360.1 630 360.4 630.8 360.7z"/>
<path style="stroke:none; fill:#000000" d="M 633.6 362.8C 633.3 363.3 633.7 363.7 634.5 363.7C 635.3 363.7 635.7 363.3 635.4 362.8C 635.1 362.4 634.7 362 634.5 362C 634.3 362 633.9 362.4 633.6 362.8z"/>
<path style="stroke:none; fill:#000000" d="M 641.8 363.8C 641.5 364.9 641.8 365.7 642.5 365.7C 643.2 365.7 643.7 365.1 643.6 364.4C 643.3 362.1 642.3 361.8 641.8 363.8z"/>
<path style="stroke:none; fill:#000000" d="M 619.8 372.5C 619.5 377.4 619.3 381.6 619.4 381.8C 619.6 381.9 620.1 381.5 620.6 380.8C 621.1 380.1 621.3 375.9 621 371.5L 620.5 363.5L 619.8 372.5z"/>
<path style="stroke:none; fill:#000000" d="M 636.3 367C 637.2 368.4 638 369.8 638.2 370.1C 638.4 370.4 637.9 371.4 637.1 372.4C 635.9 373.8 635.9 374 637.4 373.4C 639.4 372.6 638.8 368.4 636.4 366.1C 634.9 364.6 634.9 364.7 636.3 367z"/>
<path style="stroke:none; fill:#000000" d="M 640.1 368.7C 640.8 369.9 641.6 370.7 641.9 370.4C 642.2 370.2 641.6 369.2 640.6 368.2C 638.9 366.6 638.8 366.6 640.1 368.7z"/>
<path style="stroke:none; fill:#000000" d="M 639.3 373.5C 638.7 374.2 638.5 375.3 639 376.1C 639.7 377.2 640 377.1 640.5 375.8C 641.5 373.4 640.7 372 639.3 373.5z"/>
<path style="stroke:none; fill:#000000" d="M 643 373.6C 643 374.4 643.5 374.8 644 374.5C 644.6 374.1 644.8 373.4 644.5 372.9C 643.6 371.5 643 371.8 643 373.6z"/>
<path style="stroke:none; fill:#000000" d="M 635.7 378.5C 634.5 380.2 634.3 381.1 635.2 381.6C 635.8 382 636 381.9 635.7 381.3C 635.3 380.7 635.6 379.7 636.4 379.1C 637.5 378.2 637.9 378.2 638.3 379.2C 638.7 380.1 638.9 379.9 638.9 378.8C 639 376.1 637.6 376 635.7 378.5z"/>
<path style="stroke:none; fill:#000000" d="M 640.5 377.1C 639.4 378.8 640.6 379.2 642 377.5C 642.8 376.6 642.8 376 642.2 376C 641.6 376 640.8 376.5 640.5 377.1z"/>
<path style="stroke:none; fill:#000000" d="M 642.3 379.4C 641.3 380.5 641.4 380.9 642.4 381.3C 643.2 381.6 644 381 644.3 379.9C 644.9 377.7 644 377.5 642.3 379.4z"/>
<path style="stroke:none; fill:#000000" d="M 618.6 384.5C 618.3 385.4 618 386.7 618.1 387.3C 618.1 388 618.6 387.4 619.1 386.1C 619.6 384.8 619.9 383.5 619.6 383.3C 619.4 383.1 619 383.6 618.6 384.5z"/>
<path style="stroke:none; fill:#000000" d="M 640.6 385.9C 639.1 387.5 639.1 387.8 640.5 389C 641.3 389.7 642 389.9 642 389.4C 642.1 388.9 643 389.6 644.1 390.9L 646.1 393.3L 645.6 390.7C 645.4 389.2 645.6 387.8 646.1 387.4C 647.3 386.7 645.3 384 643.5 384C 642.9 384 641.6 384.8 640.6 385.9zM 645.9 385.9C 646.1 386 645.7 386.6 645.1 387.3C 644.5 388.1 644.3 389.1 644.7 389.6C 645.1 390.1 644.8 389.9 644 389.3C 643.3 388.6 642.5 387.4 642.4 386.6C 642.2 385.4 642.8 385.3 645.9 385.9z"/>
<path style="stroke:none; fill:#000000" d="M 617.1 390.6C 617.1 391.7 617.4 392 617.7 391.2C 618 390.5 617.9 389.6 617.6 389.3C 617.3 388.9 617 389.5 617.1 390.6z"/>
<path style="stroke:none; fill:#000000" d="M 637.2 393.4C 637.3 394.8 637.7 395.7 638.1 395.4C 638.8 395 638.1 391 637.4 391C 637.2 391 637.1 392.1 637.2 393.4z"/>
<path style="stroke:none; fill:#000000" d="M 652.6 397.5C 650.6 399 650.6 399 652.6 399C 653.8 399 654.7 398.3 654.7 397.5C 654.7 396.7 654.6 396 654.6 396C 654.5 396 653.6 396.7 652.6 397.5z"/>
<path style="stroke:none; fill:#000000" d="M 613 402.4C 613 402.6 613.7 403.1 614.6 403.4C 615.4 403.7 615.8 403.6 615.5 403C 614.9 402 613 401.6 613 402.4z"/>
<path style="stroke:none; fill:#000000" d="M 643.7 405.1C 644.1 406.4 644.5 406.9 644.8 406.1C 645 405.4 644.7 404.3 644.2 403.8C 643.4 403 643.3 403.4 643.7 405.1z"/>
<path style="stroke:none; fill:#000000" d="M 611.5 405.1C 611.1 405.7 611 406.3 611.3 406.6C 611.5 406.9 612 406.4 612.3 405.5C 613 403.8 612.4 403.5 611.5 405.1z"/>
<path style="stroke:none; fill:#000000" d="M 637.5 406C 638.5 407.1 639.5 408 639.8 408C 640.1 408 639.5 407.1 638.5 406C 637.5 404.9 636.5 404 636.2 404C 635.9 404 636.5 404.9 637.5 406z"/>
<path style="stroke:none; fill:#000000" d="M 609.5 409.1C 609.1 409.7 609 410.3 609.3 410.6C 609.5 410.9 610 410.4 610.3 409.5C 611 407.8 610.4 407.5 609.5 409.1z"/>
<path style="stroke:none; fill:#000000" d="M 645.5 409.1C 645.1 409.7 645 410.3 645.3 410.6C 645.5 410.9 646 410.4 646.3 409.5C 647 407.8 646.4 407.5 645.5 409.1z"/>
<path style="stroke:none; fill:#000000" d="M 640.5 415.9C 640.2 416.4 640.3 417.1 640.8 417.4C 641.3 417.7 641.7 417.3 641.7 416.5C 641.7 414.8 641.4 414.6 640.5 415.9z"/>
<path style="stroke:none; fill:#000000" d="M 634.9 417.4C 635.4 418 635.6 419.4 635.4 420.4C 635.1 422.2 635.2 422.2 636.8 420.5C 638.1 419.2 638.2 418.6 637.2 418.3C 636.6 418 636.2 417.5 636.4 417.1C 636.7 416.7 636.3 416.3 635.5 416.3C 634.6 416.3 634.4 416.7 634.9 417.4z"/>
<path style="stroke:none; fill:#000000" d="M 645 419.5C 645.5 420.2 645.6 421.1 645.2 421.6C 644.8 422.1 644.9 422.1 645.4 421.7C 646.9 420.5 646.9 418.3 645.4 418.3C 644.5 418.3 644.3 418.7 645 419.5z"/>
<path style="stroke:none; fill:#000000" d="M 643.6 424.2C 643.9 424.7 644.6 424.8 645.1 424.5C 646.4 423.6 646.2 423.3 644.5 423.3C 643.7 423.3 643.3 423.7 643.6 424.2z"/>
<path style="stroke:none; fill:#000000" d="M 636.6 429.3C 636.9 430.3 637.5 430.8 637.8 430.5C 638.1 430.2 637.8 429.4 637.1 428.7C 636.1 427.8 636 427.9 636.6 429.3z"/>
<path style="stroke:none; fill:#000000" d="M 644 429.4C 644 430.3 644.5 431 645 431C 645.6 431 646 430.6 646 430.1C 646 429.5 645.6 428.8 645 428.5C 644.5 428.2 644 428.6 644 429.4z"/>
<path style="stroke:none; fill:#000000" d="M 587.6 435.4C 583.9 438.3 578.2 442.2 575 444.1C 569.4 447.3 567.7 449 570 449C 570.6 449 571 448.5 571 447.9C 571 447.3 571.7 447.1 572.6 447.4C 573.5 447.7 573.8 447.6 573.4 446.9C 573 446.2 573.9 445.9 576 446.2C 577.8 446.3 579.1 446.1 579 445.7C 578.7 444.6 584.1 439 585.4 439C 586.5 438.9 596 430 594.9 430C 594.6 430 591.3 432.4 587.6 435.4zM 578.7 444.5C 578.7 445.3 578.3 445.7 577.8 445.4C 577.3 445.1 577.2 444.4 577.5 443.9C 578.4 442.6 578.7 442.8 578.7 444.5z"/>
<path style="stroke:none; fill:#000000" d="M 639.4 431.1C 638.9 431.9 639.1 432 640 431.5C 640.7 431.1 641.6 431.3 642.2 432.1C 643 433.3 643.1 433.3 642.8 432.1C 642.2 430.1 640.4 429.6 639.4 431.1z"/>
<path style="stroke:none; fill:#000000" d="M 590.5 439C 590.8 439.5 591.3 440 591.6 440C 591.8 440 592 439.5 592 439C 592 438.4 591.5 438 590.9 438C 590.4 438 590.2 438.4 590.5 439z"/>
<path style="stroke:none; fill:#000000" d="M 592.6 447.5C 590.8 448.9 590.8 448.9 592.7 448.7C 593.8 448.7 594.7 448 594.7 447.3C 594.7 446.6 594.6 446 594.6 446C 594.5 446 593.7 446.7 592.6 447.5z"/>
<path style="stroke:none; fill:#000000" d="M 563 450C 562.2 450.5 562 451 562.5 451C 563.1 451 564.2 450.5 565 450C 565.8 449.5 566.1 449 565.5 449C 565 449 563.8 449.5 563 450z"/>
<path style="stroke:none; fill:#000000" d="M 596.6 450.8C 596.3 451.3 596.7 451.7 597.5 451.7C 598.3 451.7 598.7 451.3 598.4 450.8C 598.1 450.4 597.7 450 597.5 450C 597.3 450 596.9 450.4 596.6 450.8z"/>
<path style="stroke:none; fill:#000000" d="M 593.6 452.8C 593.3 453.2 594 453.7 595.1 453.7C 597.4 453.9 597.6 453.4 595.5 452.7C 594.7 452.3 593.9 452.4 593.6 452.8z"/>
<path style="stroke:none; fill:#000000" d="M 599.6 460.3C 599.9 461.3 600.5 461.8 600.8 461.5C 601.1 461.2 600.8 460.4 600.1 459.7C 599.1 458.8 599 458.9 599.6 460.3z"/>
<path style="stroke:none; fill:#000000" d="M 596 462.6C 594.3 463.5 594 464 595.1 464C 596 464 597.3 463.3 598 462.5C 599.5 460.7 599.3 460.7 596 462.6z"/>
<path style="stroke:none; fill:#000000" d="M 594.9 465.2C 594.3 467.2 594.3 469.1 594.9 469.4C 595.3 469.7 595.6 468.8 595.6 467.4C 595.6 465.4 595.2 464.2 594.9 465.2z"/>
<path style="stroke:none; fill:#000000" d="M 598.7 466.9C 598.3 468.6 598.4 469 599.2 468.2C 599.7 467.7 600 466.6 599.8 465.9C 599.5 465.1 599.1 465.6 598.7 466.9z"/>
<path style="stroke:none; fill:#000000" d="M 592.5 473.9C 592.2 474.4 592.3 475.1 592.8 475.4C 593.3 475.7 593.7 475.3 593.7 474.5C 593.7 472.8 593.4 472.6 592.5 473.9z"/>
<path style="stroke:none; fill:#000000" d="M 598.4 475.4C 598.5 476.2 598.9 477.2 599.2 477.6C 599.6 477.9 599.7 477.5 599.6 476.6C 599.5 475.8 599.1 474.8 598.8 474.4C 598.4 474.1 598.3 474.5 598.4 475.4z"/>
<path style="stroke:none; fill:#000000" d="M 571.6 487.7C 571 489.1 571.1 489.2 572.1 488.3C 572.8 487.6 573.1 486.8 572.8 486.5C 572.5 486.2 571.9 486.7 571.6 487.7z"/>
<path style="stroke:none; fill:#000000" d="M 574.7 487.4C 574.4 488.2 574.5 489.2 575.1 489.6C 576.7 490.5 577.3 489.4 576.2 487.5C 575.4 486 575.2 485.9 574.7 487.4z"/>
<path style="stroke:none; fill:#000000" d="M 517 349.5C 516.2 350.4 516.2 351 516.8 351C 518 351 519.4 349.1 518.7 348.4C 518.5 348.2 517.7 348.6 517 349.5z"/>
<path style="stroke:none; fill:#000000" d="M 525.6 348.9C 525.3 349.3 526.3 349.7 527.7 349.8C 529.2 349.9 530 349.7 529.6 349.3C 528.7 348.3 526.1 348 525.6 348.9z"/>
<path style="stroke:none; fill:#000000" d="M 532.5 361C 532.9 361.6 533.6 361.8 534.1 361.5C 535.5 360.6 535.2 360 533.4 360C 532.6 360 532.2 360.5 532.5 361z"/>
<path style="stroke:none; fill:#000000" d="M 540.1 380.7C 540.8 381.9 541.6 382.7 541.9 382.4C 542.2 382.2 541.6 381.2 540.6 380.2C 538.9 378.6 538.8 378.6 540.1 380.7z"/>
<path style="stroke:none; fill:#000000" d="M 544.1 360.4C 543.4 361.2 543.3 362.1 543.8 362.4C 544.4 362.7 545.3 362.3 545.9 361.6C 546.6 360.8 546.7 359.9 546.2 359.6C 545.6 359.3 544.7 359.7 544.1 360.4z"/>
<path style="stroke:none; fill:#000000" d="M 540 367C 540 367.5 540.5 368 541.1 368C 541.6 368 541.8 367.5 541.5 367C 541.2 366.4 540.7 366 540.4 366C 540.2 366 540 366.4 540 367z"/>
<path style="stroke:none; fill:#000000" d="M 651.6 404.8C 651.3 405.3 651.7 405.7 652.5 405.7C 653.3 405.7 653.7 405.3 653.4 404.8C 653.1 404.4 652.7 404 652.5 404C 652.3 404 651.9 404.4 651.6 404.8z"/>
<path style="stroke:none; fill:#000000" d="M 326.3 476.5C 326 477.4 326 478.3 326.2 478.6C 326.5 478.9 327 478.2 327.3 477C 327.9 474.7 327.2 474.3 326.3 476.5z"/>
<path style="stroke:none; fill:#000000" d="M 328.8 496.7C 329.5 497 330.4 496.9 330.7 496.6C 331.1 496.3 330.5 496 329.4 496.1C 328.3 496.1 328 496.4 328.8 496.7z"/>
<path style="stroke:none; fill:#000000" d="M 335.5 497C 335.8 497.5 336.3 498 336.6 498C 336.8 498 337 497.5 337 497C 337 496.4 336.5 496 335.9 496C 335.4 496 335.2 496.4 335.5 497z"/>
<path style="stroke:none; fill:#000000" d="M 335 503.5C 335 504.3 335.4 505 335.8 505C 336.3 505 336.7 504.3 336.7 503.5C 336.7 502.7 336.3 502 335.8 502C 335.4 502 335 502.7 335 503.5z"/>
<path style="stroke:none; fill:#000000" d="M 359 504C 359 504.5 359.5 505 360.1 505C 360.6 505 360.8 504.5 360.5 504C 360.2 503.4 359.7 503 359.4 503C 359.2 503 359 503.4 359 504z"/>
<path style="stroke:none; fill:#000000" d="M 340.5 505.1C 340.1 505.7 340 506.3 340.3 506.6C 340.5 506.9 341 506.4 341.3 505.5C 342 503.8 341.4 503.5 340.5 505.1z"/>
<path style="stroke:none; fill:#000000" d="M 344.9 505.6C 344.2 506.5 344.3 506.8 345.7 506.6C 346.7 506.4 347.8 506.8 348.2 507.4C 348.6 508 348.8 507.5 348.8 506.4C 348.6 504.1 346.5 503.7 344.9 505.6z"/>
<path style="stroke:none; fill:#000000" d="M 272 551.7C 272 552.7 272.4 553.1 272.8 552.5C 273.2 551.9 273.9 551.2 274.4 550.7C 274.9 550.3 274.6 550 273.7 550C 272.7 550 272 550.8 272 551.7z"/>
<path style="stroke:none; fill:#000000" d="M 297.6 552.6C 296.5 555.6 297 556.3 299 554.5C 300.4 553.2 301 553.1 301 554C 301 554.7 301.3 555 301.6 554.7C 302.4 554 300.2 551 299 551C 298.6 551 297.9 551.7 297.6 552.6z"/>
<path style="stroke:none; fill:#000000" d="M 276.6 552.8C 276.3 553.3 276.7 553.7 277.5 553.7C 278.3 553.7 279 553.3 279 552.8C 279 552.4 278.6 552 278.1 552C 277.5 552 276.9 552.4 276.6 552.8z"/>
<path style="stroke:none; fill:#000000" d="M 280.9 553.7C 280.2 554.7 280 555.2 280.5 554.7C 280.9 554.3 282.3 554.8 283.4 555.7C 284.6 556.7 285.2 557.1 284.8 556.6C 284.4 556.1 284.6 555 285.3 554.1C 286.4 552.7 286.3 552.7 284.8 553.9C 283.2 555.1 282.6 554.8 282.9 552.7C 283.1 551.5 282.3 551.9 280.9 553.7z"/>
<path style="stroke:none; fill:#000000" d="M 265 555C 265 555.5 265.5 556 266 556C 266.6 556 267 555.5 267 555C 267 554.4 266.6 554 266 554C 265.5 554 265 554.4 265 555z"/>
<path style="stroke:none; fill:#000000" d="M 274.3 555.7C 274.7 556 274.4 557 273.7 557.9C 272.6 559.3 272.7 559.3 274.2 558.1C 275.8 556.9 275.8 555 274.3 555C 273.9 555 274 555.3 274.3 555.7z"/>
<path style="stroke:none; fill:#000000" d="M 263.1 563.6C 263.1 564.7 263.4 565 263.7 564.2C 264 563.5 263.9 562.6 263.6 562.3C 263.3 561.9 263 562.5 263.1 563.6z"/>
<path style="stroke:none; fill:#000000" d="M 269.1 563.4C 268.2 564.4 268.4 565.1 269.7 566.1C 271.3 567.3 271.4 567.3 270.3 565.9C 269.3 564.7 269.3 564.1 270.2 563.2C 270.9 562.5 271.1 562 270.8 562C 270.5 562 269.7 562.6 269.1 563.4z"/>
<path style="stroke:none; fill:#000000" d="M 258.5 564C 258.2 564.5 258.4 565 258.9 565C 259.5 565 260 564.5 260 564C 260 563.4 259.8 563 259.6 563C 259.3 563 258.8 563.4 258.5 564z"/>
<path style="stroke:none; fill:#000000" d="M 287.2 571.7C 282.9 575.9 280.9 578.4 282.5 577.2C 286.3 574.5 296.7 564 295.6 564C 295.2 564 291.4 567.4 287.2 571.7z"/>
<path style="stroke:none; fill:#000000" d="M 254.8 578.7C 255.5 579 256.4 578.9 256.7 578.6C 257.1 578.3 256.5 578 255.4 578.1C 254.3 578.1 254 578.4 254.8 578.7z"/>
<path style="stroke:none; fill:#000000" d="M 279.1 581.6C 279.1 582.7 279.4 583 279.7 582.2C 280 581.5 279.9 580.6 279.6 580.3C 279.3 579.9 279 580.5 279.1 581.6z"/>
<path style="stroke:none; fill:#000000" d="M 279.3 590.5C 279.3 592.7 279.5 593.5 279.7 592.2C 279.9 591 279.9 589.2 279.7 588.2C 279.4 587.3 279.2 588.3 279.3 590.5z"/>
<path style="stroke:none; fill:#000000" d="M 400 555.4C 400 557.4 400.4 558.9 400.9 558.5C 401.4 558.2 401.6 556.7 401.4 555.3C 400.6 551.2 400 551.2 400 555.4z"/>
<path style="stroke:none; fill:#000000" d="M 403.6 556.2C 403.9 556.7 404.6 556.8 405.1 556.5C 406.4 555.6 406.2 555.3 404.5 555.3C 403.7 555.3 403.3 555.7 403.6 556.2z"/>
<path style="stroke:none; fill:#000000" d="M 404.9 559.2C 404.4 561 404.3 563 404.8 562.6C 405.5 561.8 406 559 405.4 559C 405.2 559 405 559.1 404.9 559.2z"/>
<path style="stroke:none; fill:#000000" d="M 414.7 563.1C 415.4 563.8 416.2 564.1 416.5 563.8C 416.8 563.5 416.3 562.9 415.3 562.6C 413.9 562 413.8 562.1 414.7 563.1z"/>
<path style="stroke:none; fill:#000000" d="M 434.2 565.2C 434.4 565.9 433.9 566.4 433.1 566.2C 431.9 565.9 431.9 566.2 432.9 567.4C 433.6 568.2 434.9 568.6 435.8 568.3C 436.8 567.9 437 567.5 436.2 567.2C 435.5 567 435.2 566.4 435.5 566C 435.8 565.5 435.6 564.8 435 564.5C 434.4 564.1 434.1 564.4 434.2 565.2z"/>
<path style="stroke:none; fill:#000000" d="M 416.1 567.6C 416.1 568.7 416.4 569 416.7 568.2C 417 567.5 416.9 566.6 416.6 566.3C 416.3 565.9 416 566.5 416.1 567.6z"/>
<path style="stroke:none; fill:#000000" d="M 342.1 569.6C 342.1 570.7 342.4 571 342.7 570.2C 343 569.5 342.9 568.6 342.6 568.3C 342.3 567.9 342 568.5 342.1 569.6z"/>
<path style="stroke:none; fill:#000000" d="M 407.7 569.7C 408 570.4 408.3 571 408.5 571C 408.7 571 409 570.4 409.3 569.7C 409.6 568.9 409.2 568.3 408.5 568.3C 407.8 568.3 407.4 568.9 407.7 569.7z"/>
<path style="stroke:none; fill:#000000" d="M 428.9 569.5C 428.8 569.8 428.7 570.6 428.6 571.2C 428.5 571.9 428 572.4 427.5 572.3C 426.9 572.2 426.5 573.2 426.5 574.5C 426.5 577.3 428.2 577.3 429.4 574.5C 429.9 573.2 430.4 572.9 430.7 573.7C 431 574.4 431.7 575 432.3 575C 432.9 575 432.4 574 431.2 572.7C 430 571.4 429.3 570 429.7 569.7C 430 569.3 430 569 429.7 569C 429.3 569 428.9 569.2 428.9 569.5z"/>
<path style="stroke:none; fill:#000000" d="M 416.8 570.7C 417.5 571 418.4 570.9 418.7 570.6C 419.1 570.3 418.5 570 417.4 570.1C 416.3 570.1 416 570.4 416.8 570.7z"/>
<path style="stroke:none; fill:#000000" d="M 434.6 579.9C 434.2 580.4 434.4 581.1 434.9 581.4C 435.4 581.8 436.1 581.6 436.4 581.1C 436.8 580.6 436.6 579.9 436.1 579.6C 435.6 579.2 434.9 579.4 434.6 579.9z"/>
<path style="stroke:none; fill:#000000" d="M 359 636.6C 359 637.4 359.5 637.8 360 637.5C 360.6 637.1 360.8 636.4 360.5 635.9C 359.6 634.5 359 634.8 359 636.6z"/>
<path style="stroke:none; fill:#000000" d="M 559.5 1C 559.8 1.5 560.3 2 560.6 2C 560.8 2 561 1.5 561 1C 561 0.400024 560.5 0 559.9 0C 559.4 0 559.2 0.400024 559.5 1z"/>
</g>
</g>
</svg>