<?xml version="1.0" encoding="UTF-8" standalone="yes"?>
<!-- Created with sK1/UniConvertor (http://sk1project.org/) -->
<svg xmlns="http://www.w3.org/2000/svg" xmlns:xlink="http://www.w3.org/1999/xlink"
  width="640pt" height="640pt" viewBox="0 0 640 640"
  fill-rule="evenodd">
<g>
<g>
<path style="stroke:none; fill:#000000" d="M 141.9 0.200012C 141.9 0.400024 141.5 12.2 141 26.5C 140.6 40.9 139.5 58.1 138.5 65C 137 76.3 136.3 79 134.1 84C 132.9 86.7 134 90 136.1 90C 137.1 90 138 90.7 138 91.5C 138 92.6 137.3 92.9 135.5 92.4C 133.9 92 133 92.2 133 93C 133 93.7 133.7 94 134.5 93.6C 137.5 92.5 139.2 95.9 138.6 101.9C 138.3 105 137.8 113.1 137.5 120C 137.2 126.9 136.7 135.1 136.4 138.4C 136 141.8 136.2 144 136.7 143.7C 137.2 143.3 137.4 145.2 137 148.1C 136.6 150.8 136.7 153.3 137.1 153.5C 139.6 155.1 138.7 170.5 135.7 177.2C 134.9 179 133.9 182.1 133.6 184.2C 133 187.4 133.2 187.8 134.8 187.3C 136.9 186.8 138.3 189.1 137.4 191.5C 136.6 193.5 134 193.4 134 191.4C 134 190.6 133.5 190.2 133 190.5C 132.4 190.9 132.2 191.6 132.5 192.1C 132.9 192.6 132.7 193 132.2 193C 131.6 193 130.9 194.1 130.6 195.4C 130.3 196.8 127 200.1 122.6 203.4C 111.5 211.7 105 220.6 100.1 233.8C 98.8 237.2 97.3 240.3 96.7 240.7C 94.1 242.3 88.1 258.1 86.1 268.5C 83.5 282.5 83 299.9 85.2 303.2C 86 304.5 87.9 308.7 89.3 312.7C 90.7 316.6 93.7 323.7 95.9 328.5C 98.2 333.3 100 337.6 100 338.1C 100 338.6 100.7 340.1 101.4 341.3C 102.8 343.3 102.5 344.1 97.4 352C 94.5 356.7 92 360.9 92 361.5C 92 362 90.7 365.1 89.1 368.2C 87.5 371.4 86.4 374 86.6 374C 86.8 374 87.9 373.2 89 372.2C 90.1 371.3 92.2 370.5 93.5 370.5C 96.3 370.4 96.8 371.5 94.5 372.4C 93.7 372.7 93.3 373.6 93.6 374.5C 94 375.3 93.7 376 92.9 376C 92.2 376 91.9 376.3 92.3 376.6C 93.1 377.5 103.2 370.7 106.2 367.3C 111.8 360.7 110.7 359.4 124.5 387.2C 133.9 406.1 137.3 414.1 138.2 419C 139 423.4 140.7 427.5 143.3 431.7C 146.4 436.8 147 438.6 146.5 441C 146.1 442.6 146.4 446.4 147 449.4C 147.9 453.9 147.8 456.7 146.5 464.2C 145.6 469.3 144.4 476.2 143.9 479.5C 143.4 482.8 142.1 486.7 141 488.1C 139.4 490.4 139.1 492.4 139.2 501.1C 139.3 507.9 139 511.5 138.3 511.7C 137.7 511.9 137 511.1 136.7 509.8L 136.3 507.5L 136.1 509.7C 136.1 511 135.6 512 135 512C 134.5 512 134 513.3 134 514.9C 134 516.5 133.7 519.1 133.4 520.8C 132.9 523.4 132.3 523.9 129.1 524.2C 127.1 524.5 125.2 524.2 124.8 523.6C 124.3 522.8 124 522.9 124 523.7C 124 524.4 123.5 525 122.9 525C 122.2 525 122 524 122.3 522.4C 122.6 520.6 122.4 520 121.4 520.4C 120 520.9 119 519.2 119.8 517.2C 120.3 515.7 123.4 515.6 126.1 517C 127.7 517.9 128 517.7 128 515.6C 128 513.4 127.6 513.2 124 513.3C 120.7 513.5 119.8 513.9 119.4 515.7C 118.5 519.2 117 518.4 117 514.5C 117 512.6 116.5 511 115.9 511C 115.4 511 115.2 511.6 115.6 512.3C 116 512.9 115.1 512.2 113.7 510.7C 112.2 509.2 111 507.5 111 507C 111 506.5 110.4 505.7 109.7 505.3C 108.2 504.4 86.2 471.9 84.4 468C 84 467.2 82.2 464.5 80.5 462C 74.4 453.6 64.9 439.5 60.2 432.1C 57.6 428 53.6 421.8 51.3 418.2C 48.9 414.7 47 411.5 47 411.3C 47 411 45.7 409.1 44.1 407.1C 41.9 404.3 6.7 352 1.3 343.4C 0.400003 341.9 0.100003 346.1 0.100003 363.7C 3.00258e-06 384.7 0.100003 386 1.9 387C 4.6 388.4 9 388.3 9 386.8C 9 385.6 6.6 380 2.9 372.7C 1.9 370.5 1 368 1 366.9C 1 362.6 4.3 365.6 12.5 377.2C 17.2 384 21.6 390.2 22.3 391C 23 391.8 24.6 394.3 26 396.5C 27.3 398.7 29 400.9 29.7 401.3C 30.4 401.7 31 402.5 31 403C 31 403.8 45.9 426.3 56.1 440.8C 58.5 444.3 61 447.9 61.5 448.8C 62.1 449.7 64.1 453 66.1 456C 68.1 459 71.5 464.2 73.5 467.5C 75.6 470.8 77.8 473.9 78.4 474.5C 79 475 80.1 476.6 80.8 478C 82.9 482.3 85.9 487.3 86.7 487.9C 88.1 488.9 94 498.6 94 499.8C 94 500.5 94.4 501 95 501C 95.5 501 96.2 502.1 96.6 503.4C 96.9 504.8 97.8 506.1 98.6 506.4C 100.1 507 100 511.5 98.5 514C 97.8 515.1 97.5 515 96.9 513.4C 96.3 511.9 96.1 512.3 96.1 514.9C 96 518.1 95.9 518.2 94.2 516.7C 93.2 515.7 91.4 515 90.2 515C 88.5 515 88 515.6 87.9 517.7C 87.7 520.2 87.7 520.2 87.3 518.2C 86.8 515.4 84.1 514.2 82.9 516.1C 82.4 517 82.7 518.4 83.6 519.8C 85.4 522.6 84.8 525.2 82.5 524.4C 81.6 524 81.2 523.1 81.5 522C 82.2 519.7 79.9 517.8 78 519C 76.7 519.8 76.8 520 78.3 520C 81.4 520 80 522.5 75.5 524.7C 71.4 526.8 71 526.9 70.1 525.2C 68.8 522.8 63.3 519.7 62.5 521C 61.4 522.8 59.9 522 60.5 520C 61.4 517.1 59.2 514.7 56.3 515.5C 52.7 516.4 51.8 515.3 53.6 511.9C 55.1 508.9 55.2 508.9 57.1 510.6C 58.2 511.6 59 511.8 59 511.2C 59 510.5 59 509.7 59 509.3C 59 509 57.6 508.5 56 508.3C 52.8 508 49.1 509.4 47.8 511.4C 47.3 512.1 46.4 512.1 44.8 511.3C 43.5 510.6 41.5 509.8 40.3 509.5C 37.2 508.6 37.4 506.4 40.8 505.2C 42.5 504.5 42.9 504.1 41.8 504.1C 40.8 504 40 503.3 40 502.5C 40 501.4 38.9 501 36 501C 33.1 501 32 500.6 32 499.5C 32 497.7 30.8 497.6 29.2 499.2C 28.6 499.8 27.7 500 27.3 499.6C 26.8 499.2 27.5 498 28.8 496.9C 30.1 495.9 30.9 494.6 30.5 494C 29.5 492.4 26 492.8 26 494.5C 26 495.3 25.5 496 24.9 496C 24.1 496 24 494.7 24.4 491.9L 25.1 487.8L 22.6 490.7C 20.3 493.4 20.1 493.4 18.2 491.7C 16.2 489.9 16.2 489.9 15.8 492.2C 15.5 494.4 15.3 494.3 13.6 491.2L 11.9 487.8L 14.1 488.5C 16.2 489.2 16.3 489.1 14.8 487.6C 13.9 486.7 12.5 486 11.7 486C 11 486 10 485.7 9.70001 485.3C 9.30001 485 8.00001 484.6 6.70001 484.5C 5.50001 484.4 3.50001 484 2.30001 483.6L 1.0252e-05 482.9L 1.0252e-05 561.4L 1.0252e-05 640L 320 640L 640 640L 640 525.1C 640 434.8 639.7 410 638.7 409.7C 637.8 409.3 637.8 409 638.7 408.3C 639.7 407.6 639.9 387.6 639.7 315.5L 639.5 223.6L 637.4 222.5C 636.3 222 634.5 220.7 633.6 219.7C 632.5 218.7 631 218.2 630 218.5C 629 218.8 627 218.8 625.6 218.4C 623.5 217.9 622.9 217 622.4 213.9C 621.7 209.9 620.4 208.7 619.8 211.6C 619.5 213.4 613.3 214.4 611.5 213C 611 212.6 608.1 211.6 605.1 210.9C 601.8 210.1 598.6 208.4 596.9 206.8C 595.4 205.2 593.4 204 592.6 204C 591.7 204 590.2 203.6 589.2 203.1C 584.5 200.6 577.6 197.9 573.3 197C 567.9 195.8 558 189.6 558 187.5C 558 186.7 558.5 185.8 559.1 185.4C 559.9 184.9 559.9 184.5 559 184C 558.3 183.6 557.4 181.5 557 179.3C 556.4 176 556.6 175.3 557.9 175.4C 558.8 175.5 559.6 174.6 559.8 173.2C 560.1 171.2 559.1 170.5 556.6 170.9C 556.1 171 556 169 556.4 166.3C 556.8 163.7 557.1 160.6 557.1 159.6C 557.1 158.5 557.6 156.7 558.3 155.6C 558.9 154.4 559.5 152 559.7 150.1C 559.8 148.2 560.3 146.4 560.8 146.1C 563 144.5 565.9 131.7 566.5 121C 566.6 118 566.8 114.7 566.9 113.7C 566.9 112.8 567.7 112 568.6 112C 570 112 570 111.7 569 110.5C 567.9 109.2 568.1 108.6 569.8 107C 571 105.9 571.7 104.4 571.4 103.6C 571.1 102.8 571.3 101.9 571.9 101.5C 572.5 101.2 573 98.2 573 94.9999C 573 91.7999 573.4 88.9 573.8 88.5999C 575 87.8999 574 80.9999 572.7 80.9999C 572.1 80.9999 572.6 80.2999 573.8 79.4C 576.3 77.7 576.7 75.9999 574.5 75.9999C 573.7 75.9999 573 76.4 573 76.9999C 573 77.4999 572.6 77.9999 572 77.9999C 569.9 77.9999 571.1 74.9 573.5 73.9999C 574.9 73.4999 576 72.2999 576 71.2999C 576 69.7999 575.8 69.7 575 70.9999C 573.5 73.4 573 71.5999 574.2 67.7C 574.8 65.7 576 63.9999 576.8 63.9999C 577.5 63.9999 578 63.4 577.7 62.7C 577.5 62.1 578.4 60.2 579.6 58.7C 580.9 57.1 582 54.7999 582 53.4C 582 52.1 582.4 50.9999 583 50.9999C 583.5 50.9999 583.6 51.7999 583.3 52.7C 582.8 53.9 583.2 53.7999 584.8 52.2C 586 50.9999 586.7 49.4 586.4 48.6C 586.1 47.8 586.3 46.9 586.9 46.5C 587.5 46.2 588 44.7 588 43.3C 588 41.7 588.7 40.6 590 40.3C 591.5 39.9 592 38.9 592 36.1C 592 32.1 593.4 30 596.1 30C 597.3 30 597.6 29.4 597.2 27.5C 596.6 24.2 598.6 24.2 601.5 27.6C 604.6 31.2 606.3 30.3 606.5 24.8C 606.8 19.3 608 16.8 609.9 17.9C 611 18.6 611 19.4 610.1 22.1C 609.2 24.6 609.3 25.5 610.2 26.2C 612.3 27.4999 613.4 26.6 614.1 22.9C 614.9 19.3 613.2 16.7 609.4 15.7C 607.9 15.2999 608 15.2 610 15.1C 612.2 15 612.3 14.8 610.8 13.9C 608.5 12.6 608.5 11.3 610.9 10.4999C 614.4 9.39996 615.7 10.7999 615.8 16.2999C 616 19.9999 616.5 21.8999 617.8 22.9999C 619.3 24.2 619.4 24.9 618.6 26.2999C 617.1 28.5999 618.8 29.8999 622.8 29.2999C 625.1 28.8999 626 28.2999 626 26.7999C 626 24.4999 628.4 24.8999 628.8 27.2999C 629 28.2999 628.5 28.9999 627.6 28.9999C 626.7 28.9999 626 29.7 626 30.4999C 626 31.2999 625.4 31.9999 624.8 32.0999C 624.1 32.1999 622.4 32.2999 621 32.2999C 616.9 32.5999 617.8 35.4999 622 35.4999C 627.6 35.5999 630.4 38.4 625.8 39.2999C 624.5 39.4999 625.4 39.7999 627.8 39.8999C 630.1 39.8999 632 40.3999 632 40.9999C 632 41.4999 632.9 41.9999 634 41.9999C 636.2 41.9999 636.7 40.4999 634.8 39.6999C 634.1 39.3999 635 39.0999 636.8 39.0999L 640.1 38.9999L 639.9 29.7C 639.8 24.7 639.3 20.2 638.8 19.9C 638.1 19.4999 638.2 18.4999 638.9 17.2C 639.5 16.1 640 11.7 640 7.59998L 640 0L 630.6 0C 624 0 621 0.400024 620.7 1.20001C 620.4 2.20001 619.8 2.20001 618.1 1.20001C 616.5 0.299988 566.8 0 379 0C 248.7 0 142 0.0999756 141.9 0.200012zM 625.5 10.7C 624.7 13.9 624.4 13.5 623.6 8C 622.9 3.59998 623 3.59998 624.6 5.79999C 625.6 7.29999 626 9 625.5 10.7zM 606 12.6C 606 13.5001 605.5 14.0001 604.8 13.8C 603 13.2001 602.7 11.0001 604.4 11.0001C 605.3 11.0001 606 11.7001 606 12.6zM 620.4 18.3C 621.7 20.3 620.9 21.3 618.6 20.4C 617.7 20.1 617 18.9 617 17.8C 617 15.6 618.8 15.8 620.4 18.3zM 627.7 22.5001C 629.1 23.6 629 23.8 626.9 24.3C 625.6 24.6 624.5 24.8 624.4 24.7001C 624.3 24.6001 624 22.5001 623.6 20.0001L 623 15.5001L 624.5 18.4001C 625.3 20.0001 626.8 21.8001 627.7 22.5001zM 638 20.5001C 638 22.0001 635.5 26.0001 634.4 26.0001C 633.1 26.0001 631.6 23.1 632.5 22.2001C 632.8 21.9001 633 22.2001 633 22.8C 633 23.5001 633.5 24.0001 634 24.0001C 634.6 24.0001 635 23.1 635 22.0001C 635 20.9001 635.7 20.0001 636.5 20.0001C 637.3 20.0001 638 20.2001 638 20.5001zM 622.5 23.0001C 622.8 23.5001 622.6 24.0001 622.1 24.0001C 621.5 24.0001 621 23.5001 621 23.0001C 621 22.4001 621.2 22.0001 621.4 22.0001C 621.7 22.0001 622.2 22.4001 622.5 23.0001zM 632.6 29.5001C 632.1 31.5001 632.3 32.0001 634 32.0001C 635.1 32.0001 636 32.7001 636 33.5001C 636 35.3 635.9 35.3 632.6 34.1C 630.3 33.2 630.2 32.9 631.3 30.1C 632.7 26.4 633.5 26.0001 632.6 29.5001zM 235.5 63.0001C 235.8 63.5001 235.6 64.0001 235.1 64.0001C 234.5 64.0001 234 63.5001 234 63.0001C 234 62.4001 234.2 62.0001 234.4 62.0001C 234.7 62.0001 235.2 62.4001 235.5 63.0001zM 348 63.0001C 348 63.5001 347.5 64.0001 346.9 64.0001C 346.4 64.0001 346.2 63.5001 346.5 63.0001C 346.8 62.4001 347.3 62.0001 347.6 62.0001C 347.8 62.0001 348 62.4001 348 63.0001zM 140.3 88.7001C 139.9 89.7001 139.4 89.8 138.7 89.1001C 138.2 88.6001 138 87.3001 138.4 86.3001C 139 84.9001 139.3 84.8001 140 85.9001C 140.4 86.7001 140.6 88.0001 140.3 88.7001zM 291.4 195.6C 292.3 195.9 293 196.6 293 197.2C 293 198.6 288.7 197.7 288.2 196.2C 287.8 194.9 288.9 194.7 291.4 195.6zM 333.4 300.4C 332.7 302.2 327.8 304 323.7 304C 319.8 304 321.1 302.4 326.6 300.5C 331.8 298.6 334.1 298.6 333.4 300.4zM 337 303.9C 337 305.1 334.1 307.4 333.4 306.7C 332.3 305.7 333.9 303 335.5 303C 336.3 303 337 303.4 337 303.9zM 604 327C 604 327.5 603.6 328 603 328C 602.5 328 602 327.5 602 327C 602 326.4 602.5 326 603 326C 603.6 326 604 326.4 604 327zM 599.1 339.2C 600.3 341.6 601.1 342 604.6 342L 608.8 342L 608.2 346.7C 607.6 352.8 607 353.5 607 348.2C 607 344.2 606.9 344 604 344C 601.2 344 601 344.2 601 348C 601 350.5 601.5 352 602.3 352C 602.9 352 604.4 353.5 605.4 355.3L 607.4 358.5L 608.6 352C 609.2 348.4 609.8 346 609.9 346.6C 609.9 347.3 610.9 348 612 348.3C 613.1 348.6 614 349.7 614 350.8C 614 351.8 613.1 353.9 612 355.3C 610.9 356.7 610 358.6 610 359.5C 610 360.7 609.5 361 608 360.5C 606 359.9 605.2 361.4 607 362.5C 607.6 362.8 608 363.9 608 365C 608 366 608.7 367 609.5 367.4C 612.1 368.4 611.2 371.5 608 372.7C 604.1 374.2 604.1 376 608 376C 610.8 376 611 376.2 610 378.1C 609 379.8 608.6 379.9 607.3 378.8C 605.8 377.6 605.7 378.2 606.3 385C 606.7 389.1 606.6 394.4 606.1 396.7C 605.3 401 606.4 402.9 607.4 398.7C 607.6 397.5 607.7 399.9 607.4 404.2C 607.1 410.2 607.3 411.9 608.5 412.4C 609.4 412.7 610 414.2 610 415.9C 610 417.5 610.5 419.2 611 419.5C 611.6 419.8 612 420.8 612 421.6C 612 423.7 607.8 419.2 607.3 416.6C 607.2 415.4 606.5 412.2 605.9 409.5C 605.4 406.7 604.6 403 604.3 401.2C 604 399.4 603.4 397.7 602.9 397.4C 602.4 397.1 602 394.7 602 392.1C 602 389.5 601.6 387 601 386.4C 600.5 385.9 599.9 383.1 599.8 380.2C 599.6 377.4 599.2 375 598.9 375C 598.6 375 597.7 371.5 597 367.2C 596.4 363 594.9 357.6 593.9 355.3C 592.9 352.9 592 350.5 592 349.8C 592 349.1 591.1 345.8 590 342.6C 587.6 335.3 587.4 332.8 589.5 333.7C 590.5 334 591 333.8 590.8 333C 590.6 332.3 591.6 331.4 593 331C 595.1 330.5 595.7 330.9 596.6 333.5C 597.3 335.1 598.4 337.7 599.1 339.2zM 613.8 334C 614.9 335.8 614.8 336 613 336C 611.7 336 611 335.3 611 334C 611 332.9 611.3 332 611.8 332C 612.2 332 613.1 332.9 613.8 334zM 618.9 339.6C 618.3 340.4 617.4 341 616.9 341C 615.5 341 615.8 338.2 617.3 337.7C 619.3 337 620.2 338.1 618.9 339.6zM 304.6 343.5C 304.3 344.4 303.5 344.8 303 344.5C 302.2 344 302.3 343.4 303.1 342.4C 304.5 340.6 305.5 341.3 304.6 343.5zM 618 344.9C 618 345.5 617.6 346.2 617 346.5C 616.5 346.8 616 346.4 616 345.6C 616 344.7 616.5 344 617 344C 617.6 344 618 344.4 618 344.9zM 624 358.5C 624 359.3 623.5 360 622.9 360C 622.2 360 621.9 361.8 622.1 364.7C 622.2 367.4 621.8 370.8 621.2 372.3C 620 375.2 621 379 623 379C 623.6 379 624 379.9 624 381C 624 382.5 623.1 383.2 621 383.6C 618.3 384.2 618 384.6 618 388.1C 618 390.3 617.6 392 617 392C 615.4 392 615.8 384.4 617.5 383C 618.3 382.3 619 381.2 619 380.5C 619 378.8 616.2 377.8 615.7 379.3C 615.5 380 614.8 379.5 614.1 378.2C 613.1 376.3 613.2 376 614.7 376C 617.9 376 619.4 372.1 619.1 364.2C 619 360.2 619.2 356.5 619.5 356C 620.4 354.6 624 356.7 624 358.5zM 105.4 362.5C 102.9 365.8 101 367 101 365.2C 101 364.6 107 359.1 107.8 359C 108 359 106.9 360.6 105.4 362.5zM 630.9 363.1C 633.1 363.9 634 364.8 634 366.4C 634 367.7 633.7 368.9 633.4 369.3C 632.5 370.2 629 367.7 629 366.3C 629 364.5 627.1 364.7 626.4 366.5C 625.4 369 624 368.2 624 365C 624 361.6 625.5 361.2 630.9 363.1zM 99.9999 368C 99.9999 368.5 99.5999 369 98.9999 369C 98.4999 369 97.9999 368.5 97.9999 368C 97.9999 367.4 98.4999 367 98.9999 367C 99.5999 367 99.9999 367.4 99.9999 368zM 627 372C 627 373.1 626.3 374 625.5 374C 624.7 374 624 373.1 624 372C 624 370.9 624.7 370 625.5 370C 626.3 370 627 370.9 627 372zM 634.5 375C 634.8 375.5 634.2 376 633 376C 631.8 376 631.2 375.5 631.5 375C 631.8 374.4 632.5 374 633 374C 633.5 374 634.2 374.4 634.5 375zM 632 384.9C 632 385.8 629.7 387 628 387C 627.6 387 627 386.3 626.6 385.5C 626.2 384.4 626.8 384 629 384C 630.7 384 632 384.4 632 384.9zM 630.9 396.9C 632 397.6 631.8 397.9 630.1 398.5C 627.5 399.3 625.2 398.1 627.1 396.9C 628.8 395.8 629.2 395.8 630.9 396.9zM 623.6 401.7C 622.3 403.1 621.1 400.8 622.3 398.9C 623.5 396.9 623.5 396.9 623.8 399C 624 400.2 623.9 401.4 623.6 401.7zM 328 407C 328 407.5 326.8 408.3 325.3 408.6C 323.7 409 322.1 409.9 321.5 410.5C 320.6 411.6 316 413.2 314.4 412.9C 314 412.9 313.3 413.4 312.9 414.2C 312.3 415.2 312 415 312 413.5C 312 412.1 313 411.2 315.5 410.4C 318 409.6 319 409.6 319 410.4C 319 411 319.4 410.8 319.9 410C 321.2 408.1 320.3 406.9 318.3 407.7C 317.2 408.1 316.9 408 317.4 407.2C 318.3 405.8 328 405.6 328 407zM 632.3 407.4C 632.7 408.4 632.4 408.7 631.4 408.3C 630.7 408 630 407.4 630 406.9C 630 405.5 631.7 405.9 632.3 407.4zM 626.4 411.6C 628.7 412.5 628.4 414 626 414C 624.9 414 624 414.4 624 415C 624 415.5 623.2 416 622.3 416C 620.6 415.9 620.6 415.9 622.3 414.6C 623.2 413.9 624 412.8 624 412.1C 624 410.8 624.2 410.8 626.4 411.6zM 314.8 417.2C 314.5 417.9 313.3 418.7 312 418.8C 309.9 419.1 309.8 419 310.9 417.6C 312.5 415.7 315.3 415.5 314.8 417.2zM 617 421.2C 617 424.6 616.6 426 616.1 425C 615.3 423.6 615.8 416 616.6 416C 616.8 416 617 418.4 617 421.2zM 613.7 426.1C 613.4 427.3 613.5 429.3 614 430.6C 614.5 431.9 614.7 433.7 614.3 434.7C 613.8 435.9 613.3 435.3 612.5 432.4C 611.8 430 611.7 428 612.3 427.3C 612.8 426.6 612.9 425.6 612.5 425C 612.2 424.5 612.4 424 613.1 424C 613.8 424 614 424.8 613.7 426.1zM 635.5 427C 635.2 427.5 634.2 428 633.4 428C 632.6 428 632 427.5 632 427C 632 426.4 632.9 426 634.1 426C 635.2 426 635.8 426.4 635.5 427zM 153.5 436C 153.8 436.5 153.6 437 153.1 437C 152.5 437 152 436.5 152 436C 152 435.4 152.2 435 152.4 435C 152.7 435 153.2 435.4 153.5 436zM 626 438.9C 626 439.4 625.3 440 624.6 440.3C 623.6 440.7 623.3 440.4 623.7 439.4C 624.3 437.9 626 437.5 626 438.9zM 619 443.7C 618.9 446.1 618.8 446.3 617.9 444.7C 617.4 443.8 617.2 442.5 617.5 442C 618.5 440.3 619 440.9 619 443.7zM 7.89984 492.6C 10.3998 496.8 10.3998 496.6 8.39984 497.4C 7.19984 497.9 6.89984 497.6 7.39984 496.5C 7.79984 495.5 7.59984 495.1 6.89984 495.6C 5.49984 496.4 3.99984 494.2 3.99984 491.2C 3.99984 488 5.49984 488.5 7.89984 492.6zM 18.9998 497C 17.0998 498.3 15.9998 498.3 15.9998 497C 15.9998 496.4 16.9998 496 18.2998 496C 20.0998 496 20.1998 496.2 18.9998 497zM 31.9998 508C 31.9998 508.9 28.8998 511 27.5998 511C 26.3998 511 26.9998 508.2 28.2998 507.7C 30.2998 506.8 31.9998 506.9 31.9998 508zM 136.7 516.7C 136.4 517.7 136.2 517.1 136.2 515.5C 136.2 513.8 136.4 513.1 136.7 513.7C 136.9 514.4 136.9 515.8 136.7 516.7zM 39.6998 516.2C 39.3998 517 39.0998 516.7 39.0998 515.6C 38.9998 514.5 39.2998 513.9 39.5998 514.3C 39.8998 514.6 39.9998 515.5 39.6998 516.2zM 106.5 517.7C 109.7 522.4 109.7 524 106.5 524C 104.9 524 104 523.4 104 522.4C 104 521.6 104.4 521.1 104.9 521.5C 105.4 521.8 106.1 521.6 106.5 521C 106.8 520.5 106.6 520 106.1 520C 104.1 520 103.5 519.7 102.4 518.1C 101.2 516.5 101.6 514 103.1 514C 103.5 514 105.1 515.7 106.5 517.7zM 141 516.6C 141 517.4 140.6 517.8 140 517.5C 139.5 517.2 139 516.5 139 515.9C 139 515.4 139.5 515 140 515C 140.6 515 141 515.7 141 516.6zM 96.1998 522.2C 95.3998 523 95.2998 522.6 95.6998 520.9C 96.0998 519.6 96.4998 519.1 96.7998 519.9C 96.9998 520.6 96.6998 521.7 96.1998 522.2zM 92.2998 521.5C 93.0998 523.4 90.9998 524.6 89.9998 522.9C 89.0998 521.5 89.5998 520 90.9998 520C 91.3998 520 91.9998 520.7 92.2998 521.5zM 56.5998 524.5C 56.2998 525.4 55.5998 525.8 54.9998 525.5C 54.3998 525.1 54.4998 524.4 55.2998 523.5C 56.7998 521.9 57.4998 522.4 56.5998 524.5zM 139.7 528C 139.9 528.2 140.5 527.8 141 527C 141.7 525.8 142.2 525.8 143.2 526.8C 144.1 527.7 144.1 528 142.8 528C 141.9 528 141 528.6 140.7 529.2C 140.4 530.1 139.6 529.7 138.1 528.1C 135.7 525.3 135.8 525.7 136.7 523.4C 137.3 521.9 137.5 522.1 138.3 524.6C 138.8 526.2 139.5 527.7 139.7 528zM 96.9998 527.6C 97.8998 528.5 97.8998 529 96.9998 529.5C 95.6998 530.3 89.7999 528.1 90.3998 527.1C 91.0998 526 95.7999 526.4 96.9998 527.6zM 116 532.2C 116 533.2 113.8 533.2 111.6 532.4C 109.7 531.7 109.5 528.4 111.3 527.7C 112.4 527.3 115.9 530.6 116 532.2zM 131 531.5C 131 532.3 131.7 533 132.5 533C 133.3 533 134 533.4 134 534C 134 535.9 131.2 535 129.6 532.5C 128.2 530.3 128.1 530 129.5 530C 130.3 530 131 530.7 131 531.5zM 112.7 537.2C 112.4 538 112.1 537.7 112.1 536.6C 112 535.5 112.3 534.9 112.6 535.3C 112.9 535.6 113 536.5 112.7 537.2zM 147 538.6C 147 539.9 146.6 541 146 541C 145.5 541 145 539.6 145 537.9C 145 536.2 145.4 535.1 146 535.5C 146.6 535.8 147 537.2 147 538.6z"/>
<path style="stroke:none; fill:#000000" d="M 598 353.6C 598 354.4 598.5 354.8 599 354.5C 599.6 354.1 599.8 353.4 599.5 352.9C 598.6 351.5 598 351.8 598 353.6z"/>
<path style="stroke:none; fill:#000000" d="M 611.5 30C 611.2 30.5 611.8 31 612.9 31C 614 31 615.2 30.5 615.5 30C 615.8 29.4 615.2 29 614.1 29C 613 29 611.8 29.4 611.5 30z"/>
<path style="stroke:none; fill:#000000" d="M 616.5 43.2C 614.7 45.2 614.1 46.5 614.8 46.8C 617.5 47.7 615.7 49 612 49C 608.1 49 606.7 50.2 609.3 51.4C 610.3 51.9 610.3 52.1 609.3 52.6C 606.8 53.7 607.9 56.0001 610.9 56.0001C 613 56.0001 614.5 55.2001 615.9 53.1C 617.1 51.5001 618 49.8 618 49.2C 618 48.7 618.9 47.1 620 45.7C 621.8 43.4 621.9 40 620.1 40C 619.7 40 618.1 41.4 616.5 43.2z"/>
<path style="stroke:none; fill:#000000" d="M 637.5 42C 637.6 43.1 638.2 44.6 638.8 45.2C 639.7 46.1 640 45.7 640 43.2C 640 41.2 639.5 40 638.7 40C 637.9 40 637.4 40.9 637.5 42z"/>
<path style="stroke:none; fill:#000000" d="M 612.5 42C 612.8 42.5 613.3 43 613.6 43C 613.8 43 614 42.5 614 42C 614 41.4 613.5 41 612.9 41C 612.4 41 612.2 41.4 612.5 42z"/>
<path style="stroke:none; fill:#000000" d="M 624 43C 624 44.1 624.6 45 625.3 45C 627.2 45 628 44 627.3 42.4C 626.5 40.3 624 40.7 624 43z"/>
<path style="stroke:none; fill:#000000" d="M 630.8 45.8C 627.5 46.2 627.3 47.1 630.1 48.8C 631.8 49.9 631.9 50.4 630.9 51.6C 629.7 53.1 630.3 54.5 632.3 54.5C 634 54.5 634.4 62.7 632.8 64.3C 631.7 65.5 631 65.4 628.2 63.8C 625 62 622 62.1 624.9 63.9C 625.7 64.4 625.8 64.9999 625.2 65.4C 624.7 65.7 624 65.3 623.6 64.4999C 623.3 63.7 622.7 62.9999 622.1 62.9999C 620.7 62.9999 620.1 68.2999 621.2 70.4C 622.2 72.2 622.4 72.2 623.5 70.7C 624.3 69.6 626.1 68.9999 628.4 68.9999C 630.4 68.9999 632 68.4999 632 67.9C 632 67.4 632.5 67.2 633 67.4999C 633.6 67.9 634 68.9999 633.8 69.9C 633.5 71.9 635.9 76.9999 637.2 76.9999C 638.3 76.9999 638.2 75.2999 637 72.9C 635.7 70.4999 636.8 70.4 638.6 72.7C 639.8 74.4 639.9 74.4 640 72.4C 640 71.2 639 69.8 637.5 68.9999C 635.1 67.7 635 67.2999 635.3 60.2C 635.6 54.7 635.3 52.7 634.3 52.2999C 632.6 51.7 632.6 48.2999 634.3 47.7C 636.4 46.9 633.7 45.4 630.8 45.8z"/>
<path style="stroke:none; fill:#000000" d="M 623.1 49.6C 623.1 50.7 623.4 51 623.7 50.2C 624 49.4999 623.9 48.6 623.6 48.2999C 623.3 47.8999 623 48.5 623.1 49.6z"/>
<path style="stroke:none; fill:#000000" d="M 602.5 54C 602.2 54.5 602.6 55 603.4 55C 604.3 55 605 54.5 605 54C 605 53.4 604.6 53 604.1 53C 603.5 53 602.8 53.4 602.5 54z"/>
<path style="stroke:none; fill:#000000" d="M 630.7 57.7C 629.6 58.7 629.9 62 631 62C 631.6 62 632 60.9 632 59.5C 632 56.9 631.8 56.6 630.7 57.7z"/>
<path style="stroke:none; fill:#000000" d="M 581 60C 581 60.5 581.5 61 582 61C 582.6 61 583 60.5 583 60C 583 59.4 582.6 59 582 59C 581.5 59 581 59.4 581 60z"/>
<path style="stroke:none; fill:#000000" d="M 638.5 66.9C 638.2 67.4 638.4 68.1 639 68.4999C 639.5 68.7999 640 68.4 640 67.5999C 640 65.7999 639.4 65.5 638.5 66.9z"/>
<path style="stroke:none; fill:#000000" d="M 638.5 79C 638.2 79.5 638.1 80 638.5 80C 638.8 80 638.6 80.9 638.1 81.9C 637.3 83.3 637.4 84.1 638.5 85C 639.8 86.1 640 85.6 640 82.1C 640 78 639.6 77.2 638.5 79z"/>
<path style="stroke:none; fill:#000000" d="M 633 81.5C 633.7 82.3 634.6 83 635.1 83C 635.6 83 635.7 82.3 635.4 81.5C 635 80.7 634.1 80 633.3 80C 632 80 632 80.3 633 81.5z"/>
<path style="stroke:none; fill:#000000" d="M 620 107.4C 620 107.7 620.9 108.4 622 109C 623.1 109.6 624 109.8 624 109.6C 624 109.3 623.1 108.6 622 108C 620.9 107.4 620 107.2 620 107.4z"/>
<path style="stroke:none; fill:#000000" d="M 631.1 111.9C 629 113.3 631.2 113.9 635 113C 636.9 112.6 637.7 112.2 636.8 112.1C 635.9 112 634.6 111.8 633.8 111.5C 633.1 111.2 631.9 111.4 631.1 111.9z"/>
<path style="stroke:none; fill:#000000" d="M 632.8 127.7C 633.5 128 634.4 127.9 634.7 127.6C 635.1 127.3 634.5 127 633.4 127.1C 632.3 127.1 632 127.4 632.8 127.7z"/>
<path style="stroke:none; fill:#000000" d="M 632 177.1C 632 177.6 632.5 177.8 633 177.5C 633.6 177.2 634 176.7 634 176.4C 634 176.2 633.6 176 633 176C 632.5 176 632 176.5 632 177.1z"/>
<path style="stroke:none; fill:#000000" d="M 639.1 177.6C 639.1 178.7 639.4 179 639.7 178.2C 640 177.5 639.9 176.6 639.6 176.3C 639.3 175.9 639 176.5 639.1 177.6z"/>
<path style="stroke:none; fill:#000000" d="M 638 196C 638 196.5 638.5 197 639 197C 639.6 197 640 196.5 640 196C 640 195.4 639.6 195 639 195C 638.5 195 638 195.4 638 196z"/>
<path style="stroke:none; fill:#000000" d="M 634.8 216.7C 635.5 217 636.4 216.9 636.7 216.6C 637.1 216.3 636.5 216 635.4 216.1C 634.3 216.1 634 216.4 634.8 216.7z"/>
<path style="stroke:none; fill:#000000" d="M 0.2 476C 0.2 477.4 0.4 477.9 0.7 477.2C 0.9 476.6 0.9 475.4 0.7 474.7C 0.4 474.1 0.2 474.6 0.2 476z"/>
<path style="stroke:none; fill:#000000" d="M 128 508.7C 128 511.3 128.4 512 130 512C 132.5 512 132.5 510.9 130 507.9L 128.1 505.5L 128 508.7z"/>
<path style="stroke:none; fill:#000000" d="M 62.7 508.7C 62.1 509.8 64.2 520 65.1 520C 65.7 520 67 514.2 67 511.3C 67 509.8 63.3 507.7 62.7 508.7z"/>
<path style="stroke:none; fill:#000000" d="M 96.1 509.6C 96.1 510.7 96.4 511 96.7 510.2C 97 509.5 96.9 508.6 96.6 508.3C 96.3 507.9 96 508.5 96.1 509.6z"/>
<path style="stroke:none; fill:#000000" d="M 70 513.2C 70 514.9 72 517.9 72 516.3C 72 515.7 72.3 514.5 72.6 513.6C 73 512.5 72.7 512 71.6 512C 70.7 512 70 512.6 70 513.2z"/>
<path style="stroke:none; fill:#000000" d="M 126.3 519.7C 124.8 520.2 124.6 522 125.9 522C 126.4 522 127 521.3 127.4 520.5C 127.7 519.7 127.8 519 127.7 519.1C 127.6 519.1 126.9 519.4 126.3 519.7z"/>
<path style="stroke:none; fill:#000000" d="M 70 521C 70 521.5 71.1 522 72.4 522C 73.8 522 75.2 521.5 75.5 521C 75.9 520.4 74.8 520 73.1 520C 71.4 520 70 520.4 70 521z"/>
</g>
</g>
</svg>